<?xml version="1.0" encoding="utf-8" standalone="no"?>
<!DOCTYPE svg PUBLIC "-//W3C//DTD SVG 1.1//EN"
  "http://www.w3.org/Graphics/SVG/1.1/DTD/svg11.dtd">
<!-- Created with matplotlib (https://matplotlib.org/) -->
<svg height="288pt" version="1.1" viewBox="0 0 432 288" width="432pt" xmlns="http://www.w3.org/2000/svg" xmlns:xlink="http://www.w3.org/1999/xlink">
 <metadata>
  <rdf:RDF xmlns:cc="http://creativecommons.org/ns#" xmlns:dc="http://purl.org/dc/elements/1.1/" xmlns:rdf="http://www.w3.org/1999/02/22-rdf-syntax-ns#">
   <cc:Work>
    <dc:type rdf:resource="http://purl.org/dc/dcmitype/StillImage"/>
    <dc:date>2021-12-08T17:17:37.443994</dc:date>
    <dc:format>image/svg+xml</dc:format>
    <dc:creator>
     <cc:Agent>
      <dc:title>Matplotlib v3.3.4, https://matplotlib.org/</dc:title>
     </cc:Agent>
    </dc:creator>
   </cc:Work>
  </rdf:RDF>
 </metadata>
 <defs>
  <style type="text/css">*{stroke-linecap:butt;stroke-linejoin:round;}</style>
 </defs>
 <g id="figure_1">
  <g id="patch_1">
   <path d="M 0 288 
L 432 288 
L 432 0 
L 0 0 
z
" style="fill:none;"/>
  </g>
  <g id="axes_1">
   <g id="patch_2">
    <path d="M 54 252 
L 388.8 252 
L 388.8 34.56 
L 54 34.56 
z
" style="fill:#ffffff;"/>
   </g>
   <g id="matplotlib.axis_1">
    <g id="xtick_1">
     <g id="line2d_1">
      <defs>
       <path d="M 0 0 
L 0 3.5 
" id="m161e2a16e2" style="stroke:#000000;stroke-width:0.8;"/>
      </defs>
      <g>
       <use style="stroke:#000000;stroke-width:0.8;" x="69.218182" xlink:href="#m161e2a16e2" y="252"/>
      </g>
     </g>
     <g id="text_1">
      <!-- 0.0 -->
      <g transform="translate(61.718182 267.3325)scale(0.12 -0.12)">
       <defs>
        <path d="M 3.609375 32.71875 
Q 3.609375 44.046875 7.03125 52.21875 
Q 10.453125 60.40625 16.109375 64.40625 
Q 20.515625 67.578125 25.203125 67.578125 
Q 32.8125 67.578125 38.875 59.8125 
Q 46.4375 50.203125 46.4375 33.734375 
Q 46.4375 22.21875 43.109375 14.15625 
Q 39.796875 6.109375 34.640625 2.46875 
Q 29.5 -1.171875 24.703125 -1.171875 
Q 15.234375 -1.171875 8.9375 10.015625 
Q 3.609375 19.4375 3.609375 32.71875 
z
M 13.1875 31.5 
Q 13.1875 17.828125 16.546875 9.1875 
Q 19.34375 1.90625 24.859375 1.90625 
Q 27.484375 1.90625 30.3125 4.265625 
Q 33.15625 6.640625 34.625 12.203125 
Q 36.859375 20.609375 36.859375 35.890625 
Q 36.859375 47.21875 34.515625 54.78125 
Q 32.765625 60.40625 29.984375 62.75 
Q 27.984375 64.359375 25.140625 64.359375 
Q 21.828125 64.359375 19.234375 61.375 
Q 15.71875 57.328125 14.453125 48.625 
Q 13.1875 39.9375 13.1875 31.5 
z
" id="TimesNewRomanPSMT-48"/>
        <path d="M 12.5 9.46875 
Q 14.796875 9.46875 16.359375 7.875 
Q 17.921875 6.296875 17.921875 4.046875 
Q 17.921875 1.8125 16.328125 0.21875 
Q 14.75 -1.375 12.5 -1.375 
Q 10.25 -1.375 8.65625 0.21875 
Q 7.078125 1.8125 7.078125 4.046875 
Q 7.078125 6.34375 8.65625 7.90625 
Q 10.25 9.46875 12.5 9.46875 
z
" id="TimesNewRomanPSMT-46"/>
       </defs>
       <use xlink:href="#TimesNewRomanPSMT-48"/>
       <use x="50" xlink:href="#TimesNewRomanPSMT-46"/>
       <use x="75" xlink:href="#TimesNewRomanPSMT-48"/>
      </g>
     </g>
    </g>
    <g id="xtick_2">
     <g id="line2d_2">
      <g>
       <use style="stroke:#000000;stroke-width:0.8;" x="130.090909" xlink:href="#m161e2a16e2" y="252"/>
      </g>
     </g>
     <g id="text_2">
      <!-- 0.2 -->
      <g transform="translate(122.590909 267.3325)scale(0.12 -0.12)">
       <defs>
        <path d="M 45.84375 12.75 
L 41.21875 0 
L 2.15625 0 
L 2.15625 1.8125 
Q 19.390625 17.53125 26.421875 27.484375 
Q 33.453125 37.453125 33.453125 45.703125 
Q 33.453125 52 29.59375 56.046875 
Q 25.734375 60.109375 20.359375 60.109375 
Q 15.484375 60.109375 11.59375 57.25 
Q 7.71875 54.390625 5.859375 48.875 
L 4.046875 48.875 
Q 5.28125 57.90625 10.328125 62.734375 
Q 15.375 67.578125 22.953125 67.578125 
Q 31 67.578125 36.390625 62.40625 
Q 41.796875 57.234375 41.796875 50.203125 
Q 41.796875 45.171875 39.453125 40.140625 
Q 35.84375 32.234375 27.734375 23.390625 
Q 15.578125 10.109375 12.546875 7.375 
L 29.828125 7.375 
Q 35.109375 7.375 37.234375 7.765625 
Q 39.359375 8.15625 41.0625 9.34375 
Q 42.78125 10.546875 44.046875 12.75 
z
" id="TimesNewRomanPSMT-50"/>
       </defs>
       <use xlink:href="#TimesNewRomanPSMT-48"/>
       <use x="50" xlink:href="#TimesNewRomanPSMT-46"/>
       <use x="75" xlink:href="#TimesNewRomanPSMT-50"/>
      </g>
     </g>
    </g>
    <g id="xtick_3">
     <g id="line2d_3">
      <g>
       <use style="stroke:#000000;stroke-width:0.8;" x="190.963636" xlink:href="#m161e2a16e2" y="252"/>
      </g>
     </g>
     <g id="text_3">
      <!-- 0.4 -->
      <g transform="translate(183.463636 267.3325)scale(0.12 -0.12)">
       <defs>
        <path d="M 46.53125 24.421875 
L 46.53125 17.484375 
L 37.640625 17.484375 
L 37.640625 0 
L 29.59375 0 
L 29.59375 17.484375 
L 1.5625 17.484375 
L 1.5625 23.734375 
L 32.28125 67.578125 
L 37.640625 67.578125 
L 37.640625 24.421875 
z
M 29.59375 24.421875 
L 29.59375 57.28125 
L 6.34375 24.421875 
z
" id="TimesNewRomanPSMT-52"/>
       </defs>
       <use xlink:href="#TimesNewRomanPSMT-48"/>
       <use x="50" xlink:href="#TimesNewRomanPSMT-46"/>
       <use x="75" xlink:href="#TimesNewRomanPSMT-52"/>
      </g>
     </g>
    </g>
    <g id="xtick_4">
     <g id="line2d_4">
      <g>
       <use style="stroke:#000000;stroke-width:0.8;" x="251.836364" xlink:href="#m161e2a16e2" y="252"/>
      </g>
     </g>
     <g id="text_4">
      <!-- 0.6 -->
      <g transform="translate(244.336364 267.3325)scale(0.12 -0.12)">
       <defs>
        <path d="M 44.828125 67.578125 
L 44.828125 65.765625 
Q 38.375 65.140625 34.296875 63.203125 
Q 30.21875 61.28125 26.234375 57.328125 
Q 22.265625 53.375 19.65625 48.515625 
Q 17.046875 43.65625 15.28125 36.96875 
Q 22.3125 41.796875 29.390625 41.796875 
Q 36.1875 41.796875 41.15625 36.328125 
Q 46.140625 30.859375 46.140625 22.265625 
Q 46.140625 13.96875 41.109375 7.125 
Q 35.0625 -1.171875 25.09375 -1.171875 
Q 18.3125 -1.171875 13.578125 3.328125 
Q 4.296875 12.0625 4.296875 25.984375 
Q 4.296875 34.859375 7.859375 42.859375 
Q 11.421875 50.875 18.03125 57.078125 
Q 24.65625 63.28125 30.703125 65.421875 
Q 36.765625 67.578125 42 67.578125 
z
M 14.453125 33.40625 
Q 13.578125 26.8125 13.578125 22.75 
Q 13.578125 18.0625 15.3125 12.5625 
Q 17.046875 7.078125 20.453125 3.859375 
Q 22.953125 1.5625 26.515625 1.5625 
Q 30.765625 1.5625 34.109375 5.5625 
Q 37.453125 9.578125 37.453125 17 
Q 37.453125 25.34375 34.125 31.4375 
Q 30.8125 37.546875 24.703125 37.546875 
Q 22.859375 37.546875 20.734375 36.765625 
Q 18.609375 35.984375 14.453125 33.40625 
z
" id="TimesNewRomanPSMT-54"/>
       </defs>
       <use xlink:href="#TimesNewRomanPSMT-48"/>
       <use x="50" xlink:href="#TimesNewRomanPSMT-46"/>
       <use x="75" xlink:href="#TimesNewRomanPSMT-54"/>
      </g>
     </g>
    </g>
    <g id="xtick_5">
     <g id="line2d_5">
      <g>
       <use style="stroke:#000000;stroke-width:0.8;" x="312.709091" xlink:href="#m161e2a16e2" y="252"/>
      </g>
     </g>
     <g id="text_5">
      <!-- 0.8 -->
      <g transform="translate(305.209091 267.3325)scale(0.12 -0.12)">
       <defs>
        <path d="M 19.1875 33.34375 
Q 11.328125 39.796875 9.046875 43.703125 
Q 6.78125 47.609375 6.78125 51.8125 
Q 6.78125 58.25 11.765625 62.90625 
Q 16.75 67.578125 25 67.578125 
Q 33.015625 67.578125 37.890625 63.234375 
Q 42.78125 58.890625 42.78125 53.328125 
Q 42.78125 49.609375 40.140625 45.75 
Q 37.5 41.890625 29.15625 36.671875 
Q 37.75 30.03125 40.53125 26.21875 
Q 44.234375 21.234375 44.234375 15.71875 
Q 44.234375 8.734375 38.90625 3.78125 
Q 33.59375 -1.171875 24.953125 -1.171875 
Q 15.53125 -1.171875 10.25 4.734375 
Q 6.0625 9.46875 6.0625 15.09375 
Q 6.0625 19.484375 9.015625 23.796875 
Q 11.96875 28.125 19.1875 33.34375 
z
M 26.859375 38.578125 
Q 32.71875 43.84375 34.28125 46.890625 
Q 35.84375 49.953125 35.84375 53.8125 
Q 35.84375 58.9375 32.953125 61.84375 
Q 30.078125 64.75 25.09375 64.75 
Q 20.125 64.75 17 61.859375 
Q 13.875 58.984375 13.875 55.125 
Q 13.875 52.59375 15.15625 50.046875 
Q 16.453125 47.515625 18.84375 45.21875 
z
M 21.484375 31.5 
Q 17.4375 28.078125 15.484375 24.046875 
Q 13.53125 20.015625 13.53125 15.328125 
Q 13.53125 9.03125 16.96875 5.25 
Q 20.40625 1.46875 25.734375 1.46875 
Q 31 1.46875 34.171875 4.4375 
Q 37.359375 7.421875 37.359375 11.671875 
Q 37.359375 15.1875 35.5 17.96875 
Q 32.03125 23.140625 21.484375 31.5 
z
" id="TimesNewRomanPSMT-56"/>
       </defs>
       <use xlink:href="#TimesNewRomanPSMT-48"/>
       <use x="50" xlink:href="#TimesNewRomanPSMT-46"/>
       <use x="75" xlink:href="#TimesNewRomanPSMT-56"/>
      </g>
     </g>
    </g>
    <g id="xtick_6">
     <g id="line2d_6">
      <g>
       <use style="stroke:#000000;stroke-width:0.8;" x="373.581818" xlink:href="#m161e2a16e2" y="252"/>
      </g>
     </g>
     <g id="text_6">
      <!-- 1.0 -->
      <g transform="translate(366.081818 267.3325)scale(0.12 -0.12)">
       <defs>
        <path d="M 11.71875 59.71875 
L 27.828125 67.578125 
L 29.4375 67.578125 
L 29.4375 11.671875 
Q 29.4375 6.109375 29.90625 4.734375 
Q 30.375 3.375 31.828125 2.640625 
Q 33.296875 1.90625 37.796875 1.8125 
L 37.796875 0 
L 12.890625 0 
L 12.890625 1.8125 
Q 17.578125 1.90625 18.9375 2.609375 
Q 20.3125 3.328125 20.84375 4.515625 
Q 21.390625 5.71875 21.390625 11.671875 
L 21.390625 47.40625 
Q 21.390625 54.640625 20.90625 56.6875 
Q 20.5625 58.25 19.65625 58.984375 
Q 18.75 59.71875 17.484375 59.71875 
Q 15.671875 59.71875 12.453125 58.203125 
z
" id="TimesNewRomanPSMT-49"/>
       </defs>
       <use xlink:href="#TimesNewRomanPSMT-49"/>
       <use x="50" xlink:href="#TimesNewRomanPSMT-46"/>
       <use x="75" xlink:href="#TimesNewRomanPSMT-48"/>
      </g>
     </g>
    </g>
    <g id="text_7">
     <!-- Normalized density -->
     <g transform="translate(174.245625 282.231875)scale(0.12 -0.12)">
      <defs>
       <path d="M -1.3125 66.21875 
L 16.65625 66.21875 
L 57.125 16.546875 
L 57.125 54.734375 
Q 57.125 60.84375 55.765625 62.359375 
Q 53.953125 64.40625 50.046875 64.40625 
L 47.75 64.40625 
L 47.75 66.21875 
L 70.796875 66.21875 
L 70.796875 64.40625 
L 68.453125 64.40625 
Q 64.265625 64.40625 62.5 61.859375 
Q 61.421875 60.296875 61.421875 54.734375 
L 61.421875 -1.078125 
L 59.671875 -1.078125 
L 16.015625 52.25 
L 16.015625 11.46875 
Q 16.015625 5.375 17.328125 3.859375 
Q 19.1875 1.8125 23.046875 1.8125 
L 25.390625 1.8125 
L 25.390625 0 
L 2.34375 0 
L 2.34375 1.8125 
L 4.640625 1.8125 
Q 8.890625 1.8125 10.640625 4.34375 
Q 11.71875 5.90625 11.71875 11.46875 
L 11.71875 57.515625 
Q 8.84375 60.890625 7.34375 61.953125 
Q 5.859375 63.03125 2.984375 63.96875 
Q 1.5625 64.40625 -1.3125 64.40625 
z
" id="TimesNewRomanPSMT-78"/>
       <path d="M 25 46.046875 
Q 35.15625 46.046875 41.3125 38.328125 
Q 46.53125 31.734375 46.53125 23.1875 
Q 46.53125 17.1875 43.640625 11.03125 
Q 40.765625 4.890625 35.71875 1.75 
Q 30.671875 -1.375 24.46875 -1.375 
Q 14.359375 -1.375 8.40625 6.6875 
Q 3.375 13.484375 3.375 21.921875 
Q 3.375 28.078125 6.421875 34.15625 
Q 9.46875 40.234375 14.453125 43.140625 
Q 19.4375 46.046875 25 46.046875 
z
M 23.484375 42.875 
Q 20.90625 42.875 18.28125 41.328125 
Q 15.671875 39.796875 14.0625 35.9375 
Q 12.453125 32.078125 12.453125 26.03125 
Q 12.453125 16.265625 16.328125 9.171875 
Q 20.21875 2.09375 26.5625 2.09375 
Q 31.296875 2.09375 34.375 6 
Q 37.453125 9.90625 37.453125 19.4375 
Q 37.453125 31.34375 32.328125 38.1875 
Q 28.859375 42.875 23.484375 42.875 
z
" id="TimesNewRomanPSMT-111"/>
       <path d="M 16.21875 46.046875 
L 16.21875 35.984375 
Q 21.828125 46.046875 27.734375 46.046875 
Q 30.421875 46.046875 32.171875 44.40625 
Q 33.9375 42.78125 33.9375 40.625 
Q 33.9375 38.71875 32.65625 37.390625 
Q 31.390625 36.078125 29.640625 36.078125 
Q 27.9375 36.078125 25.8125 37.765625 
Q 23.6875 39.453125 22.65625 39.453125 
Q 21.78125 39.453125 20.75 38.484375 
Q 18.5625 36.46875 16.21875 31.890625 
L 16.21875 10.453125 
Q 16.21875 6.734375 17.140625 4.828125 
Q 17.78125 3.515625 19.390625 2.640625 
Q 21 1.765625 24.03125 1.765625 
L 24.03125 0 
L 1.125 0 
L 1.125 1.765625 
Q 4.546875 1.765625 6.203125 2.828125 
Q 7.421875 3.609375 7.90625 5.328125 
Q 8.15625 6.15625 8.15625 10.0625 
L 8.15625 27.390625 
Q 8.15625 35.203125 7.828125 36.6875 
Q 7.515625 38.1875 6.65625 38.859375 
Q 5.8125 39.546875 4.546875 39.546875 
Q 3.03125 39.546875 1.125 38.8125 
L 0.640625 40.578125 
L 14.15625 46.046875 
z
" id="TimesNewRomanPSMT-114"/>
       <path d="M 16.40625 36.53125 
Q 21.296875 41.40625 22.171875 42.140625 
Q 24.359375 44 26.890625 45.015625 
Q 29.4375 46.046875 31.9375 46.046875 
Q 36.140625 46.046875 39.15625 43.59375 
Q 42.1875 41.15625 43.21875 36.53125 
Q 48.25 42.390625 51.703125 44.21875 
Q 55.171875 46.046875 58.84375 46.046875 
Q 62.40625 46.046875 65.15625 44.21875 
Q 67.921875 42.390625 69.53125 38.234375 
Q 70.609375 35.40625 70.609375 29.34375 
L 70.609375 10.109375 
Q 70.609375 5.90625 71.234375 4.34375 
Q 71.734375 3.265625 73.046875 2.515625 
Q 74.359375 1.765625 77.34375 1.765625 
L 77.34375 0 
L 55.28125 0 
L 55.28125 1.765625 
L 56.203125 1.765625 
Q 59.078125 1.765625 60.6875 2.875 
Q 61.8125 3.65625 62.3125 5.375 
Q 62.5 6.203125 62.5 10.109375 
L 62.5 29.34375 
Q 62.5 34.8125 61.1875 37.0625 
Q 59.28125 40.1875 55.078125 40.1875 
Q 52.484375 40.1875 49.875 38.890625 
Q 47.265625 37.59375 43.5625 34.078125 
L 43.453125 33.546875 
L 43.5625 31.453125 
L 43.5625 10.109375 
Q 43.5625 5.515625 44.0625 4.390625 
Q 44.578125 3.265625 45.984375 2.515625 
Q 47.40625 1.765625 50.828125 1.765625 
L 50.828125 0 
L 28.21875 0 
L 28.21875 1.765625 
Q 31.9375 1.765625 33.328125 2.640625 
Q 34.71875 3.515625 35.25 5.28125 
Q 35.5 6.109375 35.5 10.109375 
L 35.5 29.34375 
Q 35.5 34.8125 33.890625 37.203125 
Q 31.734375 40.328125 27.875 40.328125 
Q 25.25 40.328125 22.65625 38.921875 
Q 18.609375 36.765625 16.40625 34.078125 
L 16.40625 10.109375 
Q 16.40625 5.71875 17.015625 4.390625 
Q 17.625 3.078125 18.8125 2.421875 
Q 20.015625 1.765625 23.6875 1.765625 
L 23.6875 0 
L 1.5625 0 
L 1.5625 1.765625 
Q 4.640625 1.765625 5.859375 2.421875 
Q 7.078125 3.078125 7.703125 4.515625 
Q 8.34375 5.953125 8.34375 10.109375 
L 8.34375 27.203125 
Q 8.34375 34.578125 7.90625 36.71875 
Q 7.5625 38.328125 6.828125 38.9375 
Q 6.109375 39.546875 4.828125 39.546875 
Q 3.46875 39.546875 1.5625 38.8125 
L 0.828125 40.578125 
L 14.3125 46.046875 
L 16.40625 46.046875 
z
" id="TimesNewRomanPSMT-109"/>
       <path d="M 28.46875 6.453125 
Q 21.578125 1.125 19.828125 0.296875 
Q 17.1875 -0.921875 14.203125 -0.921875 
Q 9.578125 -0.921875 6.5625 2.25 
Q 3.5625 5.421875 3.5625 10.59375 
Q 3.5625 13.875 5.03125 16.265625 
Q 7.03125 19.578125 11.984375 22.5 
Q 16.9375 25.4375 28.46875 29.640625 
L 28.46875 31.390625 
Q 28.46875 38.09375 26.34375 40.578125 
Q 24.21875 43.0625 20.171875 43.0625 
Q 17.09375 43.0625 15.28125 41.40625 
Q 13.421875 39.75 13.421875 37.59375 
L 13.53125 34.765625 
Q 13.53125 32.515625 12.375 31.296875 
Q 11.234375 30.078125 9.375 30.078125 
Q 7.5625 30.078125 6.421875 31.34375 
Q 5.28125 32.625 5.28125 34.8125 
Q 5.28125 39.015625 9.578125 42.53125 
Q 13.875 46.046875 21.625 46.046875 
Q 27.59375 46.046875 31.390625 44.046875 
Q 34.28125 42.53125 35.640625 39.3125 
Q 36.53125 37.203125 36.53125 30.71875 
L 36.53125 15.53125 
Q 36.53125 9.125 36.765625 7.6875 
Q 37.015625 6.25 37.578125 5.765625 
Q 38.140625 5.28125 38.875 5.28125 
Q 39.65625 5.28125 40.234375 5.609375 
Q 41.265625 6.25 44.1875 9.1875 
L 44.1875 6.453125 
Q 38.71875 -0.875 33.734375 -0.875 
Q 31.34375 -0.875 29.921875 0.78125 
Q 28.515625 2.4375 28.46875 6.453125 
z
M 28.46875 9.625 
L 28.46875 26.65625 
Q 21.09375 23.734375 18.953125 22.515625 
Q 15.09375 20.359375 13.421875 18.015625 
Q 11.765625 15.671875 11.765625 12.890625 
Q 11.765625 9.375 13.859375 7.046875 
Q 15.96875 4.734375 18.703125 4.734375 
Q 22.40625 4.734375 28.46875 9.625 
z
" id="TimesNewRomanPSMT-97"/>
       <path d="M 18.5 69.4375 
L 18.5 10.109375 
Q 18.5 5.90625 19.109375 4.53125 
Q 19.734375 3.171875 21 2.46875 
Q 22.265625 1.765625 25.734375 1.765625 
L 25.734375 0 
L 3.8125 0 
L 3.8125 1.765625 
Q 6.890625 1.765625 8 2.390625 
Q 9.125 3.03125 9.765625 4.484375 
Q 10.40625 5.953125 10.40625 10.109375 
L 10.40625 50.734375 
Q 10.40625 58.296875 10.0625 60.03125 
Q 9.71875 61.765625 8.953125 62.390625 
Q 8.203125 63.03125 7.03125 63.03125 
Q 5.765625 63.03125 3.8125 62.25 
L 2.984375 63.96875 
L 16.3125 69.4375 
z
" id="TimesNewRomanPSMT-108"/>
       <path d="M 14.5 69.4375 
Q 16.546875 69.4375 17.984375 67.984375 
Q 19.4375 66.546875 19.4375 64.5 
Q 19.4375 62.453125 17.984375 60.984375 
Q 16.546875 59.515625 14.5 59.515625 
Q 12.453125 59.515625 10.984375 60.984375 
Q 9.515625 62.453125 9.515625 64.5 
Q 9.515625 66.546875 10.953125 67.984375 
Q 12.40625 69.4375 14.5 69.4375 
z
M 18.5625 46.046875 
L 18.5625 10.109375 
Q 18.5625 5.90625 19.171875 4.515625 
Q 19.78125 3.125 20.96875 2.4375 
Q 22.171875 1.765625 25.34375 1.765625 
L 25.34375 0 
L 3.609375 0 
L 3.609375 1.765625 
Q 6.890625 1.765625 8 2.390625 
Q 9.125 3.03125 9.78125 4.484375 
Q 10.453125 5.953125 10.453125 10.109375 
L 10.453125 27.34375 
Q 10.453125 34.625 10.015625 36.765625 
Q 9.671875 38.328125 8.9375 38.9375 
Q 8.203125 39.546875 6.9375 39.546875 
Q 5.5625 39.546875 3.609375 38.8125 
L 2.9375 40.578125 
L 16.40625 46.046875 
z
" id="TimesNewRomanPSMT-105"/>
       <path d="M 42 13.71875 
L 41.453125 0 
L 2 0 
L 2 1.765625 
L 31.6875 41.3125 
L 17.046875 41.3125 
Q 12.3125 41.3125 10.84375 40.703125 
Q 9.375 40.09375 8.453125 38.375 
Q 7.125 35.9375 6.9375 32.328125 
L 4.984375 32.328125 
L 5.28125 44.734375 
L 42.78125 44.734375 
L 42.78125 42.921875 
L 12.796875 3.265625 
L 29.109375 3.265625 
Q 34.234375 3.265625 36.0625 4.125 
Q 37.890625 4.984375 39.015625 7.125 
Q 39.796875 8.6875 40.328125 13.71875 
z
" id="TimesNewRomanPSMT-122"/>
       <path d="M 10.640625 27.875 
Q 10.59375 17.921875 15.484375 12.25 
Q 20.359375 6.59375 26.953125 6.59375 
Q 31.34375 6.59375 34.59375 9 
Q 37.84375 11.421875 40.046875 17.28125 
L 41.546875 16.3125 
Q 40.53125 9.625 35.59375 4.125 
Q 30.671875 -1.375 23.25 -1.375 
Q 15.1875 -1.375 9.453125 4.90625 
Q 3.71875 11.1875 3.71875 21.78125 
Q 3.71875 33.25 9.59375 39.671875 
Q 15.484375 46.09375 24.359375 46.09375 
Q 31.890625 46.09375 36.71875 41.140625 
Q 41.546875 36.1875 41.546875 27.875 
z
M 10.640625 30.71875 
L 31.34375 30.71875 
Q 31.109375 35.015625 30.328125 36.765625 
Q 29.109375 39.5 26.6875 41.0625 
Q 24.265625 42.625 21.625 42.625 
Q 17.578125 42.625 14.375 39.46875 
Q 11.1875 36.328125 10.640625 30.71875 
z
" id="TimesNewRomanPSMT-101"/>
       <path d="M 34.71875 5.03125 
Q 31.453125 1.609375 28.328125 0.109375 
Q 25.203125 -1.375 21.578125 -1.375 
Q 14.265625 -1.375 8.796875 4.75 
Q 3.328125 10.890625 3.328125 20.515625 
Q 3.328125 30.125 9.375 38.109375 
Q 15.4375 46.09375 24.953125 46.09375 
Q 30.859375 46.09375 34.71875 42.328125 
L 34.71875 50.59375 
Q 34.71875 58.25 34.34375 60 
Q 33.984375 61.765625 33.203125 62.390625 
Q 32.421875 63.03125 31.25 63.03125 
Q 29.984375 63.03125 27.875 62.25 
L 27.25 63.96875 
L 40.578125 69.4375 
L 42.78125 69.4375 
L 42.78125 17.71875 
Q 42.78125 9.859375 43.140625 8.125 
Q 43.5 6.390625 44.3125 5.703125 
Q 45.125 5.03125 46.1875 5.03125 
Q 47.515625 5.03125 49.703125 5.859375 
L 50.25 4.15625 
L 36.96875 -1.375 
L 34.71875 -1.375 
z
M 34.71875 8.453125 
L 34.71875 31.5 
Q 34.421875 34.8125 32.953125 37.546875 
Q 31.5 40.28125 29.078125 41.671875 
Q 26.65625 43.0625 24.359375 43.0625 
Q 20.0625 43.0625 16.703125 39.203125 
Q 12.25 34.125 12.25 24.359375 
Q 12.25 14.5 16.546875 9.25 
Q 20.84375 4 26.125 4 
Q 30.5625 4 34.71875 8.453125 
z
" id="TimesNewRomanPSMT-100"/>
       <path id="TimesNewRomanPSMT-32"/>
       <path d="M 16.15625 36.578125 
Q 24.03125 46.046875 31.15625 46.046875 
Q 34.8125 46.046875 37.453125 44.21875 
Q 40.09375 42.390625 41.65625 38.1875 
Q 42.71875 35.25 42.71875 29.203125 
L 42.71875 10.109375 
Q 42.71875 5.859375 43.40625 4.34375 
Q 43.953125 3.125 45.140625 2.4375 
Q 46.34375 1.765625 49.5625 1.765625 
L 49.5625 0 
L 27.4375 0 
L 27.4375 1.765625 
L 28.375 1.765625 
Q 31.5 1.765625 32.734375 2.703125 
Q 33.984375 3.65625 34.46875 5.515625 
Q 34.671875 6.25 34.671875 10.109375 
L 34.671875 28.421875 
Q 34.671875 34.515625 33.078125 37.28125 
Q 31.5 40.046875 27.734375 40.046875 
Q 21.921875 40.046875 16.15625 33.6875 
L 16.15625 10.109375 
Q 16.15625 5.5625 16.703125 4.5 
Q 17.390625 3.078125 18.578125 2.421875 
Q 19.78125 1.765625 23.4375 1.765625 
L 23.4375 0 
L 1.3125 0 
L 1.3125 1.765625 
L 2.296875 1.765625 
Q 5.71875 1.765625 6.90625 3.484375 
Q 8.109375 5.21875 8.109375 10.109375 
L 8.109375 26.703125 
Q 8.109375 34.765625 7.734375 36.515625 
Q 7.375 38.28125 6.609375 38.90625 
Q 5.859375 39.546875 4.59375 39.546875 
Q 3.21875 39.546875 1.3125 38.8125 
L 0.59375 40.578125 
L 14.0625 46.046875 
L 16.15625 46.046875 
z
" id="TimesNewRomanPSMT-110"/>
       <path d="M 32.03125 46.046875 
L 32.03125 30.8125 
L 30.421875 30.8125 
Q 28.5625 37.984375 25.65625 40.578125 
Q 22.75 43.171875 18.265625 43.171875 
Q 14.84375 43.171875 12.734375 41.359375 
Q 10.640625 39.546875 10.640625 37.359375 
Q 10.640625 34.625 12.203125 32.671875 
Q 13.71875 30.671875 18.359375 28.421875 
L 25.484375 24.953125 
Q 35.40625 20.125 35.40625 12.203125 
Q 35.40625 6.109375 30.78125 2.359375 
Q 26.171875 -1.375 20.453125 -1.375 
Q 16.359375 -1.375 11.078125 0.09375 
Q 9.46875 0.59375 8.453125 0.59375 
Q 7.328125 0.59375 6.6875 -0.6875 
L 5.078125 -0.6875 
L 5.078125 15.28125 
L 6.6875 15.28125 
Q 8.0625 8.453125 11.90625 4.984375 
Q 15.765625 1.515625 20.5625 1.515625 
Q 23.921875 1.515625 26.046875 3.484375 
Q 28.171875 5.46875 28.171875 8.25 
Q 28.171875 11.625 25.796875 13.921875 
Q 23.4375 16.21875 16.359375 19.734375 
Q 9.28125 23.25 7.078125 26.078125 
Q 4.890625 28.859375 4.890625 33.109375 
Q 4.890625 38.625 8.671875 42.328125 
Q 12.453125 46.046875 18.453125 46.046875 
Q 21.09375 46.046875 24.859375 44.921875 
Q 27.34375 44.1875 28.171875 44.1875 
Q 28.953125 44.1875 29.390625 44.53125 
Q 29.828125 44.875 30.421875 46.046875 
z
" id="TimesNewRomanPSMT-115"/>
       <path d="M 16.109375 59.421875 
L 16.109375 44.734375 
L 26.5625 44.734375 
L 26.5625 41.3125 
L 16.109375 41.3125 
L 16.109375 12.3125 
Q 16.109375 7.953125 17.359375 6.4375 
Q 18.609375 4.9375 20.5625 4.9375 
Q 22.171875 4.9375 23.6875 5.9375 
Q 25.203125 6.9375 26.03125 8.890625 
L 27.9375 8.890625 
Q 26.21875 4.109375 23.09375 1.6875 
Q 19.96875 -0.734375 16.65625 -0.734375 
Q 14.40625 -0.734375 12.25 0.515625 
Q 10.109375 1.765625 9.078125 4.078125 
Q 8.0625 6.390625 8.0625 11.234375 
L 8.0625 41.3125 
L 0.984375 41.3125 
L 0.984375 42.921875 
Q 3.65625 44 6.46875 46.5625 
Q 9.28125 49.125 11.46875 52.640625 
Q 12.59375 54.5 14.59375 59.421875 
z
" id="TimesNewRomanPSMT-116"/>
       <path d="M 0.59375 44.734375 
L 21.4375 44.734375 
L 21.4375 42.921875 
L 20.40625 42.921875 
Q 18.21875 42.921875 17.109375 41.96875 
Q 16.015625 41.015625 16.015625 39.59375 
Q 16.015625 37.703125 17.625 34.328125 
L 28.515625 11.765625 
L 38.53125 36.46875 
Q 39.359375 38.484375 39.359375 40.4375 
Q 39.359375 41.3125 39.015625 41.75 
Q 38.625 42.28125 37.796875 42.59375 
Q 36.96875 42.921875 34.859375 42.921875 
L 34.859375 44.734375 
L 49.421875 44.734375 
L 49.421875 42.921875 
Q 47.609375 42.71875 46.625 42.125 
Q 45.65625 41.546875 44.484375 39.9375 
Q 44.046875 39.265625 42.828125 36.1875 
L 24.609375 -8.453125 
Q 21.96875 -14.9375 17.6875 -18.25 
Q 13.421875 -21.578125 9.46875 -21.578125 
Q 6.59375 -21.578125 4.734375 -19.921875 
Q 2.875 -18.265625 2.875 -16.109375 
Q 2.875 -14.0625 4.21875 -12.8125 
Q 5.5625 -11.578125 7.90625 -11.578125 
Q 9.515625 -11.578125 12.3125 -12.640625 
Q 14.265625 -13.375 14.75 -13.375 
Q 16.21875 -13.375 17.9375 -11.859375 
Q 19.671875 -10.359375 21.4375 -6 
L 24.609375 1.765625 
L 8.546875 35.5 
Q 7.8125 37.015625 6.203125 39.265625 
Q 4.984375 40.96875 4.203125 41.546875 
Q 3.078125 42.328125 0.59375 42.921875 
z
" id="TimesNewRomanPSMT-121"/>
      </defs>
      <use xlink:href="#TimesNewRomanPSMT-78"/>
      <use x="72.216797" xlink:href="#TimesNewRomanPSMT-111"/>
      <use x="122.216797" xlink:href="#TimesNewRomanPSMT-114"/>
      <use x="155.517578" xlink:href="#TimesNewRomanPSMT-109"/>
      <use x="233.300781" xlink:href="#TimesNewRomanPSMT-97"/>
      <use x="277.685547" xlink:href="#TimesNewRomanPSMT-108"/>
      <use x="305.46875" xlink:href="#TimesNewRomanPSMT-105"/>
      <use x="333.251953" xlink:href="#TimesNewRomanPSMT-122"/>
      <use x="377.636719" xlink:href="#TimesNewRomanPSMT-101"/>
      <use x="422.021484" xlink:href="#TimesNewRomanPSMT-100"/>
      <use x="472.021484" xlink:href="#TimesNewRomanPSMT-32"/>
      <use x="497.021484" xlink:href="#TimesNewRomanPSMT-100"/>
      <use x="547.021484" xlink:href="#TimesNewRomanPSMT-101"/>
      <use x="591.40625" xlink:href="#TimesNewRomanPSMT-110"/>
      <use x="641.40625" xlink:href="#TimesNewRomanPSMT-115"/>
      <use x="680.322266" xlink:href="#TimesNewRomanPSMT-105"/>
      <use x="708.105469" xlink:href="#TimesNewRomanPSMT-116"/>
      <use x="735.888672" xlink:href="#TimesNewRomanPSMT-121"/>
     </g>
    </g>
   </g>
   <g id="matplotlib.axis_2">
    <g id="ytick_1">
     <g id="line2d_7">
      <defs>
       <path d="M 0 0 
L -3.5 0 
" id="md49da831f4" style="stroke:#000000;stroke-width:0.8;"/>
      </defs>
      <g>
       <use style="stroke:#000000;stroke-width:0.8;" x="54" xlink:href="#md49da831f4" y="242.116364"/>
      </g>
     </g>
     <g id="text_8">
      <!-- 0.0 -->
      <g transform="translate(32 246.282614)scale(0.12 -0.12)">
       <use xlink:href="#TimesNewRomanPSMT-48"/>
       <use x="50" xlink:href="#TimesNewRomanPSMT-46"/>
       <use x="75" xlink:href="#TimesNewRomanPSMT-48"/>
      </g>
     </g>
    </g>
    <g id="ytick_2">
     <g id="line2d_8">
      <g>
       <use style="stroke:#000000;stroke-width:0.8;" x="54" xlink:href="#md49da831f4" y="202.581818"/>
      </g>
     </g>
     <g id="text_9">
      <!-- 0.2 -->
      <g transform="translate(32 206.748068)scale(0.12 -0.12)">
       <use xlink:href="#TimesNewRomanPSMT-48"/>
       <use x="50" xlink:href="#TimesNewRomanPSMT-46"/>
       <use x="75" xlink:href="#TimesNewRomanPSMT-50"/>
      </g>
     </g>
    </g>
    <g id="ytick_3">
     <g id="line2d_9">
      <g>
       <use style="stroke:#000000;stroke-width:0.8;" x="54" xlink:href="#md49da831f4" y="163.047273"/>
      </g>
     </g>
     <g id="text_10">
      <!-- 0.4 -->
      <g transform="translate(32 167.213523)scale(0.12 -0.12)">
       <use xlink:href="#TimesNewRomanPSMT-48"/>
       <use x="50" xlink:href="#TimesNewRomanPSMT-46"/>
       <use x="75" xlink:href="#TimesNewRomanPSMT-52"/>
      </g>
     </g>
    </g>
    <g id="ytick_4">
     <g id="line2d_10">
      <g>
       <use style="stroke:#000000;stroke-width:0.8;" x="54" xlink:href="#md49da831f4" y="123.512727"/>
      </g>
     </g>
     <g id="text_11">
      <!-- 0.6 -->
      <g transform="translate(32 127.678977)scale(0.12 -0.12)">
       <use xlink:href="#TimesNewRomanPSMT-48"/>
       <use x="50" xlink:href="#TimesNewRomanPSMT-46"/>
       <use x="75" xlink:href="#TimesNewRomanPSMT-54"/>
      </g>
     </g>
    </g>
    <g id="ytick_5">
     <g id="line2d_11">
      <g>
       <use style="stroke:#000000;stroke-width:0.8;" x="54" xlink:href="#md49da831f4" y="83.978182"/>
      </g>
     </g>
     <g id="text_12">
      <!-- 0.8 -->
      <g transform="translate(32 88.144432)scale(0.12 -0.12)">
       <use xlink:href="#TimesNewRomanPSMT-48"/>
       <use x="50" xlink:href="#TimesNewRomanPSMT-46"/>
       <use x="75" xlink:href="#TimesNewRomanPSMT-56"/>
      </g>
     </g>
    </g>
    <g id="ytick_6">
     <g id="line2d_12">
      <g>
       <use style="stroke:#000000;stroke-width:0.8;" x="54" xlink:href="#md49da831f4" y="44.443636"/>
      </g>
     </g>
     <g id="text_13">
      <!-- 1.0 -->
      <g transform="translate(32 48.609886)scale(0.12 -0.12)">
       <use xlink:href="#TimesNewRomanPSMT-49"/>
       <use x="50" xlink:href="#TimesNewRomanPSMT-46"/>
       <use x="75" xlink:href="#TimesNewRomanPSMT-48"/>
      </g>
     </g>
    </g>
    <g id="text_14">
     <!-- average velocity -->
     <g transform="translate(25.410625 182.759062)rotate(-90)scale(0.12 -0.12)">
      <defs>
       <path d="M 0.828125 44.734375 
L 21.875 44.734375 
L 21.875 42.921875 
L 20.515625 42.921875 
Q 18.609375 42.921875 17.609375 41.984375 
Q 16.609375 41.0625 16.609375 39.5 
Q 16.609375 37.796875 17.625 35.453125 
L 28.03125 10.75 
L 38.484375 36.375 
Q 39.59375 39.109375 39.59375 40.53125 
Q 39.59375 41.21875 39.203125 41.65625 
Q 38.671875 42.390625 37.84375 42.65625 
Q 37.015625 42.921875 34.46875 42.921875 
L 34.46875 44.734375 
L 49.078125 44.734375 
L 49.078125 42.921875 
Q 46.53125 42.71875 45.5625 41.890625 
Q 43.84375 40.4375 42.484375 37.015625 
L 26.609375 -1.375 
L 24.609375 -1.375 
L 8.640625 36.375 
Q 7.5625 39.015625 6.578125 40.15625 
Q 5.609375 41.3125 4.109375 42.09375 
Q 3.265625 42.53125 0.828125 42.921875 
z
" id="TimesNewRomanPSMT-118"/>
       <path d="M 15.09375 16.3125 
Q 10.984375 18.3125 8.78125 21.890625 
Q 6.59375 25.484375 6.59375 29.828125 
Q 6.59375 36.46875 11.59375 41.25 
Q 16.609375 46.046875 24.421875 46.046875 
Q 30.8125 46.046875 35.5 42.921875 
L 44.96875 42.921875 
Q 47.078125 42.921875 47.40625 42.796875 
Q 47.75 42.671875 47.90625 42.390625 
Q 48.1875 41.9375 48.1875 40.828125 
Q 48.1875 39.546875 47.953125 39.0625 
Q 47.796875 38.8125 47.4375 38.671875 
Q 47.078125 38.53125 44.96875 38.53125 
L 39.15625 38.53125 
Q 41.890625 35.015625 41.890625 29.546875 
Q 41.890625 23.296875 37.109375 18.84375 
Q 32.328125 14.40625 24.265625 14.40625 
Q 20.953125 14.40625 17.484375 15.375 
Q 15.328125 13.53125 14.5625 12.140625 
Q 13.8125 10.75 13.8125 9.765625 
Q 13.8125 8.9375 14.625 8.15625 
Q 15.4375 7.375 17.78125 7.03125 
Q 19.140625 6.84375 24.609375 6.6875 
Q 34.671875 6.453125 37.640625 6 
Q 42.1875 5.375 44.890625 2.640625 
Q 47.609375 -0.09375 47.609375 -4.109375 
Q 47.609375 -9.625 42.4375 -14.453125 
Q 34.8125 -21.578125 22.5625 -21.578125 
Q 13.140625 -21.578125 6.640625 -17.328125 
Q 2.984375 -14.890625 2.984375 -12.25 
Q 2.984375 -11.078125 3.515625 -9.90625 
Q 4.34375 -8.109375 6.9375 -4.890625 
Q 7.28125 -4.4375 11.921875 0.390625 
Q 9.375 1.90625 8.328125 3.09375 
Q 7.28125 4.296875 7.28125 5.8125 
Q 7.28125 7.515625 8.671875 9.8125 
Q 10.0625 12.109375 15.09375 16.3125 
z
M 23.578125 43.703125 
Q 19.96875 43.703125 17.53125 40.8125 
Q 15.09375 37.9375 15.09375 31.984375 
Q 15.09375 24.265625 18.40625 20.015625 
Q 20.953125 16.796875 24.859375 16.796875 
Q 28.5625 16.796875 30.953125 19.578125 
Q 33.34375 22.359375 33.34375 28.328125 
Q 33.34375 36.078125 29.984375 40.484375 
Q 27.484375 43.703125 23.578125 43.703125 
z
M 14.59375 0 
Q 12.3125 -2.484375 11.140625 -4.625 
Q 9.96875 -6.78125 9.96875 -8.59375 
Q 9.96875 -10.9375 12.796875 -12.703125 
Q 17.671875 -15.71875 26.90625 -15.71875 
Q 35.6875 -15.71875 39.859375 -12.609375 
Q 44.046875 -9.515625 44.046875 -6 
Q 44.046875 -3.46875 41.546875 -2.390625 
Q 39.015625 -1.3125 31.5 -1.125 
Q 20.515625 -0.828125 14.59375 0 
z
" id="TimesNewRomanPSMT-103"/>
       <path d="M 41.109375 17 
Q 39.3125 8.15625 34.03125 3.390625 
Q 28.765625 -1.375 22.359375 -1.375 
Q 14.75 -1.375 9.078125 5.015625 
Q 3.421875 11.421875 3.421875 22.3125 
Q 3.421875 32.859375 9.6875 39.453125 
Q 15.96875 46.046875 24.75 46.046875 
Q 31.34375 46.046875 35.59375 42.546875 
Q 39.84375 39.0625 39.84375 35.296875 
Q 39.84375 33.453125 38.640625 32.296875 
Q 37.453125 31.15625 35.296875 31.15625 
Q 32.421875 31.15625 30.953125 33.015625 
Q 30.125 34.03125 29.859375 36.90625 
Q 29.59375 39.796875 27.875 41.3125 
Q 26.171875 42.78125 23.140625 42.78125 
Q 18.265625 42.78125 15.28125 39.15625 
Q 11.328125 34.375 11.328125 26.515625 
Q 11.328125 18.5 15.25 12.375 
Q 19.1875 6.25 25.875 6.25 
Q 30.671875 6.25 34.46875 9.515625 
Q 37.15625 11.765625 39.703125 17.671875 
z
" id="TimesNewRomanPSMT-99"/>
      </defs>
      <use xlink:href="#TimesNewRomanPSMT-97"/>
      <use x="44.384766" xlink:href="#TimesNewRomanPSMT-118"/>
      <use x="94.384766" xlink:href="#TimesNewRomanPSMT-101"/>
      <use x="138.769531" xlink:href="#TimesNewRomanPSMT-114"/>
      <use x="172.070312" xlink:href="#TimesNewRomanPSMT-97"/>
      <use x="216.455078" xlink:href="#TimesNewRomanPSMT-103"/>
      <use x="266.455078" xlink:href="#TimesNewRomanPSMT-101"/>
      <use x="310.839844" xlink:href="#TimesNewRomanPSMT-32"/>
      <use x="335.839844" xlink:href="#TimesNewRomanPSMT-118"/>
      <use x="385.839844" xlink:href="#TimesNewRomanPSMT-101"/>
      <use x="430.224609" xlink:href="#TimesNewRomanPSMT-108"/>
      <use x="458.007812" xlink:href="#TimesNewRomanPSMT-111"/>
      <use x="508.007812" xlink:href="#TimesNewRomanPSMT-99"/>
      <use x="552.392578" xlink:href="#TimesNewRomanPSMT-105"/>
      <use x="580.175781" xlink:href="#TimesNewRomanPSMT-116"/>
      <use x="607.958984" xlink:href="#TimesNewRomanPSMT-121"/>
     </g>
    </g>
   </g>
   <g id="line2d_13">
    <defs>
     <path d="M 0 3 
C 0.795609 3 1.55874 2.683901 2.12132 2.12132 
C 2.683901 1.55874 3 0.795609 3 0 
C 3 -0.795609 2.683901 -1.55874 2.12132 -2.12132 
C 1.55874 -2.683901 0.795609 -3 0 -3 
C -0.795609 -3 -1.55874 -2.683901 -2.12132 -2.12132 
C -2.683901 -1.55874 -3 -0.795609 -3 0 
C -3 0.795609 -2.683901 1.55874 -2.12132 2.12132 
C -1.55874 2.683901 -0.795609 3 0 3 
z
" id="m482b7a09c1" style="stroke:#0000ff;"/>
    </defs>
    <g clip-path="url(#pb936311464)">
     <use style="fill:#0000ff;stroke:#0000ff;" x="69.218182" xlink:href="#m482b7a09c1" y="242.116364"/>
     <use style="fill:#0000ff;stroke:#0000ff;" x="73.327091" xlink:href="#m482b7a09c1" y="44.443636"/>
     <use style="fill:#0000ff;stroke:#0000ff;" x="77.436" xlink:href="#m482b7a09c1" y="44.443636"/>
     <use style="fill:#0000ff;stroke:#0000ff;" x="81.544909" xlink:href="#m482b7a09c1" y="44.443636"/>
     <use style="fill:#0000ff;stroke:#0000ff;" x="85.653818" xlink:href="#m482b7a09c1" y="44.448517"/>
     <use style="fill:#0000ff;stroke:#0000ff;" x="89.762727" xlink:href="#m482b7a09c1" y="44.467064"/>
     <use style="fill:#0000ff;stroke:#0000ff;" x="93.871636" xlink:href="#m482b7a09c1" y="44.46804"/>
     <use style="fill:#0000ff;stroke:#0000ff;" x="97.980545" xlink:href="#m482b7a09c1" y="44.513362"/>
     <use style="fill:#0000ff;stroke:#0000ff;" x="102.119891" xlink:href="#m482b7a09c1" y="44.539943"/>
     <use style="fill:#0000ff;stroke:#0000ff;" x="106.2288" xlink:href="#m482b7a09c1" y="44.594275"/>
     <use style="fill:#0000ff;stroke:#0000ff;" x="110.337709" xlink:href="#m482b7a09c1" y="44.743096"/>
     <use style="fill:#0000ff;stroke:#0000ff;" x="114.446618" xlink:href="#m482b7a09c1" y="44.791271"/>
     <use style="fill:#0000ff;stroke:#0000ff;" x="118.555527" xlink:href="#m482b7a09c1" y="44.924099"/>
     <use style="fill:#0000ff;stroke:#0000ff;" x="122.664436" xlink:href="#m482b7a09c1" y="45.314927"/>
     <use style="fill:#0000ff;stroke:#0000ff;" x="126.773345" xlink:href="#m482b7a09c1" y="45.939161"/>
     <use style="fill:#0000ff;stroke:#0000ff;" x="130.912691" xlink:href="#m482b7a09c1" y="46.260756"/>
     <use style="fill:#0000ff;stroke:#0000ff;" x="135.0216" xlink:href="#m482b7a09c1" y="46.887878"/>
     <use style="fill:#0000ff;stroke:#0000ff;" x="139.130509" xlink:href="#m482b7a09c1" y="47.999508"/>
     <use style="fill:#0000ff;stroke:#0000ff;" x="143.239418" xlink:href="#m482b7a09c1" y="49.304717"/>
     <use style="fill:#0000ff;stroke:#0000ff;" x="147.348327" xlink:href="#m482b7a09c1" y="51.649797"/>
     <use style="fill:#0000ff;stroke:#0000ff;" x="151.457236" xlink:href="#m482b7a09c1" y="54.145353"/>
     <use style="fill:#0000ff;stroke:#0000ff;" x="155.566145" xlink:href="#m482b7a09c1" y="57.167062"/>
     <use style="fill:#0000ff;stroke:#0000ff;" x="159.675055" xlink:href="#m482b7a09c1" y="62.078544"/>
     <use style="fill:#0000ff;stroke:#0000ff;" x="163.8144" xlink:href="#m482b7a09c1" y="68.022321"/>
     <use style="fill:#0000ff;stroke:#0000ff;" x="167.923309" xlink:href="#m482b7a09c1" y="74.196338"/>
     <use style="fill:#0000ff;stroke:#0000ff;" x="172.032218" xlink:href="#m482b7a09c1" y="83.066866"/>
     <use style="fill:#0000ff;stroke:#0000ff;" x="176.141127" xlink:href="#m482b7a09c1" y="92.570446"/>
     <use style="fill:#0000ff;stroke:#0000ff;" x="180.250036" xlink:href="#m482b7a09c1" y="102.202943"/>
     <use style="fill:#0000ff;stroke:#0000ff;" x="184.358945" xlink:href="#m482b7a09c1" y="112.490152"/>
     <use style="fill:#0000ff;stroke:#0000ff;" x="188.467855" xlink:href="#m482b7a09c1" y="121.356389"/>
     <use style="fill:#0000ff;stroke:#0000ff;" x="192.6072" xlink:href="#m482b7a09c1" y="130.543908"/>
     <use style="fill:#0000ff;stroke:#0000ff;" x="196.716109" xlink:href="#m482b7a09c1" y="138.856862"/>
     <use style="fill:#0000ff;stroke:#0000ff;" x="200.825018" xlink:href="#m482b7a09c1" y="146.684262"/>
     <use style="fill:#0000ff;stroke:#0000ff;" x="204.933927" xlink:href="#m482b7a09c1" y="154.128431"/>
     <use style="fill:#0000ff;stroke:#0000ff;" x="209.042836" xlink:href="#m482b7a09c1" y="160.573997"/>
     <use style="fill:#0000ff;stroke:#0000ff;" x="213.151745" xlink:href="#m482b7a09c1" y="166.888982"/>
     <use style="fill:#0000ff;stroke:#0000ff;" x="217.260655" xlink:href="#m482b7a09c1" y="172.697636"/>
     <use style="fill:#0000ff;stroke:#0000ff;" x="221.4" xlink:href="#m482b7a09c1" y="177.985533"/>
     <use style="fill:#0000ff;stroke:#0000ff;" x="225.508909" xlink:href="#m482b7a09c1" y="182.705989"/>
     <use style="fill:#0000ff;stroke:#0000ff;" x="229.617818" xlink:href="#m482b7a09c1" y="187.217609"/>
     <use style="fill:#0000ff;stroke:#0000ff;" x="233.726727" xlink:href="#m482b7a09c1" y="190.785334"/>
     <use style="fill:#0000ff;stroke:#0000ff;" x="237.835636" xlink:href="#m482b7a09c1" y="195.089047"/>
     <use style="fill:#0000ff;stroke:#0000ff;" x="241.944545" xlink:href="#m482b7a09c1" y="198.050846"/>
     <use style="fill:#0000ff;stroke:#0000ff;" x="246.053455" xlink:href="#m482b7a09c1" y="201.360625"/>
     <use style="fill:#0000ff;stroke:#0000ff;" x="250.162364" xlink:href="#m482b7a09c1" y="204.311718"/>
     <use style="fill:#0000ff;stroke:#0000ff;" x="254.301709" xlink:href="#m482b7a09c1" y="206.726628"/>
     <use style="fill:#0000ff;stroke:#0000ff;" x="258.410618" xlink:href="#m482b7a09c1" y="209.5169"/>
     <use style="fill:#0000ff;stroke:#0000ff;" x="262.519527" xlink:href="#m482b7a09c1" y="212.042885"/>
     <use style="fill:#0000ff;stroke:#0000ff;" x="266.628436" xlink:href="#m482b7a09c1" y="214.222952"/>
     <use style="fill:#0000ff;stroke:#0000ff;" x="270.737345" xlink:href="#m482b7a09c1" y="216.198676"/>
     <use style="fill:#0000ff;stroke:#0000ff;" x="274.846255" xlink:href="#m482b7a09c1" y="218.10929"/>
     <use style="fill:#0000ff;stroke:#0000ff;" x="278.955164" xlink:href="#m482b7a09c1" y="219.891688"/>
     <use style="fill:#0000ff;stroke:#0000ff;" x="283.094509" xlink:href="#m482b7a09c1" y="221.591069"/>
     <use style="fill:#0000ff;stroke:#0000ff;" x="287.203418" xlink:href="#m482b7a09c1" y="223.013336"/>
     <use style="fill:#0000ff;stroke:#0000ff;" x="291.312327" xlink:href="#m482b7a09c1" y="224.55021"/>
     <use style="fill:#0000ff;stroke:#0000ff;" x="295.421236" xlink:href="#m482b7a09c1" y="225.952877"/>
     <use style="fill:#0000ff;stroke:#0000ff;" x="299.530145" xlink:href="#m482b7a09c1" y="227.202918"/>
     <use style="fill:#0000ff;stroke:#0000ff;" x="303.639055" xlink:href="#m482b7a09c1" y="228.509574"/>
     <use style="fill:#0000ff;stroke:#0000ff;" x="307.747964" xlink:href="#m482b7a09c1" y="229.615167"/>
     <use style="fill:#0000ff;stroke:#0000ff;" x="311.856873" xlink:href="#m482b7a09c1" y="230.775391"/>
     <use style="fill:#0000ff;stroke:#0000ff;" x="315.996218" xlink:href="#m482b7a09c1" y="231.858089"/>
     <use style="fill:#0000ff;stroke:#0000ff;" x="320.105127" xlink:href="#m482b7a09c1" y="232.839998"/>
     <use style="fill:#0000ff;stroke:#0000ff;" x="324.214036" xlink:href="#m482b7a09c1" y="233.690381"/>
     <use style="fill:#0000ff;stroke:#0000ff;" x="328.322945" xlink:href="#m482b7a09c1" y="234.56627"/>
     <use style="fill:#0000ff;stroke:#0000ff;" x="332.431855" xlink:href="#m482b7a09c1" y="235.486434"/>
     <use style="fill:#0000ff;stroke:#0000ff;" x="336.540764" xlink:href="#m482b7a09c1" y="236.239972"/>
     <use style="fill:#0000ff;stroke:#0000ff;" x="340.649673" xlink:href="#m482b7a09c1" y="237.032021"/>
     <use style="fill:#0000ff;stroke:#0000ff;" x="344.789018" xlink:href="#m482b7a09c1" y="237.776617"/>
     <use style="fill:#0000ff;stroke:#0000ff;" x="348.897927" xlink:href="#m482b7a09c1" y="238.504948"/>
     <use style="fill:#0000ff;stroke:#0000ff;" x="353.006836" xlink:href="#m482b7a09c1" y="239.154099"/>
     <use style="fill:#0000ff;stroke:#0000ff;" x="357.115745" xlink:href="#m482b7a09c1" y="239.800325"/>
     <use style="fill:#0000ff;stroke:#0000ff;" x="361.224655" xlink:href="#m482b7a09c1" y="240.423831"/>
     <use style="fill:#0000ff;stroke:#0000ff;" x="365.333564" xlink:href="#m482b7a09c1" y="241.0108"/>
     <use style="fill:#0000ff;stroke:#0000ff;" x="369.442473" xlink:href="#m482b7a09c1" y="241.561127"/>
     <use style="fill:#0000ff;stroke:#0000ff;" x="373.581818" xlink:href="#m482b7a09c1" y="242.116364"/>
    </g>
   </g>
   <g id="line2d_14">
    <defs>
     <path d="M -0 3 
L 3 -3 
L -3 -3 
z
" id="m2db77cb62d" style="stroke:#ff0000;stroke-linejoin:miter;"/>
    </defs>
    <g clip-path="url(#pb936311464)">
     <use style="fill:#ff0000;stroke:#ff0000;stroke-linejoin:miter;" x="69.218182" xlink:href="#m2db77cb62d" y="242.116364"/>
     <use style="fill:#ff0000;stroke:#ff0000;stroke-linejoin:miter;" x="73.327091" xlink:href="#m2db77cb62d" y="44.443636"/>
     <use style="fill:#ff0000;stroke:#ff0000;stroke-linejoin:miter;" x="77.436" xlink:href="#m2db77cb62d" y="44.443636"/>
     <use style="fill:#ff0000;stroke:#ff0000;stroke-linejoin:miter;" x="81.544909" xlink:href="#m2db77cb62d" y="44.44689"/>
     <use style="fill:#ff0000;stroke:#ff0000;stroke-linejoin:miter;" x="85.653818" xlink:href="#m2db77cb62d" y="44.453398"/>
     <use style="fill:#ff0000;stroke:#ff0000;stroke-linejoin:miter;" x="89.762727" xlink:href="#m2db77cb62d" y="44.459255"/>
     <use style="fill:#ff0000;stroke:#ff0000;stroke-linejoin:miter;" x="93.871636" xlink:href="#m2db77cb62d" y="44.46804"/>
     <use style="fill:#ff0000;stroke:#ff0000;stroke-linejoin:miter;" x="97.980545" xlink:href="#m2db77cb62d" y="44.496628"/>
     <use style="fill:#ff0000;stroke:#ff0000;stroke-linejoin:miter;" x="102.119891" xlink:href="#m2db77cb62d" y="44.524095"/>
     <use style="fill:#ff0000;stroke:#ff0000;stroke-linejoin:miter;" x="106.2288" xlink:href="#m2db77cb62d" y="44.597526"/>
     <use style="fill:#ff0000;stroke:#ff0000;stroke-linejoin:miter;" x="110.337709" xlink:href="#m2db77cb62d" y="44.711882"/>
     <use style="fill:#ff0000;stroke:#ff0000;stroke-linejoin:miter;" x="114.446618" xlink:href="#m2db77cb62d" y="44.814328"/>
     <use style="fill:#ff0000;stroke:#ff0000;stroke-linejoin:miter;" x="118.555527" xlink:href="#m2db77cb62d" y="44.972064"/>
     <use style="fill:#ff0000;stroke:#ff0000;stroke-linejoin:miter;" x="122.664436" xlink:href="#m2db77cb62d" y="45.281907"/>
     <use style="fill:#ff0000;stroke:#ff0000;stroke-linejoin:miter;" x="126.773345" xlink:href="#m2db77cb62d" y="45.791421"/>
     <use style="fill:#ff0000;stroke:#ff0000;stroke-linejoin:miter;" x="130.912691" xlink:href="#m2db77cb62d" y="46.207445"/>
     <use style="fill:#ff0000;stroke:#ff0000;stroke-linejoin:miter;" x="135.0216" xlink:href="#m2db77cb62d" y="47.300535"/>
     <use style="fill:#ff0000;stroke:#ff0000;stroke-linejoin:miter;" x="139.130509" xlink:href="#m2db77cb62d" y="48.193423"/>
     <use style="fill:#ff0000;stroke:#ff0000;stroke-linejoin:miter;" x="143.239418" xlink:href="#m2db77cb62d" y="49.63092"/>
     <use style="fill:#ff0000;stroke:#ff0000;stroke-linejoin:miter;" x="147.348327" xlink:href="#m2db77cb62d" y="51.12154"/>
     <use style="fill:#ff0000;stroke:#ff0000;stroke-linejoin:miter;" x="151.457236" xlink:href="#m2db77cb62d" y="53.78883"/>
     <use style="fill:#ff0000;stroke:#ff0000;stroke-linejoin:miter;" x="155.566145" xlink:href="#m2db77cb62d" y="57.773249"/>
     <use style="fill:#ff0000;stroke:#ff0000;stroke-linejoin:miter;" x="159.675055" xlink:href="#m2db77cb62d" y="61.523394"/>
     <use style="fill:#ff0000;stroke:#ff0000;stroke-linejoin:miter;" x="163.8144" xlink:href="#m2db77cb62d" y="69.178168"/>
     <use style="fill:#ff0000;stroke:#ff0000;stroke-linejoin:miter;" x="167.923309" xlink:href="#m2db77cb62d" y="74.029731"/>
     <use style="fill:#ff0000;stroke:#ff0000;stroke-linejoin:miter;" x="172.032218" xlink:href="#m2db77cb62d" y="84.697169"/>
     <use style="fill:#ff0000;stroke:#ff0000;stroke-linejoin:miter;" x="176.141127" xlink:href="#m2db77cb62d" y="92.49092"/>
     <use style="fill:#ff0000;stroke:#ff0000;stroke-linejoin:miter;" x="180.250036" xlink:href="#m2db77cb62d" y="102.474598"/>
     <use style="fill:#ff0000;stroke:#ff0000;stroke-linejoin:miter;" x="184.358945" xlink:href="#m2db77cb62d" y="112.406547"/>
     <use style="fill:#ff0000;stroke:#ff0000;stroke-linejoin:miter;" x="188.467855" xlink:href="#m2db77cb62d" y="121.146171"/>
     <use style="fill:#ff0000;stroke:#ff0000;stroke-linejoin:miter;" x="192.6072" xlink:href="#m2db77cb62d" y="130.593968"/>
     <use style="fill:#ff0000;stroke:#ff0000;stroke-linejoin:miter;" x="196.716109" xlink:href="#m2db77cb62d" y="138.852773"/>
     <use style="fill:#ff0000;stroke:#ff0000;stroke-linejoin:miter;" x="200.825018" xlink:href="#m2db77cb62d" y="147.073451"/>
     <use style="fill:#ff0000;stroke:#ff0000;stroke-linejoin:miter;" x="204.933927" xlink:href="#m2db77cb62d" y="153.91505"/>
     <use style="fill:#ff0000;stroke:#ff0000;stroke-linejoin:miter;" x="209.042836" xlink:href="#m2db77cb62d" y="161.006576"/>
     <use style="fill:#ff0000;stroke:#ff0000;stroke-linejoin:miter;" x="213.151745" xlink:href="#m2db77cb62d" y="166.776121"/>
     <use style="fill:#ff0000;stroke:#ff0000;stroke-linejoin:miter;" x="217.260655" xlink:href="#m2db77cb62d" y="172.824974"/>
     <use style="fill:#ff0000;stroke:#ff0000;stroke-linejoin:miter;" x="221.4" xlink:href="#m2db77cb62d" y="177.943362"/>
     <use style="fill:#ff0000;stroke:#ff0000;stroke-linejoin:miter;" x="225.508909" xlink:href="#m2db77cb62d" y="182.518389"/>
     <use style="fill:#ff0000;stroke:#ff0000;stroke-linejoin:miter;" x="229.617818" xlink:href="#m2db77cb62d" y="186.778002"/>
     <use style="fill:#ff0000;stroke:#ff0000;stroke-linejoin:miter;" x="233.726727" xlink:href="#m2db77cb62d" y="191.260285"/>
     <use style="fill:#ff0000;stroke:#ff0000;stroke-linejoin:miter;" x="237.835636" xlink:href="#m2db77cb62d" y="194.773151"/>
     <use style="fill:#ff0000;stroke:#ff0000;stroke-linejoin:miter;" x="241.944545" xlink:href="#m2db77cb62d" y="198.151163"/>
     <use style="fill:#ff0000;stroke:#ff0000;stroke-linejoin:miter;" x="246.053455" xlink:href="#m2db77cb62d" y="201.452487"/>
     <use style="fill:#ff0000;stroke:#ff0000;stroke-linejoin:miter;" x="250.162364" xlink:href="#m2db77cb62d" y="204.344746"/>
     <use style="fill:#ff0000;stroke:#ff0000;stroke-linejoin:miter;" x="254.301709" xlink:href="#m2db77cb62d" y="207.13036"/>
     <use style="fill:#ff0000;stroke:#ff0000;stroke-linejoin:miter;" x="258.410618" xlink:href="#m2db77cb62d" y="209.476407"/>
     <use style="fill:#ff0000;stroke:#ff0000;stroke-linejoin:miter;" x="262.519527" xlink:href="#m2db77cb62d" y="212.05326"/>
     <use style="fill:#ff0000;stroke:#ff0000;stroke-linejoin:miter;" x="266.628436" xlink:href="#m2db77cb62d" y="214.10267"/>
     <use style="fill:#ff0000;stroke:#ff0000;stroke-linejoin:miter;" x="270.737345" xlink:href="#m2db77cb62d" y="216.27212"/>
     <use style="fill:#ff0000;stroke:#ff0000;stroke-linejoin:miter;" x="274.846255" xlink:href="#m2db77cb62d" y="218.052333"/>
     <use style="fill:#ff0000;stroke:#ff0000;stroke-linejoin:miter;" x="278.955164" xlink:href="#m2db77cb62d" y="219.908899"/>
     <use style="fill:#ff0000;stroke:#ff0000;stroke-linejoin:miter;" x="283.094509" xlink:href="#m2db77cb62d" y="221.496175"/>
     <use style="fill:#ff0000;stroke:#ff0000;stroke-linejoin:miter;" x="287.203418" xlink:href="#m2db77cb62d" y="223.126313"/>
     <use style="fill:#ff0000;stroke:#ff0000;stroke-linejoin:miter;" x="291.312327" xlink:href="#m2db77cb62d" y="224.518967"/>
     <use style="fill:#ff0000;stroke:#ff0000;stroke-linejoin:miter;" x="295.421236" xlink:href="#m2db77cb62d" y="225.898441"/>
     <use style="fill:#ff0000;stroke:#ff0000;stroke-linejoin:miter;" x="299.530145" xlink:href="#m2db77cb62d" y="227.223294"/>
     <use style="fill:#ff0000;stroke:#ff0000;stroke-linejoin:miter;" x="303.639055" xlink:href="#m2db77cb62d" y="228.481856"/>
     <use style="fill:#ff0000;stroke:#ff0000;stroke-linejoin:miter;" x="307.747964" xlink:href="#m2db77cb62d" y="229.562872"/>
     <use style="fill:#ff0000;stroke:#ff0000;stroke-linejoin:miter;" x="311.856873" xlink:href="#m2db77cb62d" y="230.681332"/>
     <use style="fill:#ff0000;stroke:#ff0000;stroke-linejoin:miter;" x="315.996218" xlink:href="#m2db77cb62d" y="231.830946"/>
     <use style="fill:#ff0000;stroke:#ff0000;stroke-linejoin:miter;" x="320.105127" xlink:href="#m2db77cb62d" y="232.768695"/>
     <use style="fill:#ff0000;stroke:#ff0000;stroke-linejoin:miter;" x="324.214036" xlink:href="#m2db77cb62d" y="233.698403"/>
     <use style="fill:#ff0000;stroke:#ff0000;stroke-linejoin:miter;" x="328.322945" xlink:href="#m2db77cb62d" y="234.597075"/>
     <use style="fill:#ff0000;stroke:#ff0000;stroke-linejoin:miter;" x="332.431855" xlink:href="#m2db77cb62d" y="235.447271"/>
     <use style="fill:#ff0000;stroke:#ff0000;stroke-linejoin:miter;" x="336.540764" xlink:href="#m2db77cb62d" y="236.207413"/>
     <use style="fill:#ff0000;stroke:#ff0000;stroke-linejoin:miter;" x="340.649673" xlink:href="#m2db77cb62d" y="237.038523"/>
     <use style="fill:#ff0000;stroke:#ff0000;stroke-linejoin:miter;" x="344.789018" xlink:href="#m2db77cb62d" y="237.765264"/>
     <use style="fill:#ff0000;stroke:#ff0000;stroke-linejoin:miter;" x="348.897927" xlink:href="#m2db77cb62d" y="238.491754"/>
     <use style="fill:#ff0000;stroke:#ff0000;stroke-linejoin:miter;" x="353.006836" xlink:href="#m2db77cb62d" y="239.134878"/>
     <use style="fill:#ff0000;stroke:#ff0000;stroke-linejoin:miter;" x="357.115745" xlink:href="#m2db77cb62d" y="239.796424"/>
     <use style="fill:#ff0000;stroke:#ff0000;stroke-linejoin:miter;" x="361.224655" xlink:href="#m2db77cb62d" y="240.404738"/>
     <use style="fill:#ff0000;stroke:#ff0000;stroke-linejoin:miter;" x="365.333564" xlink:href="#m2db77cb62d" y="240.995494"/>
     <use style="fill:#ff0000;stroke:#ff0000;stroke-linejoin:miter;" x="369.442473" xlink:href="#m2db77cb62d" y="241.570746"/>
     <use style="fill:#ff0000;stroke:#ff0000;stroke-linejoin:miter;" x="373.581818" xlink:href="#m2db77cb62d" y="242.116364"/>
    </g>
   </g>
   <g id="line2d_15">
    <defs>
     <path d="M 0 -3 
L -3 3 
L 3 3 
z
" id="ma49baacc86" style="stroke:#008000;stroke-linejoin:miter;"/>
    </defs>
    <g clip-path="url(#pb936311464)">
     <use style="fill:#008000;stroke:#008000;stroke-linejoin:miter;" x="69.218182" xlink:href="#ma49baacc86" y="242.116364"/>
     <use style="fill:#008000;stroke:#008000;stroke-linejoin:miter;" x="73.327091" xlink:href="#ma49baacc86" y="44.443636"/>
     <use style="fill:#008000;stroke:#008000;stroke-linejoin:miter;" x="77.436" xlink:href="#ma49baacc86" y="44.443636"/>
     <use style="fill:#008000;stroke:#008000;stroke-linejoin:miter;" x="81.544909" xlink:href="#ma49baacc86" y="44.443636"/>
     <use style="fill:#008000;stroke:#008000;stroke-linejoin:miter;" x="85.653818" xlink:href="#ma49baacc86" y="44.448517"/>
     <use style="fill:#008000;stroke:#008000;stroke-linejoin:miter;" x="89.762727" xlink:href="#ma49baacc86" y="44.461207"/>
     <use style="fill:#008000;stroke:#008000;stroke-linejoin:miter;" x="93.871636" xlink:href="#ma49baacc86" y="44.461533"/>
     <use style="fill:#008000;stroke:#008000;stroke-linejoin:miter;" x="97.980545" xlink:href="#ma49baacc86" y="44.507784"/>
     <use style="fill:#008000;stroke:#008000;stroke-linejoin:miter;" x="102.119891" xlink:href="#ma49baacc86" y="44.520438"/>
     <use style="fill:#008000;stroke:#008000;stroke-linejoin:miter;" x="106.2288" xlink:href="#ma49baacc86" y="44.595359"/>
     <use style="fill:#008000;stroke:#008000;stroke-linejoin:miter;" x="110.337709" xlink:href="#ma49baacc86" y="44.723587"/>
     <use style="fill:#008000;stroke:#008000;stroke-linejoin:miter;" x="114.446618" xlink:href="#ma49baacc86" y="44.751364"/>
     <use style="fill:#008000;stroke:#008000;stroke-linejoin:miter;" x="118.555527" xlink:href="#ma49baacc86" y="44.982633"/>
     <use style="fill:#008000;stroke:#008000;stroke-linejoin:miter;" x="122.664436" xlink:href="#ma49baacc86" y="45.326184"/>
     <use style="fill:#008000;stroke:#008000;stroke-linejoin:miter;" x="126.773345" xlink:href="#ma49baacc86" y="45.541934"/>
     <use style="fill:#008000;stroke:#008000;stroke-linejoin:miter;" x="130.912691" xlink:href="#ma49baacc86" y="46.142432"/>
     <use style="fill:#008000;stroke:#008000;stroke-linejoin:miter;" x="135.0216" xlink:href="#ma49baacc86" y="46.912869"/>
     <use style="fill:#008000;stroke:#008000;stroke-linejoin:miter;" x="139.130509" xlink:href="#ma49baacc86" y="47.978281"/>
     <use style="fill:#008000;stroke:#008000;stroke-linejoin:miter;" x="143.239418" xlink:href="#ma49baacc86" y="49.739293"/>
     <use style="fill:#008000;stroke:#008000;stroke-linejoin:miter;" x="147.348327" xlink:href="#ma49baacc86" y="51.431615"/>
     <use style="fill:#008000;stroke:#008000;stroke-linejoin:miter;" x="151.457236" xlink:href="#ma49baacc86" y="53.46596"/>
     <use style="fill:#008000;stroke:#008000;stroke-linejoin:miter;" x="155.566145" xlink:href="#ma49baacc86" y="57.601844"/>
     <use style="fill:#008000;stroke:#008000;stroke-linejoin:miter;" x="159.675055" xlink:href="#ma49baacc86" y="61.640011"/>
     <use style="fill:#008000;stroke:#008000;stroke-linejoin:miter;" x="163.8144" xlink:href="#ma49baacc86" y="67.607641"/>
     <use style="fill:#008000;stroke:#008000;stroke-linejoin:miter;" x="167.923309" xlink:href="#ma49baacc86" y="75.318698"/>
     <use style="fill:#008000;stroke:#008000;stroke-linejoin:miter;" x="172.032218" xlink:href="#ma49baacc86" y="83.459325"/>
     <use style="fill:#008000;stroke:#008000;stroke-linejoin:miter;" x="176.141127" xlink:href="#ma49baacc86" y="92.315736"/>
     <use style="fill:#008000;stroke:#008000;stroke-linejoin:miter;" x="180.250036" xlink:href="#ma49baacc86" y="102.203304"/>
     <use style="fill:#008000;stroke:#008000;stroke-linejoin:miter;" x="184.358945" xlink:href="#ma49baacc86" y="112.220527"/>
     <use style="fill:#008000;stroke:#008000;stroke-linejoin:miter;" x="188.467855" xlink:href="#ma49baacc86" y="121.56829"/>
     <use style="fill:#008000;stroke:#008000;stroke-linejoin:miter;" x="192.6072" xlink:href="#ma49baacc86" y="130.52733"/>
     <use style="fill:#008000;stroke:#008000;stroke-linejoin:miter;" x="196.716109" xlink:href="#ma49baacc86" y="139.123006"/>
     <use style="fill:#008000;stroke:#008000;stroke-linejoin:miter;" x="200.825018" xlink:href="#ma49baacc86" y="146.795502"/>
     <use style="fill:#008000;stroke:#008000;stroke-linejoin:miter;" x="204.933927" xlink:href="#ma49baacc86" y="154.05159"/>
     <use style="fill:#008000;stroke:#008000;stroke-linejoin:miter;" x="209.042836" xlink:href="#ma49baacc86" y="160.734063"/>
     <use style="fill:#008000;stroke:#008000;stroke-linejoin:miter;" x="213.151745" xlink:href="#ma49baacc86" y="167.104392"/>
     <use style="fill:#008000;stroke:#008000;stroke-linejoin:miter;" x="217.260655" xlink:href="#ma49baacc86" y="172.624755"/>
     <use style="fill:#008000;stroke:#008000;stroke-linejoin:miter;" x="221.4" xlink:href="#ma49baacc86" y="177.991594"/>
     <use style="fill:#008000;stroke:#008000;stroke-linejoin:miter;" x="225.508909" xlink:href="#ma49baacc86" y="182.691618"/>
     <use style="fill:#008000;stroke:#008000;stroke-linejoin:miter;" x="229.617818" xlink:href="#ma49baacc86" y="187.130588"/>
     <use style="fill:#008000;stroke:#008000;stroke-linejoin:miter;" x="233.726727" xlink:href="#ma49baacc86" y="191.075717"/>
     <use style="fill:#008000;stroke:#008000;stroke-linejoin:miter;" x="237.835636" xlink:href="#ma49baacc86" y="194.954172"/>
     <use style="fill:#008000;stroke:#008000;stroke-linejoin:miter;" x="241.944545" xlink:href="#ma49baacc86" y="198.277487"/>
     <use style="fill:#008000;stroke:#008000;stroke-linejoin:miter;" x="246.053455" xlink:href="#ma49baacc86" y="201.353367"/>
     <use style="fill:#008000;stroke:#008000;stroke-linejoin:miter;" x="250.162364" xlink:href="#ma49baacc86" y="204.396173"/>
     <use style="fill:#008000;stroke:#008000;stroke-linejoin:miter;" x="254.301709" xlink:href="#ma49baacc86" y="206.993616"/>
     <use style="fill:#008000;stroke:#008000;stroke-linejoin:miter;" x="258.410618" xlink:href="#ma49baacc86" y="209.521564"/>
     <use style="fill:#008000;stroke:#008000;stroke-linejoin:miter;" x="262.519527" xlink:href="#ma49baacc86" y="212.10721"/>
     <use style="fill:#008000;stroke:#008000;stroke-linejoin:miter;" x="266.628436" xlink:href="#ma49baacc86" y="214.159357"/>
     <use style="fill:#008000;stroke:#008000;stroke-linejoin:miter;" x="270.737345" xlink:href="#ma49baacc86" y="216.266149"/>
     <use style="fill:#008000;stroke:#008000;stroke-linejoin:miter;" x="274.846255" xlink:href="#ma49baacc86" y="218.193555"/>
     <use style="fill:#008000;stroke:#008000;stroke-linejoin:miter;" x="278.955164" xlink:href="#ma49baacc86" y="219.790715"/>
     <use style="fill:#008000;stroke:#008000;stroke-linejoin:miter;" x="283.094509" xlink:href="#ma49baacc86" y="221.47986"/>
     <use style="fill:#008000;stroke:#008000;stroke-linejoin:miter;" x="287.203418" xlink:href="#ma49baacc86" y="223.187401"/>
     <use style="fill:#008000;stroke:#008000;stroke-linejoin:miter;" x="291.312327" xlink:href="#ma49baacc86" y="224.482306"/>
     <use style="fill:#008000;stroke:#008000;stroke-linejoin:miter;" x="295.421236" xlink:href="#ma49baacc86" y="225.997561"/>
     <use style="fill:#008000;stroke:#008000;stroke-linejoin:miter;" x="299.530145" xlink:href="#ma49baacc86" y="227.25499"/>
     <use style="fill:#008000;stroke:#008000;stroke-linejoin:miter;" x="303.639055" xlink:href="#ma49baacc86" y="228.325812"/>
     <use style="fill:#008000;stroke:#008000;stroke-linejoin:miter;" x="307.747964" xlink:href="#ma49baacc86" y="229.560518"/>
     <use style="fill:#008000;stroke:#008000;stroke-linejoin:miter;" x="311.856873" xlink:href="#ma49baacc86" y="230.713897"/>
     <use style="fill:#008000;stroke:#008000;stroke-linejoin:miter;" x="315.996218" xlink:href="#ma49baacc86" y="231.680277"/>
     <use style="fill:#008000;stroke:#008000;stroke-linejoin:miter;" x="320.105127" xlink:href="#ma49baacc86" y="232.762301"/>
     <use style="fill:#008000;stroke:#008000;stroke-linejoin:miter;" x="324.214036" xlink:href="#ma49baacc86" y="233.72184"/>
     <use style="fill:#008000;stroke:#008000;stroke-linejoin:miter;" x="328.322945" xlink:href="#ma49baacc86" y="234.656519"/>
     <use style="fill:#008000;stroke:#008000;stroke-linejoin:miter;" x="332.431855" xlink:href="#ma49baacc86" y="235.49131"/>
     <use style="fill:#008000;stroke:#008000;stroke-linejoin:miter;" x="336.540764" xlink:href="#ma49baacc86" y="236.19811"/>
     <use style="fill:#008000;stroke:#008000;stroke-linejoin:miter;" x="340.649673" xlink:href="#ma49baacc86" y="237.047684"/>
     <use style="fill:#008000;stroke:#008000;stroke-linejoin:miter;" x="344.789018" xlink:href="#ma49baacc86" y="237.759005"/>
     <use style="fill:#008000;stroke:#008000;stroke-linejoin:miter;" x="348.897927" xlink:href="#ma49baacc86" y="238.448874"/>
     <use style="fill:#008000;stroke:#008000;stroke-linejoin:miter;" x="353.006836" xlink:href="#ma49baacc86" y="239.162721"/>
     <use style="fill:#008000;stroke:#008000;stroke-linejoin:miter;" x="357.115745" xlink:href="#ma49baacc86" y="239.791548"/>
     <use style="fill:#008000;stroke:#008000;stroke-linejoin:miter;" x="361.224655" xlink:href="#ma49baacc86" y="240.436606"/>
     <use style="fill:#008000;stroke:#008000;stroke-linejoin:miter;" x="365.333564" xlink:href="#ma49baacc86" y="240.998338"/>
     <use style="fill:#008000;stroke:#008000;stroke-linejoin:miter;" x="369.442473" xlink:href="#ma49baacc86" y="241.579697"/>
     <use style="fill:#008000;stroke:#008000;stroke-linejoin:miter;" x="373.581818" xlink:href="#ma49baacc86" y="242.116364"/>
    </g>
   </g>
   <g id="line2d_16">
    <defs>
     <path d="M -3 3 
L 3 3 
L 3 -3 
L -3 -3 
z
" id="m080689cdd6" style="stroke:#000000;stroke-linejoin:miter;"/>
    </defs>
    <g clip-path="url(#pb936311464)">
     <use style="stroke:#000000;stroke-linejoin:miter;" x="69.218182" xlink:href="#m080689cdd6" y="242.116364"/>
     <use style="stroke:#000000;stroke-linejoin:miter;" x="73.327091" xlink:href="#m080689cdd6" y="44.443636"/>
     <use style="stroke:#000000;stroke-linejoin:miter;" x="77.436" xlink:href="#m080689cdd6" y="44.443636"/>
     <use style="stroke:#000000;stroke-linejoin:miter;" x="81.544909" xlink:href="#m080689cdd6" y="44.443636"/>
     <use style="stroke:#000000;stroke-linejoin:miter;" x="85.653818" xlink:href="#m080689cdd6" y="44.450958"/>
     <use style="stroke:#000000;stroke-linejoin:miter;" x="89.762727" xlink:href="#m080689cdd6" y="44.461207"/>
     <use style="stroke:#000000;stroke-linejoin:miter;" x="93.871636" xlink:href="#m080689cdd6" y="44.490818"/>
     <use style="stroke:#000000;stroke-linejoin:miter;" x="97.980545" xlink:href="#m080689cdd6" y="44.488261"/>
     <use style="stroke:#000000;stroke-linejoin:miter;" x="102.119891" xlink:href="#m080689cdd6" y="44.524095"/>
     <use style="stroke:#000000;stroke-linejoin:miter;" x="106.2288" xlink:href="#m080689cdd6" y="44.613782"/>
     <use style="stroke:#000000;stroke-linejoin:miter;" x="110.337709" xlink:href="#m080689cdd6" y="44.736268"/>
     <use style="stroke:#000000;stroke-linejoin:miter;" x="114.446618" xlink:href="#m080689cdd6" y="44.843593"/>
     <use style="stroke:#000000;stroke-linejoin:miter;" x="118.555527" xlink:href="#m080689cdd6" y="45.140348"/>
     <use style="stroke:#000000;stroke-linejoin:miter;" x="122.664436" xlink:href="#m080689cdd6" y="45.457516"/>
     <use style="stroke:#000000;stroke-linejoin:miter;" x="126.773345" xlink:href="#m080689cdd6" y="45.667374"/>
     <use style="stroke:#000000;stroke-linejoin:miter;" x="130.912691" xlink:href="#m080689cdd6" y="46.218498"/>
     <use style="stroke:#000000;stroke-linejoin:miter;" x="135.0216" xlink:href="#m080689cdd6" y="47.25421"/>
     <use style="stroke:#000000;stroke-linejoin:miter;" x="139.130509" xlink:href="#m080689cdd6" y="48.519292"/>
     <use style="stroke:#000000;stroke-linejoin:miter;" x="143.239418" xlink:href="#m080689cdd6" y="49.44506"/>
     <use style="stroke:#000000;stroke-linejoin:miter;" x="147.348327" xlink:href="#m080689cdd6" y="52.552299"/>
     <use style="stroke:#000000;stroke-linejoin:miter;" x="151.457236" xlink:href="#m080689cdd6" y="54.689161"/>
     <use style="stroke:#000000;stroke-linejoin:miter;" x="155.566145" xlink:href="#m080689cdd6" y="57.210261"/>
     <use style="stroke:#000000;stroke-linejoin:miter;" x="159.675055" xlink:href="#m080689cdd6" y="61.978334"/>
     <use style="stroke:#000000;stroke-linejoin:miter;" x="163.8144" xlink:href="#m080689cdd6" y="67.125967"/>
     <use style="stroke:#000000;stroke-linejoin:miter;" x="167.923309" xlink:href="#m080689cdd6" y="74.283705"/>
     <use style="stroke:#000000;stroke-linejoin:miter;" x="172.032218" xlink:href="#m080689cdd6" y="82.918622"/>
     <use style="stroke:#000000;stroke-linejoin:miter;" x="176.141127" xlink:href="#m080689cdd6" y="93.342081"/>
     <use style="stroke:#000000;stroke-linejoin:miter;" x="180.250036" xlink:href="#m080689cdd6" y="102.481823"/>
     <use style="stroke:#000000;stroke-linejoin:miter;" x="184.358945" xlink:href="#m080689cdd6" y="112.271386"/>
     <use style="stroke:#000000;stroke-linejoin:miter;" x="188.467855" xlink:href="#m080689cdd6" y="121.356726"/>
     <use style="stroke:#000000;stroke-linejoin:miter;" x="192.6072" xlink:href="#m080689cdd6" y="130.702865"/>
     <use style="stroke:#000000;stroke-linejoin:miter;" x="196.716109" xlink:href="#m080689cdd6" y="139.046246"/>
     <use style="stroke:#000000;stroke-linejoin:miter;" x="200.825018" xlink:href="#m080689cdd6" y="146.830246"/>
     <use style="stroke:#000000;stroke-linejoin:miter;" x="204.933927" xlink:href="#m080689cdd6" y="154.19611"/>
     <use style="stroke:#000000;stroke-linejoin:miter;" x="209.042836" xlink:href="#m080689cdd6" y="160.874623"/>
     <use style="stroke:#000000;stroke-linejoin:miter;" x="213.151745" xlink:href="#m080689cdd6" y="166.600561"/>
     <use style="stroke:#000000;stroke-linejoin:miter;" x="217.260655" xlink:href="#m080689cdd6" y="172.656183"/>
     <use style="stroke:#000000;stroke-linejoin:miter;" x="221.4" xlink:href="#m080689cdd6" y="177.694031"/>
     <use style="stroke:#000000;stroke-linejoin:miter;" x="225.508909" xlink:href="#m080689cdd6" y="182.548929"/>
     <use style="stroke:#000000;stroke-linejoin:miter;" x="229.617818" xlink:href="#m080689cdd6" y="186.925788"/>
     <use style="stroke:#000000;stroke-linejoin:miter;" x="233.726727" xlink:href="#m080689cdd6" y="191.097904"/>
     <use style="stroke:#000000;stroke-linejoin:miter;" x="237.835636" xlink:href="#m080689cdd6" y="194.749601"/>
     <use style="stroke:#000000;stroke-linejoin:miter;" x="241.944545" xlink:href="#m080689cdd6" y="198.238243"/>
     <use style="stroke:#000000;stroke-linejoin:miter;" x="246.053455" xlink:href="#m080689cdd6" y="201.340211"/>
     <use style="stroke:#000000;stroke-linejoin:miter;" x="250.162364" xlink:href="#m080689cdd6" y="204.384203"/>
     <use style="stroke:#000000;stroke-linejoin:miter;" x="254.301709" xlink:href="#m080689cdd6" y="207.196891"/>
     <use style="stroke:#000000;stroke-linejoin:miter;" x="258.410618" xlink:href="#m080689cdd6" y="209.533224"/>
     <use style="stroke:#000000;stroke-linejoin:miter;" x="262.519527" xlink:href="#m080689cdd6" y="211.966526"/>
     <use style="stroke:#000000;stroke-linejoin:miter;" x="266.628436" xlink:href="#m080689cdd6" y="214.09373"/>
     <use style="stroke:#000000;stroke-linejoin:miter;" x="270.737345" xlink:href="#m080689cdd6" y="216.273115"/>
     <use style="stroke:#000000;stroke-linejoin:miter;" x="274.846255" xlink:href="#m080689cdd6" y="218.194336"/>
     <use style="stroke:#000000;stroke-linejoin:miter;" x="278.955164" xlink:href="#m080689cdd6" y="219.949633"/>
     <use style="stroke:#000000;stroke-linejoin:miter;" x="283.094509" xlink:href="#m080689cdd6" y="221.488486"/>
     <use style="stroke:#000000;stroke-linejoin:miter;" x="287.203418" xlink:href="#m080689cdd6" y="223.031184"/>
     <use style="stroke:#000000;stroke-linejoin:miter;" x="291.312327" xlink:href="#m080689cdd6" y="224.642134"/>
     <use style="stroke:#000000;stroke-linejoin:miter;" x="295.421236" xlink:href="#m080689cdd6" y="225.879468"/>
     <use style="stroke:#000000;stroke-linejoin:miter;" x="299.530145" xlink:href="#m080689cdd6" y="227.174357"/>
     <use style="stroke:#000000;stroke-linejoin:miter;" x="303.639055" xlink:href="#m080689cdd6" y="228.517445"/>
     <use style="stroke:#000000;stroke-linejoin:miter;" x="307.747964" xlink:href="#m080689cdd6" y="229.660737"/>
     <use style="stroke:#000000;stroke-linejoin:miter;" x="311.856873" xlink:href="#m080689cdd6" y="230.745636"/>
     <use style="stroke:#000000;stroke-linejoin:miter;" x="315.996218" xlink:href="#m080689cdd6" y="231.883931"/>
     <use style="stroke:#000000;stroke-linejoin:miter;" x="320.105127" xlink:href="#m080689cdd6" y="232.757504"/>
     <use style="stroke:#000000;stroke-linejoin:miter;" x="324.214036" xlink:href="#m080689cdd6" y="233.753928"/>
     <use style="stroke:#000000;stroke-linejoin:miter;" x="328.322945" xlink:href="#m080689cdd6" y="234.614723"/>
     <use style="stroke:#000000;stroke-linejoin:miter;" x="332.431855" xlink:href="#m080689cdd6" y="235.471653"/>
     <use style="stroke:#000000;stroke-linejoin:miter;" x="336.540764" xlink:href="#m080689cdd6" y="236.244623"/>
     <use style="stroke:#000000;stroke-linejoin:miter;" x="340.649673" xlink:href="#m080689cdd6" y="237.015766"/>
     <use style="stroke:#000000;stroke-linejoin:miter;" x="344.789018" xlink:href="#m080689cdd6" y="237.764682"/>
     <use style="stroke:#000000;stroke-linejoin:miter;" x="348.897927" xlink:href="#m080689cdd6" y="238.48358"/>
     <use style="stroke:#000000;stroke-linejoin:miter;" x="353.006836" xlink:href="#m080689cdd6" y="239.172332"/>
     <use style="stroke:#000000;stroke-linejoin:miter;" x="357.115745" xlink:href="#m080689cdd6" y="239.767167"/>
     <use style="stroke:#000000;stroke-linejoin:miter;" x="361.224655" xlink:href="#m080689cdd6" y="240.391415"/>
     <use style="stroke:#000000;stroke-linejoin:miter;" x="365.333564" xlink:href="#m080689cdd6" y="240.992784"/>
     <use style="stroke:#000000;stroke-linejoin:miter;" x="369.442473" xlink:href="#m080689cdd6" y="241.579697"/>
     <use style="stroke:#000000;stroke-linejoin:miter;" x="373.581818" xlink:href="#m080689cdd6" y="242.116364"/>
    </g>
   </g>
   <g id="line2d_17">
    <defs>
     <path d="M -3 3 
L 3 -3 
M -3 -3 
L 3 3 
" id="me05c6fec0a" style="stroke:#bf00bf;"/>
    </defs>
    <g clip-path="url(#pb936311464)">
     <use style="fill:#bf00bf;stroke:#bf00bf;" x="69.218182" xlink:href="#me05c6fec0a" y="242.116364"/>
     <use style="fill:#bf00bf;stroke:#bf00bf;" x="73.327091" xlink:href="#me05c6fec0a" y="44.443636"/>
     <use style="fill:#bf00bf;stroke:#bf00bf;" x="77.436" xlink:href="#me05c6fec0a" y="44.443636"/>
     <use style="fill:#bf00bf;stroke:#bf00bf;" x="81.544909" xlink:href="#me05c6fec0a" y="44.44689"/>
     <use style="fill:#bf00bf;stroke:#bf00bf;" x="85.653818" xlink:href="#me05c6fec0a" y="44.450958"/>
     <use style="fill:#bf00bf;stroke:#bf00bf;" x="89.762727" xlink:href="#me05c6fec0a" y="44.451446"/>
     <use style="fill:#bf00bf;stroke:#bf00bf;" x="93.871636" xlink:href="#me05c6fec0a" y="44.487564"/>
     <use style="fill:#bf00bf;stroke:#bf00bf;" x="97.980545" xlink:href="#me05c6fec0a" y="44.49105"/>
     <use style="fill:#bf00bf;stroke:#bf00bf;" x="102.119891" xlink:href="#me05c6fec0a" y="44.533848"/>
     <use style="fill:#bf00bf;stroke:#bf00bf;" x="106.2288" xlink:href="#me05c6fec0a" y="44.61595"/>
     <use style="fill:#bf00bf;stroke:#bf00bf;" x="110.337709" xlink:href="#me05c6fec0a" y="44.725538"/>
     <use style="fill:#bf00bf;stroke:#bf00bf;" x="114.446618" xlink:href="#me05c6fec0a" y="44.981051"/>
     <use style="fill:#bf00bf;stroke:#bf00bf;" x="118.555527" xlink:href="#me05c6fec0a" y="45.126528"/>
     <use style="fill:#bf00bf;stroke:#bf00bf;" x="122.664436" xlink:href="#me05c6fec0a" y="45.321682"/>
     <use style="fill:#bf00bf;stroke:#bf00bf;" x="126.773345" xlink:href="#me05c6fec0a" y="45.819993"/>
     <use style="fill:#bf00bf;stroke:#bf00bf;" x="130.912691" xlink:href="#me05c6fec0a" y="46.32642"/>
     <use style="fill:#bf00bf;stroke:#bf00bf;" x="135.0216" xlink:href="#me05c6fec0a" y="47.20179"/>
     <use style="fill:#bf00bf;stroke:#bf00bf;" x="139.130509" xlink:href="#me05c6fec0a" y="48.120561"/>
     <use style="fill:#bf00bf;stroke:#bf00bf;" x="143.239418" xlink:href="#me05c6fec0a" y="49.19255"/>
     <use style="fill:#bf00bf;stroke:#bf00bf;" x="147.348327" xlink:href="#me05c6fec0a" y="51.592299"/>
     <use style="fill:#bf00bf;stroke:#bf00bf;" x="151.457236" xlink:href="#me05c6fec0a" y="53.3055"/>
     <use style="fill:#bf00bf;stroke:#bf00bf;" x="155.566145" xlink:href="#me05c6fec0a" y="57.468994"/>
     <use style="fill:#bf00bf;stroke:#bf00bf;" x="159.675055" xlink:href="#me05c6fec0a" y="62.012033"/>
     <use style="fill:#bf00bf;stroke:#bf00bf;" x="163.8144" xlink:href="#me05c6fec0a" y="66.458154"/>
     <use style="fill:#bf00bf;stroke:#bf00bf;" x="167.923309" xlink:href="#me05c6fec0a" y="74.543774"/>
     <use style="fill:#bf00bf;stroke:#bf00bf;" x="172.032218" xlink:href="#me05c6fec0a" y="83.525645"/>
     <use style="fill:#bf00bf;stroke:#bf00bf;" x="176.141127" xlink:href="#me05c6fec0a" y="94.411941"/>
     <use style="fill:#bf00bf;stroke:#bf00bf;" x="180.250036" xlink:href="#me05c6fec0a" y="102.871605"/>
     <use style="fill:#bf00bf;stroke:#bf00bf;" x="184.358945" xlink:href="#me05c6fec0a" y="112.164094"/>
     <use style="fill:#bf00bf;stroke:#bf00bf;" x="188.467855" xlink:href="#me05c6fec0a" y="121.991754"/>
     <use style="fill:#bf00bf;stroke:#bf00bf;" x="192.6072" xlink:href="#me05c6fec0a" y="130.615098"/>
     <use style="fill:#bf00bf;stroke:#bf00bf;" x="196.716109" xlink:href="#me05c6fec0a" y="139.049392"/>
     <use style="fill:#bf00bf;stroke:#bf00bf;" x="200.825018" xlink:href="#me05c6fec0a" y="146.656223"/>
     <use style="fill:#bf00bf;stroke:#bf00bf;" x="204.933927" xlink:href="#me05c6fec0a" y="153.931009"/>
     <use style="fill:#bf00bf;stroke:#bf00bf;" x="209.042836" xlink:href="#me05c6fec0a" y="160.727465"/>
     <use style="fill:#bf00bf;stroke:#bf00bf;" x="213.151745" xlink:href="#me05c6fec0a" y="166.995711"/>
     <use style="fill:#bf00bf;stroke:#bf00bf;" x="217.260655" xlink:href="#me05c6fec0a" y="172.677316"/>
     <use style="fill:#bf00bf;stroke:#bf00bf;" x="221.4" xlink:href="#me05c6fec0a" y="177.820015"/>
     <use style="fill:#bf00bf;stroke:#bf00bf;" x="225.508909" xlink:href="#me05c6fec0a" y="182.486567"/>
     <use style="fill:#bf00bf;stroke:#bf00bf;" x="229.617818" xlink:href="#me05c6fec0a" y="187.087077"/>
     <use style="fill:#bf00bf;stroke:#bf00bf;" x="233.726727" xlink:href="#me05c6fec0a" y="191.319776"/>
     <use style="fill:#bf00bf;stroke:#bf00bf;" x="237.835636" xlink:href="#me05c6fec0a" y="194.614489"/>
     <use style="fill:#bf00bf;stroke:#bf00bf;" x="241.944545" xlink:href="#me05c6fec0a" y="198.211538"/>
     <use style="fill:#bf00bf;stroke:#bf00bf;" x="246.053455" xlink:href="#me05c6fec0a" y="201.48288"/>
     <use style="fill:#bf00bf;stroke:#bf00bf;" x="250.162364" xlink:href="#me05c6fec0a" y="204.267162"/>
     <use style="fill:#bf00bf;stroke:#bf00bf;" x="254.301709" xlink:href="#me05c6fec0a" y="207.318465"/>
     <use style="fill:#bf00bf;stroke:#bf00bf;" x="258.410618" xlink:href="#me05c6fec0a" y="209.475983"/>
     <use style="fill:#bf00bf;stroke:#bf00bf;" x="262.519527" xlink:href="#me05c6fec0a" y="211.736619"/>
     <use style="fill:#bf00bf;stroke:#bf00bf;" x="266.628436" xlink:href="#me05c6fec0a" y="214.269683"/>
     <use style="fill:#bf00bf;stroke:#bf00bf;" x="270.737345" xlink:href="#me05c6fec0a" y="215.93336"/>
     <use style="fill:#bf00bf;stroke:#bf00bf;" x="274.846255" xlink:href="#me05c6fec0a" y="218.094465"/>
     <use style="fill:#bf00bf;stroke:#bf00bf;" x="278.955164" xlink:href="#me05c6fec0a" y="219.968374"/>
     <use style="fill:#bf00bf;stroke:#bf00bf;" x="283.094509" xlink:href="#me05c6fec0a" y="221.432788"/>
     <use style="fill:#bf00bf;stroke:#bf00bf;" x="287.203418" xlink:href="#me05c6fec0a" y="223.052528"/>
     <use style="fill:#bf00bf;stroke:#bf00bf;" x="291.312327" xlink:href="#me05c6fec0a" y="224.536485"/>
     <use style="fill:#bf00bf;stroke:#bf00bf;" x="295.421236" xlink:href="#me05c6fec0a" y="225.863864"/>
     <use style="fill:#bf00bf;stroke:#bf00bf;" x="299.530145" xlink:href="#me05c6fec0a" y="227.23235"/>
     <use style="fill:#bf00bf;stroke:#bf00bf;" x="303.639055" xlink:href="#me05c6fec0a" y="228.426419"/>
     <use style="fill:#bf00bf;stroke:#bf00bf;" x="307.747964" xlink:href="#me05c6fec0a" y="229.670154"/>
     <use style="fill:#bf00bf;stroke:#bf00bf;" x="311.856873" xlink:href="#me05c6fec0a" y="230.722493"/>
     <use style="fill:#bf00bf;stroke:#bf00bf;" x="315.996218" xlink:href="#me05c6fec0a" y="231.786086"/>
     <use style="fill:#bf00bf;stroke:#bf00bf;" x="320.105127" xlink:href="#me05c6fec0a" y="232.714979"/>
     <use style="fill:#bf00bf;stroke:#bf00bf;" x="324.214036" xlink:href="#me05c6fec0a" y="233.709413"/>
     <use style="fill:#bf00bf;stroke:#bf00bf;" x="328.322945" xlink:href="#me05c6fec0a" y="234.663021"/>
     <use style="fill:#bf00bf;stroke:#bf00bf;" x="332.431855" xlink:href="#me05c6fec0a" y="235.517825"/>
     <use style="fill:#bf00bf;stroke:#bf00bf;" x="336.540764" xlink:href="#me05c6fec0a" y="236.207563"/>
     <use style="fill:#bf00bf;stroke:#bf00bf;" x="340.649673" xlink:href="#me05c6fec0a" y="237.058324"/>
     <use style="fill:#bf00bf;stroke:#bf00bf;" x="344.789018" xlink:href="#me05c6fec0a" y="237.783458"/>
     <use style="fill:#bf00bf;stroke:#bf00bf;" x="348.897927" xlink:href="#me05c6fec0a" y="238.504518"/>
     <use style="fill:#bf00bf;stroke:#bf00bf;" x="353.006836" xlink:href="#me05c6fec0a" y="239.139259"/>
     <use style="fill:#bf00bf;stroke:#bf00bf;" x="357.115745" xlink:href="#me05c6fec0a" y="239.789319"/>
     <use style="fill:#bf00bf;stroke:#bf00bf;" x="361.224655" xlink:href="#me05c6fec0a" y="240.38125"/>
     <use style="fill:#bf00bf;stroke:#bf00bf;" x="365.333564" xlink:href="#me05c6fec0a" y="241.00186"/>
     <use style="fill:#bf00bf;stroke:#bf00bf;" x="369.442473" xlink:href="#me05c6fec0a" y="241.566338"/>
     <use style="fill:#bf00bf;stroke:#bf00bf;" x="373.581818" xlink:href="#me05c6fec0a" y="242.116364"/>
    </g>
   </g>
   <g id="patch_3">
    <path d="M 54 252 
L 54 34.56 
" style="fill:none;stroke:#000000;stroke-linecap:square;stroke-linejoin:miter;stroke-width:0.8;"/>
   </g>
   <g id="patch_4">
    <path d="M 388.8 252 
L 388.8 34.56 
" style="fill:none;stroke:#000000;stroke-linecap:square;stroke-linejoin:miter;stroke-width:0.8;"/>
   </g>
   <g id="patch_5">
    <path d="M 54 252 
L 388.8 252 
" style="fill:none;stroke:#000000;stroke-linecap:square;stroke-linejoin:miter;stroke-width:0.8;"/>
   </g>
   <g id="patch_6">
    <path d="M 54 34.56 
L 388.8 34.56 
" style="fill:none;stroke:#000000;stroke-linecap:square;stroke-linejoin:miter;stroke-width:0.8;"/>
   </g>
   <g id="legend_1">
    <g id="patch_7">
     <path d="M 267.46125 128.994375 
L 380.4 128.994375 
Q 382.8 128.994375 382.8 126.594375 
L 382.8 42.96 
Q 382.8 40.56 380.4 40.56 
L 267.46125 40.56 
Q 265.06125 40.56 265.06125 42.96 
L 265.06125 126.594375 
Q 265.06125 128.994375 267.46125 128.994375 
z
" style="fill:#ffffff;opacity:0.8;stroke:#cccccc;stroke-linejoin:miter;"/>
    </g>
    <g id="line2d_18"/>
    <g id="line2d_19">
     <g>
      <use style="fill:#0000ff;stroke:#0000ff;" x="281.86125" xlink:href="#m482b7a09c1" y="49.56"/>
     </g>
    </g>
    <g id="text_15">
     <!-- HDV rate = 1.0 -->
     <g transform="translate(303.46125 53.76)scale(0.12 -0.12)">
      <defs>
       <path d="M 20.5625 35.5 
L 51.3125 35.5 
L 51.3125 54.4375 
Q 51.3125 59.515625 50.6875 61.140625 
Q 50.203125 62.359375 48.640625 63.234375 
Q 46.53125 64.40625 44.1875 64.40625 
L 41.84375 64.40625 
L 41.84375 66.21875 
L 70.171875 66.21875 
L 70.171875 64.40625 
L 67.828125 64.40625 
Q 65.484375 64.40625 63.375 63.28125 
Q 61.8125 62.5 61.25 60.90625 
Q 60.6875 59.328125 60.6875 54.4375 
L 60.6875 11.71875 
Q 60.6875 6.6875 61.328125 5.078125 
Q 61.8125 3.859375 63.328125 2.984375 
Q 65.484375 1.8125 67.828125 1.8125 
L 70.171875 1.8125 
L 70.171875 0 
L 41.84375 0 
L 41.84375 1.8125 
L 44.1875 1.8125 
Q 48.25 1.8125 50.09375 4.203125 
Q 51.3125 5.765625 51.3125 11.71875 
L 51.3125 31.890625 
L 20.5625 31.890625 
L 20.5625 11.71875 
Q 20.5625 6.6875 21.1875 5.078125 
Q 21.6875 3.859375 23.25 2.984375 
Q 25.34375 1.8125 27.6875 1.8125 
L 30.078125 1.8125 
L 30.078125 0 
L 1.703125 0 
L 1.703125 1.8125 
L 4.046875 1.8125 
Q 8.15625 1.8125 10.015625 4.203125 
Q 11.1875 5.765625 11.1875 11.71875 
L 11.1875 54.4375 
Q 11.1875 59.515625 10.546875 61.140625 
Q 10.0625 62.359375 8.546875 63.234375 
Q 6.390625 64.40625 4.046875 64.40625 
L 1.703125 64.40625 
L 1.703125 66.21875 
L 30.078125 66.21875 
L 30.078125 64.40625 
L 27.6875 64.40625 
Q 25.34375 64.40625 23.25 63.28125 
Q 21.734375 62.5 21.140625 60.90625 
Q 20.5625 59.328125 20.5625 54.4375 
z
" id="TimesNewRomanPSMT-72"/>
       <path d="M 1.703125 0 
L 1.703125 1.8125 
L 4.203125 1.8125 
Q 8.40625 1.8125 10.15625 4.5 
Q 11.234375 6.109375 11.234375 11.71875 
L 11.234375 54.5 
Q 11.234375 60.6875 9.859375 62.25 
Q 7.953125 64.40625 4.203125 64.40625 
L 1.703125 64.40625 
L 1.703125 66.21875 
L 28.65625 66.21875 
Q 43.5 66.21875 51.234375 62.84375 
Q 58.984375 59.46875 63.6875 51.609375 
Q 68.40625 43.75 68.40625 33.453125 
Q 68.40625 19.625 60.015625 10.359375 
Q 50.59375 0 31.296875 0 
z
M 20.609375 4.78125 
Q 26.8125 3.421875 31 3.421875 
Q 42.328125 3.421875 49.796875 11.375 
Q 57.28125 19.34375 57.28125 32.953125 
Q 57.28125 46.6875 49.796875 54.59375 
Q 42.328125 62.5 30.609375 62.5 
Q 26.21875 62.5 20.609375 61.078125 
z
" id="TimesNewRomanPSMT-68"/>
       <path d="M 71 66.21875 
L 71 64.40625 
Q 67.484375 63.765625 65.671875 62.15625 
Q 63.09375 59.765625 61.078125 54.828125 
L 37.984375 -1.515625 
L 36.1875 -1.515625 
L 11.375 55.5625 
Q 9.46875 59.96875 8.6875 60.9375 
Q 7.46875 62.453125 5.6875 63.296875 
Q 3.90625 64.15625 0.875 64.40625 
L 0.875 66.21875 
L 27.9375 66.21875 
L 27.9375 64.40625 
Q 23.34375 63.96875 21.96875 62.84375 
Q 20.609375 61.71875 20.609375 59.96875 
Q 20.609375 57.515625 22.859375 52.34375 
L 39.703125 13.53125 
L 55.328125 51.859375 
Q 57.625 57.515625 57.625 59.71875 
Q 57.625 61.140625 56.203125 62.421875 
Q 54.78125 63.71875 51.421875 64.265625 
Q 51.171875 64.3125 50.59375 64.40625 
L 50.59375 66.21875 
z
" id="TimesNewRomanPSMT-86"/>
       <path d="M 1.8125 43.109375 
L 54.5 43.109375 
L 54.5 39.109375 
L 1.8125 39.109375 
z
M 1.8125 27.203125 
L 54.5 27.203125 
L 54.5 23.1875 
L 1.8125 23.1875 
z
" id="TimesNewRomanPSMT-61"/>
      </defs>
      <use xlink:href="#TimesNewRomanPSMT-72"/>
      <use x="72.216797" xlink:href="#TimesNewRomanPSMT-68"/>
      <use x="144.433594" xlink:href="#TimesNewRomanPSMT-86"/>
      <use x="214.900391" xlink:href="#TimesNewRomanPSMT-32"/>
      <use x="239.900391" xlink:href="#TimesNewRomanPSMT-114"/>
      <use x="273.201172" xlink:href="#TimesNewRomanPSMT-97"/>
      <use x="317.585938" xlink:href="#TimesNewRomanPSMT-116"/>
      <use x="345.369141" xlink:href="#TimesNewRomanPSMT-101"/>
      <use x="389.753906" xlink:href="#TimesNewRomanPSMT-32"/>
      <use x="414.753906" xlink:href="#TimesNewRomanPSMT-61"/>
      <use x="471.150391" xlink:href="#TimesNewRomanPSMT-32"/>
      <use x="496.150391" xlink:href="#TimesNewRomanPSMT-49"/>
      <use x="546.150391" xlink:href="#TimesNewRomanPSMT-46"/>
      <use x="571.150391" xlink:href="#TimesNewRomanPSMT-48"/>
     </g>
    </g>
    <g id="line2d_20"/>
    <g id="line2d_21">
     <g>
      <use style="fill:#ff0000;stroke:#ff0000;stroke-linejoin:miter;" x="281.86125" xlink:href="#m2db77cb62d" y="66.526875"/>
     </g>
    </g>
    <g id="text_16">
     <!-- HDV rate = 1.0 -->
     <g transform="translate(303.46125 70.726875)scale(0.12 -0.12)">
      <use xlink:href="#TimesNewRomanPSMT-72"/>
      <use x="72.216797" xlink:href="#TimesNewRomanPSMT-68"/>
      <use x="144.433594" xlink:href="#TimesNewRomanPSMT-86"/>
      <use x="214.900391" xlink:href="#TimesNewRomanPSMT-32"/>
      <use x="239.900391" xlink:href="#TimesNewRomanPSMT-114"/>
      <use x="273.201172" xlink:href="#TimesNewRomanPSMT-97"/>
      <use x="317.585938" xlink:href="#TimesNewRomanPSMT-116"/>
      <use x="345.369141" xlink:href="#TimesNewRomanPSMT-101"/>
      <use x="389.753906" xlink:href="#TimesNewRomanPSMT-32"/>
      <use x="414.753906" xlink:href="#TimesNewRomanPSMT-61"/>
      <use x="471.150391" xlink:href="#TimesNewRomanPSMT-32"/>
      <use x="496.150391" xlink:href="#TimesNewRomanPSMT-49"/>
      <use x="546.150391" xlink:href="#TimesNewRomanPSMT-46"/>
      <use x="571.150391" xlink:href="#TimesNewRomanPSMT-48"/>
     </g>
    </g>
    <g id="line2d_22"/>
    <g id="line2d_23">
     <g>
      <use style="fill:#008000;stroke:#008000;stroke-linejoin:miter;" x="281.86125" xlink:href="#ma49baacc86" y="83.49375"/>
     </g>
    </g>
    <g id="text_17">
     <!-- HDV rate = 1.0 -->
     <g transform="translate(303.46125 87.69375)scale(0.12 -0.12)">
      <use xlink:href="#TimesNewRomanPSMT-72"/>
      <use x="72.216797" xlink:href="#TimesNewRomanPSMT-68"/>
      <use x="144.433594" xlink:href="#TimesNewRomanPSMT-86"/>
      <use x="214.900391" xlink:href="#TimesNewRomanPSMT-32"/>
      <use x="239.900391" xlink:href="#TimesNewRomanPSMT-114"/>
      <use x="273.201172" xlink:href="#TimesNewRomanPSMT-97"/>
      <use x="317.585938" xlink:href="#TimesNewRomanPSMT-116"/>
      <use x="345.369141" xlink:href="#TimesNewRomanPSMT-101"/>
      <use x="389.753906" xlink:href="#TimesNewRomanPSMT-32"/>
      <use x="414.753906" xlink:href="#TimesNewRomanPSMT-61"/>
      <use x="471.150391" xlink:href="#TimesNewRomanPSMT-32"/>
      <use x="496.150391" xlink:href="#TimesNewRomanPSMT-49"/>
      <use x="546.150391" xlink:href="#TimesNewRomanPSMT-46"/>
      <use x="571.150391" xlink:href="#TimesNewRomanPSMT-48"/>
     </g>
    </g>
    <g id="line2d_24"/>
    <g id="line2d_25">
     <g>
      <use style="stroke:#000000;stroke-linejoin:miter;" x="281.86125" xlink:href="#m080689cdd6" y="100.460625"/>
     </g>
    </g>
    <g id="text_18">
     <!-- HDV rate = 1.0 -->
     <g transform="translate(303.46125 104.660625)scale(0.12 -0.12)">
      <use xlink:href="#TimesNewRomanPSMT-72"/>
      <use x="72.216797" xlink:href="#TimesNewRomanPSMT-68"/>
      <use x="144.433594" xlink:href="#TimesNewRomanPSMT-86"/>
      <use x="214.900391" xlink:href="#TimesNewRomanPSMT-32"/>
      <use x="239.900391" xlink:href="#TimesNewRomanPSMT-114"/>
      <use x="273.201172" xlink:href="#TimesNewRomanPSMT-97"/>
      <use x="317.585938" xlink:href="#TimesNewRomanPSMT-116"/>
      <use x="345.369141" xlink:href="#TimesNewRomanPSMT-101"/>
      <use x="389.753906" xlink:href="#TimesNewRomanPSMT-32"/>
      <use x="414.753906" xlink:href="#TimesNewRomanPSMT-61"/>
      <use x="471.150391" xlink:href="#TimesNewRomanPSMT-32"/>
      <use x="496.150391" xlink:href="#TimesNewRomanPSMT-49"/>
      <use x="546.150391" xlink:href="#TimesNewRomanPSMT-46"/>
      <use x="571.150391" xlink:href="#TimesNewRomanPSMT-48"/>
     </g>
    </g>
    <g id="line2d_26"/>
    <g id="line2d_27">
     <g>
      <use style="fill:#bf00bf;stroke:#bf00bf;" x="281.86125" xlink:href="#me05c6fec0a" y="117.4275"/>
     </g>
    </g>
    <g id="text_19">
     <!-- HDV rate = 1.0 -->
     <g transform="translate(303.46125 121.6275)scale(0.12 -0.12)">
      <use xlink:href="#TimesNewRomanPSMT-72"/>
      <use x="72.216797" xlink:href="#TimesNewRomanPSMT-68"/>
      <use x="144.433594" xlink:href="#TimesNewRomanPSMT-86"/>
      <use x="214.900391" xlink:href="#TimesNewRomanPSMT-32"/>
      <use x="239.900391" xlink:href="#TimesNewRomanPSMT-114"/>
      <use x="273.201172" xlink:href="#TimesNewRomanPSMT-97"/>
      <use x="317.585938" xlink:href="#TimesNewRomanPSMT-116"/>
      <use x="345.369141" xlink:href="#TimesNewRomanPSMT-101"/>
      <use x="389.753906" xlink:href="#TimesNewRomanPSMT-32"/>
      <use x="414.753906" xlink:href="#TimesNewRomanPSMT-61"/>
      <use x="471.150391" xlink:href="#TimesNewRomanPSMT-32"/>
      <use x="496.150391" xlink:href="#TimesNewRomanPSMT-49"/>
      <use x="546.150391" xlink:href="#TimesNewRomanPSMT-46"/>
      <use x="571.150391" xlink:href="#TimesNewRomanPSMT-48"/>
     </g>
    </g>
   </g>
  </g>
 </g>
 <defs>
  <clipPath id="pb936311464">
   <rect height="217.44" width="334.8" x="54" y="34.56"/>
  </clipPath>
 </defs>
</svg>
