<?xml version="1.0" encoding="utf-8" standalone="no"?>
<!DOCTYPE svg PUBLIC "-//W3C//DTD SVG 1.1//EN"
  "http://www.w3.org/Graphics/SVG/1.1/DTD/svg11.dtd">
<!-- Created with matplotlib (https://matplotlib.org/) -->
<svg height="288pt" version="1.1" viewBox="0 0 432 288" width="432pt" xmlns="http://www.w3.org/2000/svg" xmlns:xlink="http://www.w3.org/1999/xlink">
 <metadata>
  <rdf:RDF xmlns:cc="http://creativecommons.org/ns#" xmlns:dc="http://purl.org/dc/elements/1.1/" xmlns:rdf="http://www.w3.org/1999/02/22-rdf-syntax-ns#">
   <cc:Work>
    <dc:type rdf:resource="http://purl.org/dc/dcmitype/StillImage"/>
    <dc:date>2021-12-08T17:17:37.779781</dc:date>
    <dc:format>image/svg+xml</dc:format>
    <dc:creator>
     <cc:Agent>
      <dc:title>Matplotlib v3.3.4, https://matplotlib.org/</dc:title>
     </cc:Agent>
    </dc:creator>
   </cc:Work>
  </rdf:RDF>
 </metadata>
 <defs>
  <style type="text/css">*{stroke-linecap:butt;stroke-linejoin:round;}</style>
 </defs>
 <g id="figure_1">
  <g id="patch_1">
   <path d="M 0 288 
L 432 288 
L 432 0 
L 0 0 
z
" style="fill:none;"/>
  </g>
  <g id="axes_1">
   <g id="patch_2">
    <path d="M 54 252 
L 388.8 252 
L 388.8 34.56 
L 54 34.56 
z
" style="fill:#ffffff;"/>
   </g>
   <g id="matplotlib.axis_1">
    <g id="xtick_1">
     <g id="line2d_1">
      <defs>
       <path d="M 0 0 
L 0 3.5 
" id="m8aa2723094" style="stroke:#000000;stroke-width:0.8;"/>
      </defs>
      <g>
       <use style="stroke:#000000;stroke-width:0.8;" x="65.053043" xlink:href="#m8aa2723094" y="252"/>
      </g>
     </g>
     <g id="text_1">
      <!-- 0.0 -->
      <g transform="translate(57.553043 267.3325)scale(0.12 -0.12)">
       <defs>
        <path d="M 3.609375 32.71875 
Q 3.609375 44.046875 7.03125 52.21875 
Q 10.453125 60.40625 16.109375 64.40625 
Q 20.515625 67.578125 25.203125 67.578125 
Q 32.8125 67.578125 38.875 59.8125 
Q 46.4375 50.203125 46.4375 33.734375 
Q 46.4375 22.21875 43.109375 14.15625 
Q 39.796875 6.109375 34.640625 2.46875 
Q 29.5 -1.171875 24.703125 -1.171875 
Q 15.234375 -1.171875 8.9375 10.015625 
Q 3.609375 19.4375 3.609375 32.71875 
z
M 13.1875 31.5 
Q 13.1875 17.828125 16.546875 9.1875 
Q 19.34375 1.90625 24.859375 1.90625 
Q 27.484375 1.90625 30.3125 4.265625 
Q 33.15625 6.640625 34.625 12.203125 
Q 36.859375 20.609375 36.859375 35.890625 
Q 36.859375 47.21875 34.515625 54.78125 
Q 32.765625 60.40625 29.984375 62.75 
Q 27.984375 64.359375 25.140625 64.359375 
Q 21.828125 64.359375 19.234375 61.375 
Q 15.71875 57.328125 14.453125 48.625 
Q 13.1875 39.9375 13.1875 31.5 
z
" id="TimesNewRomanPSMT-48"/>
        <path d="M 12.5 9.46875 
Q 14.796875 9.46875 16.359375 7.875 
Q 17.921875 6.296875 17.921875 4.046875 
Q 17.921875 1.8125 16.328125 0.21875 
Q 14.75 -1.375 12.5 -1.375 
Q 10.25 -1.375 8.65625 0.21875 
Q 7.078125 1.8125 7.078125 4.046875 
Q 7.078125 6.34375 8.65625 7.90625 
Q 10.25 9.46875 12.5 9.46875 
z
" id="TimesNewRomanPSMT-46"/>
       </defs>
       <use xlink:href="#TimesNewRomanPSMT-48"/>
       <use x="50" xlink:href="#TimesNewRomanPSMT-46"/>
       <use x="75" xlink:href="#TimesNewRomanPSMT-48"/>
      </g>
     </g>
    </g>
    <g id="xtick_2">
     <g id="line2d_2">
      <g>
       <use style="stroke:#000000;stroke-width:0.8;" x="126.758798" xlink:href="#m8aa2723094" y="252"/>
      </g>
     </g>
     <g id="text_2">
      <!-- 0.2 -->
      <g transform="translate(119.258798 267.3325)scale(0.12 -0.12)">
       <defs>
        <path d="M 45.84375 12.75 
L 41.21875 0 
L 2.15625 0 
L 2.15625 1.8125 
Q 19.390625 17.53125 26.421875 27.484375 
Q 33.453125 37.453125 33.453125 45.703125 
Q 33.453125 52 29.59375 56.046875 
Q 25.734375 60.109375 20.359375 60.109375 
Q 15.484375 60.109375 11.59375 57.25 
Q 7.71875 54.390625 5.859375 48.875 
L 4.046875 48.875 
Q 5.28125 57.90625 10.328125 62.734375 
Q 15.375 67.578125 22.953125 67.578125 
Q 31 67.578125 36.390625 62.40625 
Q 41.796875 57.234375 41.796875 50.203125 
Q 41.796875 45.171875 39.453125 40.140625 
Q 35.84375 32.234375 27.734375 23.390625 
Q 15.578125 10.109375 12.546875 7.375 
L 29.828125 7.375 
Q 35.109375 7.375 37.234375 7.765625 
Q 39.359375 8.15625 41.0625 9.34375 
Q 42.78125 10.546875 44.046875 12.75 
z
" id="TimesNewRomanPSMT-50"/>
       </defs>
       <use xlink:href="#TimesNewRomanPSMT-48"/>
       <use x="50" xlink:href="#TimesNewRomanPSMT-46"/>
       <use x="75" xlink:href="#TimesNewRomanPSMT-50"/>
      </g>
     </g>
    </g>
    <g id="xtick_3">
     <g id="line2d_3">
      <g>
       <use style="stroke:#000000;stroke-width:0.8;" x="188.464553" xlink:href="#m8aa2723094" y="252"/>
      </g>
     </g>
     <g id="text_3">
      <!-- 0.4 -->
      <g transform="translate(180.964553 267.3325)scale(0.12 -0.12)">
       <defs>
        <path d="M 46.53125 24.421875 
L 46.53125 17.484375 
L 37.640625 17.484375 
L 37.640625 0 
L 29.59375 0 
L 29.59375 17.484375 
L 1.5625 17.484375 
L 1.5625 23.734375 
L 32.28125 67.578125 
L 37.640625 67.578125 
L 37.640625 24.421875 
z
M 29.59375 24.421875 
L 29.59375 57.28125 
L 6.34375 24.421875 
z
" id="TimesNewRomanPSMT-52"/>
       </defs>
       <use xlink:href="#TimesNewRomanPSMT-48"/>
       <use x="50" xlink:href="#TimesNewRomanPSMT-46"/>
       <use x="75" xlink:href="#TimesNewRomanPSMT-52"/>
      </g>
     </g>
    </g>
    <g id="xtick_4">
     <g id="line2d_4">
      <g>
       <use style="stroke:#000000;stroke-width:0.8;" x="250.170308" xlink:href="#m8aa2723094" y="252"/>
      </g>
     </g>
     <g id="text_4">
      <!-- 0.6 -->
      <g transform="translate(242.670308 267.3325)scale(0.12 -0.12)">
       <defs>
        <path d="M 44.828125 67.578125 
L 44.828125 65.765625 
Q 38.375 65.140625 34.296875 63.203125 
Q 30.21875 61.28125 26.234375 57.328125 
Q 22.265625 53.375 19.65625 48.515625 
Q 17.046875 43.65625 15.28125 36.96875 
Q 22.3125 41.796875 29.390625 41.796875 
Q 36.1875 41.796875 41.15625 36.328125 
Q 46.140625 30.859375 46.140625 22.265625 
Q 46.140625 13.96875 41.109375 7.125 
Q 35.0625 -1.171875 25.09375 -1.171875 
Q 18.3125 -1.171875 13.578125 3.328125 
Q 4.296875 12.0625 4.296875 25.984375 
Q 4.296875 34.859375 7.859375 42.859375 
Q 11.421875 50.875 18.03125 57.078125 
Q 24.65625 63.28125 30.703125 65.421875 
Q 36.765625 67.578125 42 67.578125 
z
M 14.453125 33.40625 
Q 13.578125 26.8125 13.578125 22.75 
Q 13.578125 18.0625 15.3125 12.5625 
Q 17.046875 7.078125 20.453125 3.859375 
Q 22.953125 1.5625 26.515625 1.5625 
Q 30.765625 1.5625 34.109375 5.5625 
Q 37.453125 9.578125 37.453125 17 
Q 37.453125 25.34375 34.125 31.4375 
Q 30.8125 37.546875 24.703125 37.546875 
Q 22.859375 37.546875 20.734375 36.765625 
Q 18.609375 35.984375 14.453125 33.40625 
z
" id="TimesNewRomanPSMT-54"/>
       </defs>
       <use xlink:href="#TimesNewRomanPSMT-48"/>
       <use x="50" xlink:href="#TimesNewRomanPSMT-46"/>
       <use x="75" xlink:href="#TimesNewRomanPSMT-54"/>
      </g>
     </g>
    </g>
    <g id="xtick_5">
     <g id="line2d_5">
      <g>
       <use style="stroke:#000000;stroke-width:0.8;" x="311.876063" xlink:href="#m8aa2723094" y="252"/>
      </g>
     </g>
     <g id="text_5">
      <!-- 0.8 -->
      <g transform="translate(304.376063 267.3325)scale(0.12 -0.12)">
       <defs>
        <path d="M 19.1875 33.34375 
Q 11.328125 39.796875 9.046875 43.703125 
Q 6.78125 47.609375 6.78125 51.8125 
Q 6.78125 58.25 11.765625 62.90625 
Q 16.75 67.578125 25 67.578125 
Q 33.015625 67.578125 37.890625 63.234375 
Q 42.78125 58.890625 42.78125 53.328125 
Q 42.78125 49.609375 40.140625 45.75 
Q 37.5 41.890625 29.15625 36.671875 
Q 37.75 30.03125 40.53125 26.21875 
Q 44.234375 21.234375 44.234375 15.71875 
Q 44.234375 8.734375 38.90625 3.78125 
Q 33.59375 -1.171875 24.953125 -1.171875 
Q 15.53125 -1.171875 10.25 4.734375 
Q 6.0625 9.46875 6.0625 15.09375 
Q 6.0625 19.484375 9.015625 23.796875 
Q 11.96875 28.125 19.1875 33.34375 
z
M 26.859375 38.578125 
Q 32.71875 43.84375 34.28125 46.890625 
Q 35.84375 49.953125 35.84375 53.8125 
Q 35.84375 58.9375 32.953125 61.84375 
Q 30.078125 64.75 25.09375 64.75 
Q 20.125 64.75 17 61.859375 
Q 13.875 58.984375 13.875 55.125 
Q 13.875 52.59375 15.15625 50.046875 
Q 16.453125 47.515625 18.84375 45.21875 
z
M 21.484375 31.5 
Q 17.4375 28.078125 15.484375 24.046875 
Q 13.53125 20.015625 13.53125 15.328125 
Q 13.53125 9.03125 16.96875 5.25 
Q 20.40625 1.46875 25.734375 1.46875 
Q 31 1.46875 34.171875 4.4375 
Q 37.359375 7.421875 37.359375 11.671875 
Q 37.359375 15.1875 35.5 17.96875 
Q 32.03125 23.140625 21.484375 31.5 
z
" id="TimesNewRomanPSMT-56"/>
       </defs>
       <use xlink:href="#TimesNewRomanPSMT-48"/>
       <use x="50" xlink:href="#TimesNewRomanPSMT-46"/>
       <use x="75" xlink:href="#TimesNewRomanPSMT-56"/>
      </g>
     </g>
    </g>
    <g id="xtick_6">
     <g id="line2d_6">
      <g>
       <use style="stroke:#000000;stroke-width:0.8;" x="373.581818" xlink:href="#m8aa2723094" y="252"/>
      </g>
     </g>
     <g id="text_6">
      <!-- 1.0 -->
      <g transform="translate(366.081818 267.3325)scale(0.12 -0.12)">
       <defs>
        <path d="M 11.71875 59.71875 
L 27.828125 67.578125 
L 29.4375 67.578125 
L 29.4375 11.671875 
Q 29.4375 6.109375 29.90625 4.734375 
Q 30.375 3.375 31.828125 2.640625 
Q 33.296875 1.90625 37.796875 1.8125 
L 37.796875 0 
L 12.890625 0 
L 12.890625 1.8125 
Q 17.578125 1.90625 18.9375 2.609375 
Q 20.3125 3.328125 20.84375 4.515625 
Q 21.390625 5.71875 21.390625 11.671875 
L 21.390625 47.40625 
Q 21.390625 54.640625 20.90625 56.6875 
Q 20.5625 58.25 19.65625 58.984375 
Q 18.75 59.71875 17.484375 59.71875 
Q 15.671875 59.71875 12.453125 58.203125 
z
" id="TimesNewRomanPSMT-49"/>
       </defs>
       <use xlink:href="#TimesNewRomanPSMT-49"/>
       <use x="50" xlink:href="#TimesNewRomanPSMT-46"/>
       <use x="75" xlink:href="#TimesNewRomanPSMT-48"/>
      </g>
     </g>
    </g>
    <g id="text_7">
     <!-- Normalized density -->
     <g transform="translate(174.245625 282.231875)scale(0.12 -0.12)">
      <defs>
       <path d="M -1.3125 66.21875 
L 16.65625 66.21875 
L 57.125 16.546875 
L 57.125 54.734375 
Q 57.125 60.84375 55.765625 62.359375 
Q 53.953125 64.40625 50.046875 64.40625 
L 47.75 64.40625 
L 47.75 66.21875 
L 70.796875 66.21875 
L 70.796875 64.40625 
L 68.453125 64.40625 
Q 64.265625 64.40625 62.5 61.859375 
Q 61.421875 60.296875 61.421875 54.734375 
L 61.421875 -1.078125 
L 59.671875 -1.078125 
L 16.015625 52.25 
L 16.015625 11.46875 
Q 16.015625 5.375 17.328125 3.859375 
Q 19.1875 1.8125 23.046875 1.8125 
L 25.390625 1.8125 
L 25.390625 0 
L 2.34375 0 
L 2.34375 1.8125 
L 4.640625 1.8125 
Q 8.890625 1.8125 10.640625 4.34375 
Q 11.71875 5.90625 11.71875 11.46875 
L 11.71875 57.515625 
Q 8.84375 60.890625 7.34375 61.953125 
Q 5.859375 63.03125 2.984375 63.96875 
Q 1.5625 64.40625 -1.3125 64.40625 
z
" id="TimesNewRomanPSMT-78"/>
       <path d="M 25 46.046875 
Q 35.15625 46.046875 41.3125 38.328125 
Q 46.53125 31.734375 46.53125 23.1875 
Q 46.53125 17.1875 43.640625 11.03125 
Q 40.765625 4.890625 35.71875 1.75 
Q 30.671875 -1.375 24.46875 -1.375 
Q 14.359375 -1.375 8.40625 6.6875 
Q 3.375 13.484375 3.375 21.921875 
Q 3.375 28.078125 6.421875 34.15625 
Q 9.46875 40.234375 14.453125 43.140625 
Q 19.4375 46.046875 25 46.046875 
z
M 23.484375 42.875 
Q 20.90625 42.875 18.28125 41.328125 
Q 15.671875 39.796875 14.0625 35.9375 
Q 12.453125 32.078125 12.453125 26.03125 
Q 12.453125 16.265625 16.328125 9.171875 
Q 20.21875 2.09375 26.5625 2.09375 
Q 31.296875 2.09375 34.375 6 
Q 37.453125 9.90625 37.453125 19.4375 
Q 37.453125 31.34375 32.328125 38.1875 
Q 28.859375 42.875 23.484375 42.875 
z
" id="TimesNewRomanPSMT-111"/>
       <path d="M 16.21875 46.046875 
L 16.21875 35.984375 
Q 21.828125 46.046875 27.734375 46.046875 
Q 30.421875 46.046875 32.171875 44.40625 
Q 33.9375 42.78125 33.9375 40.625 
Q 33.9375 38.71875 32.65625 37.390625 
Q 31.390625 36.078125 29.640625 36.078125 
Q 27.9375 36.078125 25.8125 37.765625 
Q 23.6875 39.453125 22.65625 39.453125 
Q 21.78125 39.453125 20.75 38.484375 
Q 18.5625 36.46875 16.21875 31.890625 
L 16.21875 10.453125 
Q 16.21875 6.734375 17.140625 4.828125 
Q 17.78125 3.515625 19.390625 2.640625 
Q 21 1.765625 24.03125 1.765625 
L 24.03125 0 
L 1.125 0 
L 1.125 1.765625 
Q 4.546875 1.765625 6.203125 2.828125 
Q 7.421875 3.609375 7.90625 5.328125 
Q 8.15625 6.15625 8.15625 10.0625 
L 8.15625 27.390625 
Q 8.15625 35.203125 7.828125 36.6875 
Q 7.515625 38.1875 6.65625 38.859375 
Q 5.8125 39.546875 4.546875 39.546875 
Q 3.03125 39.546875 1.125 38.8125 
L 0.640625 40.578125 
L 14.15625 46.046875 
z
" id="TimesNewRomanPSMT-114"/>
       <path d="M 16.40625 36.53125 
Q 21.296875 41.40625 22.171875 42.140625 
Q 24.359375 44 26.890625 45.015625 
Q 29.4375 46.046875 31.9375 46.046875 
Q 36.140625 46.046875 39.15625 43.59375 
Q 42.1875 41.15625 43.21875 36.53125 
Q 48.25 42.390625 51.703125 44.21875 
Q 55.171875 46.046875 58.84375 46.046875 
Q 62.40625 46.046875 65.15625 44.21875 
Q 67.921875 42.390625 69.53125 38.234375 
Q 70.609375 35.40625 70.609375 29.34375 
L 70.609375 10.109375 
Q 70.609375 5.90625 71.234375 4.34375 
Q 71.734375 3.265625 73.046875 2.515625 
Q 74.359375 1.765625 77.34375 1.765625 
L 77.34375 0 
L 55.28125 0 
L 55.28125 1.765625 
L 56.203125 1.765625 
Q 59.078125 1.765625 60.6875 2.875 
Q 61.8125 3.65625 62.3125 5.375 
Q 62.5 6.203125 62.5 10.109375 
L 62.5 29.34375 
Q 62.5 34.8125 61.1875 37.0625 
Q 59.28125 40.1875 55.078125 40.1875 
Q 52.484375 40.1875 49.875 38.890625 
Q 47.265625 37.59375 43.5625 34.078125 
L 43.453125 33.546875 
L 43.5625 31.453125 
L 43.5625 10.109375 
Q 43.5625 5.515625 44.0625 4.390625 
Q 44.578125 3.265625 45.984375 2.515625 
Q 47.40625 1.765625 50.828125 1.765625 
L 50.828125 0 
L 28.21875 0 
L 28.21875 1.765625 
Q 31.9375 1.765625 33.328125 2.640625 
Q 34.71875 3.515625 35.25 5.28125 
Q 35.5 6.109375 35.5 10.109375 
L 35.5 29.34375 
Q 35.5 34.8125 33.890625 37.203125 
Q 31.734375 40.328125 27.875 40.328125 
Q 25.25 40.328125 22.65625 38.921875 
Q 18.609375 36.765625 16.40625 34.078125 
L 16.40625 10.109375 
Q 16.40625 5.71875 17.015625 4.390625 
Q 17.625 3.078125 18.8125 2.421875 
Q 20.015625 1.765625 23.6875 1.765625 
L 23.6875 0 
L 1.5625 0 
L 1.5625 1.765625 
Q 4.640625 1.765625 5.859375 2.421875 
Q 7.078125 3.078125 7.703125 4.515625 
Q 8.34375 5.953125 8.34375 10.109375 
L 8.34375 27.203125 
Q 8.34375 34.578125 7.90625 36.71875 
Q 7.5625 38.328125 6.828125 38.9375 
Q 6.109375 39.546875 4.828125 39.546875 
Q 3.46875 39.546875 1.5625 38.8125 
L 0.828125 40.578125 
L 14.3125 46.046875 
L 16.40625 46.046875 
z
" id="TimesNewRomanPSMT-109"/>
       <path d="M 28.46875 6.453125 
Q 21.578125 1.125 19.828125 0.296875 
Q 17.1875 -0.921875 14.203125 -0.921875 
Q 9.578125 -0.921875 6.5625 2.25 
Q 3.5625 5.421875 3.5625 10.59375 
Q 3.5625 13.875 5.03125 16.265625 
Q 7.03125 19.578125 11.984375 22.5 
Q 16.9375 25.4375 28.46875 29.640625 
L 28.46875 31.390625 
Q 28.46875 38.09375 26.34375 40.578125 
Q 24.21875 43.0625 20.171875 43.0625 
Q 17.09375 43.0625 15.28125 41.40625 
Q 13.421875 39.75 13.421875 37.59375 
L 13.53125 34.765625 
Q 13.53125 32.515625 12.375 31.296875 
Q 11.234375 30.078125 9.375 30.078125 
Q 7.5625 30.078125 6.421875 31.34375 
Q 5.28125 32.625 5.28125 34.8125 
Q 5.28125 39.015625 9.578125 42.53125 
Q 13.875 46.046875 21.625 46.046875 
Q 27.59375 46.046875 31.390625 44.046875 
Q 34.28125 42.53125 35.640625 39.3125 
Q 36.53125 37.203125 36.53125 30.71875 
L 36.53125 15.53125 
Q 36.53125 9.125 36.765625 7.6875 
Q 37.015625 6.25 37.578125 5.765625 
Q 38.140625 5.28125 38.875 5.28125 
Q 39.65625 5.28125 40.234375 5.609375 
Q 41.265625 6.25 44.1875 9.1875 
L 44.1875 6.453125 
Q 38.71875 -0.875 33.734375 -0.875 
Q 31.34375 -0.875 29.921875 0.78125 
Q 28.515625 2.4375 28.46875 6.453125 
z
M 28.46875 9.625 
L 28.46875 26.65625 
Q 21.09375 23.734375 18.953125 22.515625 
Q 15.09375 20.359375 13.421875 18.015625 
Q 11.765625 15.671875 11.765625 12.890625 
Q 11.765625 9.375 13.859375 7.046875 
Q 15.96875 4.734375 18.703125 4.734375 
Q 22.40625 4.734375 28.46875 9.625 
z
" id="TimesNewRomanPSMT-97"/>
       <path d="M 18.5 69.4375 
L 18.5 10.109375 
Q 18.5 5.90625 19.109375 4.53125 
Q 19.734375 3.171875 21 2.46875 
Q 22.265625 1.765625 25.734375 1.765625 
L 25.734375 0 
L 3.8125 0 
L 3.8125 1.765625 
Q 6.890625 1.765625 8 2.390625 
Q 9.125 3.03125 9.765625 4.484375 
Q 10.40625 5.953125 10.40625 10.109375 
L 10.40625 50.734375 
Q 10.40625 58.296875 10.0625 60.03125 
Q 9.71875 61.765625 8.953125 62.390625 
Q 8.203125 63.03125 7.03125 63.03125 
Q 5.765625 63.03125 3.8125 62.25 
L 2.984375 63.96875 
L 16.3125 69.4375 
z
" id="TimesNewRomanPSMT-108"/>
       <path d="M 14.5 69.4375 
Q 16.546875 69.4375 17.984375 67.984375 
Q 19.4375 66.546875 19.4375 64.5 
Q 19.4375 62.453125 17.984375 60.984375 
Q 16.546875 59.515625 14.5 59.515625 
Q 12.453125 59.515625 10.984375 60.984375 
Q 9.515625 62.453125 9.515625 64.5 
Q 9.515625 66.546875 10.953125 67.984375 
Q 12.40625 69.4375 14.5 69.4375 
z
M 18.5625 46.046875 
L 18.5625 10.109375 
Q 18.5625 5.90625 19.171875 4.515625 
Q 19.78125 3.125 20.96875 2.4375 
Q 22.171875 1.765625 25.34375 1.765625 
L 25.34375 0 
L 3.609375 0 
L 3.609375 1.765625 
Q 6.890625 1.765625 8 2.390625 
Q 9.125 3.03125 9.78125 4.484375 
Q 10.453125 5.953125 10.453125 10.109375 
L 10.453125 27.34375 
Q 10.453125 34.625 10.015625 36.765625 
Q 9.671875 38.328125 8.9375 38.9375 
Q 8.203125 39.546875 6.9375 39.546875 
Q 5.5625 39.546875 3.609375 38.8125 
L 2.9375 40.578125 
L 16.40625 46.046875 
z
" id="TimesNewRomanPSMT-105"/>
       <path d="M 42 13.71875 
L 41.453125 0 
L 2 0 
L 2 1.765625 
L 31.6875 41.3125 
L 17.046875 41.3125 
Q 12.3125 41.3125 10.84375 40.703125 
Q 9.375 40.09375 8.453125 38.375 
Q 7.125 35.9375 6.9375 32.328125 
L 4.984375 32.328125 
L 5.28125 44.734375 
L 42.78125 44.734375 
L 42.78125 42.921875 
L 12.796875 3.265625 
L 29.109375 3.265625 
Q 34.234375 3.265625 36.0625 4.125 
Q 37.890625 4.984375 39.015625 7.125 
Q 39.796875 8.6875 40.328125 13.71875 
z
" id="TimesNewRomanPSMT-122"/>
       <path d="M 10.640625 27.875 
Q 10.59375 17.921875 15.484375 12.25 
Q 20.359375 6.59375 26.953125 6.59375 
Q 31.34375 6.59375 34.59375 9 
Q 37.84375 11.421875 40.046875 17.28125 
L 41.546875 16.3125 
Q 40.53125 9.625 35.59375 4.125 
Q 30.671875 -1.375 23.25 -1.375 
Q 15.1875 -1.375 9.453125 4.90625 
Q 3.71875 11.1875 3.71875 21.78125 
Q 3.71875 33.25 9.59375 39.671875 
Q 15.484375 46.09375 24.359375 46.09375 
Q 31.890625 46.09375 36.71875 41.140625 
Q 41.546875 36.1875 41.546875 27.875 
z
M 10.640625 30.71875 
L 31.34375 30.71875 
Q 31.109375 35.015625 30.328125 36.765625 
Q 29.109375 39.5 26.6875 41.0625 
Q 24.265625 42.625 21.625 42.625 
Q 17.578125 42.625 14.375 39.46875 
Q 11.1875 36.328125 10.640625 30.71875 
z
" id="TimesNewRomanPSMT-101"/>
       <path d="M 34.71875 5.03125 
Q 31.453125 1.609375 28.328125 0.109375 
Q 25.203125 -1.375 21.578125 -1.375 
Q 14.265625 -1.375 8.796875 4.75 
Q 3.328125 10.890625 3.328125 20.515625 
Q 3.328125 30.125 9.375 38.109375 
Q 15.4375 46.09375 24.953125 46.09375 
Q 30.859375 46.09375 34.71875 42.328125 
L 34.71875 50.59375 
Q 34.71875 58.25 34.34375 60 
Q 33.984375 61.765625 33.203125 62.390625 
Q 32.421875 63.03125 31.25 63.03125 
Q 29.984375 63.03125 27.875 62.25 
L 27.25 63.96875 
L 40.578125 69.4375 
L 42.78125 69.4375 
L 42.78125 17.71875 
Q 42.78125 9.859375 43.140625 8.125 
Q 43.5 6.390625 44.3125 5.703125 
Q 45.125 5.03125 46.1875 5.03125 
Q 47.515625 5.03125 49.703125 5.859375 
L 50.25 4.15625 
L 36.96875 -1.375 
L 34.71875 -1.375 
z
M 34.71875 8.453125 
L 34.71875 31.5 
Q 34.421875 34.8125 32.953125 37.546875 
Q 31.5 40.28125 29.078125 41.671875 
Q 26.65625 43.0625 24.359375 43.0625 
Q 20.0625 43.0625 16.703125 39.203125 
Q 12.25 34.125 12.25 24.359375 
Q 12.25 14.5 16.546875 9.25 
Q 20.84375 4 26.125 4 
Q 30.5625 4 34.71875 8.453125 
z
" id="TimesNewRomanPSMT-100"/>
       <path id="TimesNewRomanPSMT-32"/>
       <path d="M 16.15625 36.578125 
Q 24.03125 46.046875 31.15625 46.046875 
Q 34.8125 46.046875 37.453125 44.21875 
Q 40.09375 42.390625 41.65625 38.1875 
Q 42.71875 35.25 42.71875 29.203125 
L 42.71875 10.109375 
Q 42.71875 5.859375 43.40625 4.34375 
Q 43.953125 3.125 45.140625 2.4375 
Q 46.34375 1.765625 49.5625 1.765625 
L 49.5625 0 
L 27.4375 0 
L 27.4375 1.765625 
L 28.375 1.765625 
Q 31.5 1.765625 32.734375 2.703125 
Q 33.984375 3.65625 34.46875 5.515625 
Q 34.671875 6.25 34.671875 10.109375 
L 34.671875 28.421875 
Q 34.671875 34.515625 33.078125 37.28125 
Q 31.5 40.046875 27.734375 40.046875 
Q 21.921875 40.046875 16.15625 33.6875 
L 16.15625 10.109375 
Q 16.15625 5.5625 16.703125 4.5 
Q 17.390625 3.078125 18.578125 2.421875 
Q 19.78125 1.765625 23.4375 1.765625 
L 23.4375 0 
L 1.3125 0 
L 1.3125 1.765625 
L 2.296875 1.765625 
Q 5.71875 1.765625 6.90625 3.484375 
Q 8.109375 5.21875 8.109375 10.109375 
L 8.109375 26.703125 
Q 8.109375 34.765625 7.734375 36.515625 
Q 7.375 38.28125 6.609375 38.90625 
Q 5.859375 39.546875 4.59375 39.546875 
Q 3.21875 39.546875 1.3125 38.8125 
L 0.59375 40.578125 
L 14.0625 46.046875 
L 16.15625 46.046875 
z
" id="TimesNewRomanPSMT-110"/>
       <path d="M 32.03125 46.046875 
L 32.03125 30.8125 
L 30.421875 30.8125 
Q 28.5625 37.984375 25.65625 40.578125 
Q 22.75 43.171875 18.265625 43.171875 
Q 14.84375 43.171875 12.734375 41.359375 
Q 10.640625 39.546875 10.640625 37.359375 
Q 10.640625 34.625 12.203125 32.671875 
Q 13.71875 30.671875 18.359375 28.421875 
L 25.484375 24.953125 
Q 35.40625 20.125 35.40625 12.203125 
Q 35.40625 6.109375 30.78125 2.359375 
Q 26.171875 -1.375 20.453125 -1.375 
Q 16.359375 -1.375 11.078125 0.09375 
Q 9.46875 0.59375 8.453125 0.59375 
Q 7.328125 0.59375 6.6875 -0.6875 
L 5.078125 -0.6875 
L 5.078125 15.28125 
L 6.6875 15.28125 
Q 8.0625 8.453125 11.90625 4.984375 
Q 15.765625 1.515625 20.5625 1.515625 
Q 23.921875 1.515625 26.046875 3.484375 
Q 28.171875 5.46875 28.171875 8.25 
Q 28.171875 11.625 25.796875 13.921875 
Q 23.4375 16.21875 16.359375 19.734375 
Q 9.28125 23.25 7.078125 26.078125 
Q 4.890625 28.859375 4.890625 33.109375 
Q 4.890625 38.625 8.671875 42.328125 
Q 12.453125 46.046875 18.453125 46.046875 
Q 21.09375 46.046875 24.859375 44.921875 
Q 27.34375 44.1875 28.171875 44.1875 
Q 28.953125 44.1875 29.390625 44.53125 
Q 29.828125 44.875 30.421875 46.046875 
z
" id="TimesNewRomanPSMT-115"/>
       <path d="M 16.109375 59.421875 
L 16.109375 44.734375 
L 26.5625 44.734375 
L 26.5625 41.3125 
L 16.109375 41.3125 
L 16.109375 12.3125 
Q 16.109375 7.953125 17.359375 6.4375 
Q 18.609375 4.9375 20.5625 4.9375 
Q 22.171875 4.9375 23.6875 5.9375 
Q 25.203125 6.9375 26.03125 8.890625 
L 27.9375 8.890625 
Q 26.21875 4.109375 23.09375 1.6875 
Q 19.96875 -0.734375 16.65625 -0.734375 
Q 14.40625 -0.734375 12.25 0.515625 
Q 10.109375 1.765625 9.078125 4.078125 
Q 8.0625 6.390625 8.0625 11.234375 
L 8.0625 41.3125 
L 0.984375 41.3125 
L 0.984375 42.921875 
Q 3.65625 44 6.46875 46.5625 
Q 9.28125 49.125 11.46875 52.640625 
Q 12.59375 54.5 14.59375 59.421875 
z
" id="TimesNewRomanPSMT-116"/>
       <path d="M 0.59375 44.734375 
L 21.4375 44.734375 
L 21.4375 42.921875 
L 20.40625 42.921875 
Q 18.21875 42.921875 17.109375 41.96875 
Q 16.015625 41.015625 16.015625 39.59375 
Q 16.015625 37.703125 17.625 34.328125 
L 28.515625 11.765625 
L 38.53125 36.46875 
Q 39.359375 38.484375 39.359375 40.4375 
Q 39.359375 41.3125 39.015625 41.75 
Q 38.625 42.28125 37.796875 42.59375 
Q 36.96875 42.921875 34.859375 42.921875 
L 34.859375 44.734375 
L 49.421875 44.734375 
L 49.421875 42.921875 
Q 47.609375 42.71875 46.625 42.125 
Q 45.65625 41.546875 44.484375 39.9375 
Q 44.046875 39.265625 42.828125 36.1875 
L 24.609375 -8.453125 
Q 21.96875 -14.9375 17.6875 -18.25 
Q 13.421875 -21.578125 9.46875 -21.578125 
Q 6.59375 -21.578125 4.734375 -19.921875 
Q 2.875 -18.265625 2.875 -16.109375 
Q 2.875 -14.0625 4.21875 -12.8125 
Q 5.5625 -11.578125 7.90625 -11.578125 
Q 9.515625 -11.578125 12.3125 -12.640625 
Q 14.265625 -13.375 14.75 -13.375 
Q 16.21875 -13.375 17.9375 -11.859375 
Q 19.671875 -10.359375 21.4375 -6 
L 24.609375 1.765625 
L 8.546875 35.5 
Q 7.8125 37.015625 6.203125 39.265625 
Q 4.984375 40.96875 4.203125 41.546875 
Q 3.078125 42.328125 0.59375 42.921875 
z
" id="TimesNewRomanPSMT-121"/>
      </defs>
      <use xlink:href="#TimesNewRomanPSMT-78"/>
      <use x="72.216797" xlink:href="#TimesNewRomanPSMT-111"/>
      <use x="122.216797" xlink:href="#TimesNewRomanPSMT-114"/>
      <use x="155.517578" xlink:href="#TimesNewRomanPSMT-109"/>
      <use x="233.300781" xlink:href="#TimesNewRomanPSMT-97"/>
      <use x="277.685547" xlink:href="#TimesNewRomanPSMT-108"/>
      <use x="305.46875" xlink:href="#TimesNewRomanPSMT-105"/>
      <use x="333.251953" xlink:href="#TimesNewRomanPSMT-122"/>
      <use x="377.636719" xlink:href="#TimesNewRomanPSMT-101"/>
      <use x="422.021484" xlink:href="#TimesNewRomanPSMT-100"/>
      <use x="472.021484" xlink:href="#TimesNewRomanPSMT-32"/>
      <use x="497.021484" xlink:href="#TimesNewRomanPSMT-100"/>
      <use x="547.021484" xlink:href="#TimesNewRomanPSMT-101"/>
      <use x="591.40625" xlink:href="#TimesNewRomanPSMT-110"/>
      <use x="641.40625" xlink:href="#TimesNewRomanPSMT-115"/>
      <use x="680.322266" xlink:href="#TimesNewRomanPSMT-105"/>
      <use x="708.105469" xlink:href="#TimesNewRomanPSMT-116"/>
      <use x="735.888672" xlink:href="#TimesNewRomanPSMT-121"/>
     </g>
    </g>
   </g>
   <g id="matplotlib.axis_2">
    <g id="ytick_1">
     <g id="line2d_7">
      <defs>
       <path d="M 0 0 
L -3.5 0 
" id="mfba5f900c6" style="stroke:#000000;stroke-width:0.8;"/>
      </defs>
      <g>
       <use style="stroke:#000000;stroke-width:0.8;" x="54" xlink:href="#mfba5f900c6" y="242.116364"/>
      </g>
     </g>
     <g id="text_8">
      <!-- 0.0 -->
      <g transform="translate(32 246.282614)scale(0.12 -0.12)">
       <use xlink:href="#TimesNewRomanPSMT-48"/>
       <use x="50" xlink:href="#TimesNewRomanPSMT-46"/>
       <use x="75" xlink:href="#TimesNewRomanPSMT-48"/>
      </g>
     </g>
    </g>
    <g id="ytick_2">
     <g id="line2d_8">
      <g>
       <use style="stroke:#000000;stroke-width:0.8;" x="54" xlink:href="#mfba5f900c6" y="202.581818"/>
      </g>
     </g>
     <g id="text_9">
      <!-- 0.2 -->
      <g transform="translate(32 206.748068)scale(0.12 -0.12)">
       <use xlink:href="#TimesNewRomanPSMT-48"/>
       <use x="50" xlink:href="#TimesNewRomanPSMT-46"/>
       <use x="75" xlink:href="#TimesNewRomanPSMT-50"/>
      </g>
     </g>
    </g>
    <g id="ytick_3">
     <g id="line2d_9">
      <g>
       <use style="stroke:#000000;stroke-width:0.8;" x="54" xlink:href="#mfba5f900c6" y="163.047273"/>
      </g>
     </g>
     <g id="text_10">
      <!-- 0.4 -->
      <g transform="translate(32 167.213523)scale(0.12 -0.12)">
       <use xlink:href="#TimesNewRomanPSMT-48"/>
       <use x="50" xlink:href="#TimesNewRomanPSMT-46"/>
       <use x="75" xlink:href="#TimesNewRomanPSMT-52"/>
      </g>
     </g>
    </g>
    <g id="ytick_4">
     <g id="line2d_10">
      <g>
       <use style="stroke:#000000;stroke-width:0.8;" x="54" xlink:href="#mfba5f900c6" y="123.512727"/>
      </g>
     </g>
     <g id="text_11">
      <!-- 0.6 -->
      <g transform="translate(32 127.678977)scale(0.12 -0.12)">
       <use xlink:href="#TimesNewRomanPSMT-48"/>
       <use x="50" xlink:href="#TimesNewRomanPSMT-46"/>
       <use x="75" xlink:href="#TimesNewRomanPSMT-54"/>
      </g>
     </g>
    </g>
    <g id="ytick_5">
     <g id="line2d_11">
      <g>
       <use style="stroke:#000000;stroke-width:0.8;" x="54" xlink:href="#mfba5f900c6" y="83.978182"/>
      </g>
     </g>
     <g id="text_12">
      <!-- 0.8 -->
      <g transform="translate(32 88.144432)scale(0.12 -0.12)">
       <use xlink:href="#TimesNewRomanPSMT-48"/>
       <use x="50" xlink:href="#TimesNewRomanPSMT-46"/>
       <use x="75" xlink:href="#TimesNewRomanPSMT-56"/>
      </g>
     </g>
    </g>
    <g id="ytick_6">
     <g id="line2d_12">
      <g>
       <use style="stroke:#000000;stroke-width:0.8;" x="54" xlink:href="#mfba5f900c6" y="44.443636"/>
      </g>
     </g>
     <g id="text_13">
      <!-- 1.0 -->
      <g transform="translate(32 48.609886)scale(0.12 -0.12)">
       <use xlink:href="#TimesNewRomanPSMT-49"/>
       <use x="50" xlink:href="#TimesNewRomanPSMT-46"/>
       <use x="75" xlink:href="#TimesNewRomanPSMT-48"/>
      </g>
     </g>
    </g>
    <g id="text_14">
     <!-- Order parameter -->
     <g transform="translate(25.433125 182.755313)rotate(-90)scale(0.12 -0.12)">
      <defs>
       <path d="M 36.578125 67.71875 
Q 49.46875 67.71875 58.90625 57.921875 
Q 68.359375 48.140625 68.359375 33.5 
Q 68.359375 18.40625 58.828125 8.4375 
Q 49.3125 -1.515625 35.796875 -1.515625 
Q 22.125 -1.515625 12.8125 8.203125 
Q 3.515625 17.921875 3.515625 33.34375 
Q 3.515625 49.125 14.265625 59.078125 
Q 23.578125 67.71875 36.578125 67.71875 
z
M 35.640625 64.15625 
Q 26.765625 64.15625 21.390625 57.5625 
Q 14.703125 49.359375 14.703125 33.546875 
Q 14.703125 17.328125 21.625 8.59375 
Q 26.953125 1.953125 35.6875 1.953125 
Q 45.015625 1.953125 51.09375 9.21875 
Q 57.171875 16.5 57.171875 32.171875 
Q 57.171875 49.171875 50.484375 57.515625 
Q 45.125 64.15625 35.640625 64.15625 
z
" id="TimesNewRomanPSMT-79"/>
       <path d="M -0.09375 40.28125 
L 13.671875 45.84375 
L 15.53125 45.84375 
L 15.53125 35.40625 
Q 19 41.3125 22.484375 43.671875 
Q 25.984375 46.046875 29.828125 46.046875 
Q 36.578125 46.046875 41.0625 40.765625 
Q 46.578125 34.328125 46.578125 23.96875 
Q 46.578125 12.40625 39.9375 4.828125 
Q 34.46875 -1.375 26.171875 -1.375 
Q 22.5625 -1.375 19.921875 -0.34375 
Q 17.96875 0.390625 15.53125 2.59375 
L 15.53125 -11.03125 
Q 15.53125 -15.625 16.09375 -16.859375 
Q 16.65625 -18.109375 18.046875 -18.84375 
Q 19.4375 -19.578125 23.09375 -19.578125 
L 23.09375 -21.390625 
L -0.34375 -21.390625 
L -0.34375 -19.578125 
L 0.875 -19.578125 
Q 3.5625 -19.625 5.46875 -18.5625 
Q 6.390625 -18.015625 6.90625 -16.8125 
Q 7.421875 -15.625 7.421875 -10.75 
L 7.421875 31.546875 
Q 7.421875 35.890625 7.03125 37.0625 
Q 6.640625 38.234375 5.78125 38.8125 
Q 4.9375 39.40625 3.46875 39.40625 
Q 2.296875 39.40625 0.484375 38.71875 
z
M 15.53125 32.515625 
L 15.53125 15.828125 
Q 15.53125 10.40625 15.96875 8.6875 
Q 16.65625 5.859375 19.3125 3.703125 
Q 21.96875 1.5625 26.03125 1.5625 
Q 30.90625 1.5625 33.9375 5.375 
Q 37.890625 10.359375 37.890625 19.390625 
Q 37.890625 29.640625 33.40625 35.15625 
Q 30.28125 38.96875 25.984375 38.96875 
Q 23.640625 38.96875 21.34375 37.796875 
Q 19.578125 36.921875 15.53125 32.515625 
z
" id="TimesNewRomanPSMT-112"/>
      </defs>
      <use xlink:href="#TimesNewRomanPSMT-79"/>
      <use x="72.216797" xlink:href="#TimesNewRomanPSMT-114"/>
      <use x="105.517578" xlink:href="#TimesNewRomanPSMT-100"/>
      <use x="155.517578" xlink:href="#TimesNewRomanPSMT-101"/>
      <use x="199.902344" xlink:href="#TimesNewRomanPSMT-114"/>
      <use x="233.203125" xlink:href="#TimesNewRomanPSMT-32"/>
      <use x="258.203125" xlink:href="#TimesNewRomanPSMT-112"/>
      <use x="308.203125" xlink:href="#TimesNewRomanPSMT-97"/>
      <use x="352.587891" xlink:href="#TimesNewRomanPSMT-114"/>
      <use x="385.888672" xlink:href="#TimesNewRomanPSMT-97"/>
      <use x="430.273438" xlink:href="#TimesNewRomanPSMT-109"/>
      <use x="508.056641" xlink:href="#TimesNewRomanPSMT-101"/>
      <use x="552.441406" xlink:href="#TimesNewRomanPSMT-116"/>
      <use x="580.224609" xlink:href="#TimesNewRomanPSMT-101"/>
      <use x="624.609375" xlink:href="#TimesNewRomanPSMT-114"/>
     </g>
    </g>
   </g>
   <g id="line2d_13">
    <defs>
     <path d="M 0 3 
C 0.795609 3 1.55874 2.683901 2.12132 2.12132 
C 2.683901 1.55874 3 0.795609 3 0 
C 3 -0.795609 2.683901 -1.55874 2.12132 -2.12132 
C 1.55874 -2.683901 0.795609 -3 0 -3 
C -0.795609 -3 -1.55874 -2.683901 -2.12132 -2.12132 
C -2.683901 -1.55874 -3 -0.795609 -3 0 
C -3 0.795609 -2.683901 1.55874 -2.12132 2.12132 
C -1.55874 2.683901 -0.795609 3 0 3 
z
" id="maaa340cfcc" style="stroke:#0000ff;"/>
    </defs>
    <g clip-path="url(#p63b9e29572)">
     <use style="fill:#0000ff;stroke:#0000ff;" x="69.218182" xlink:href="#maaa340cfcc" y="242.116364"/>
     <use style="fill:#0000ff;stroke:#0000ff;" x="73.38332" xlink:href="#maaa340cfcc" y="242.116364"/>
     <use style="fill:#0000ff;stroke:#0000ff;" x="77.548459" xlink:href="#maaa340cfcc" y="242.116364"/>
     <use style="fill:#0000ff;stroke:#0000ff;" x="81.713597" xlink:href="#maaa340cfcc" y="242.111483"/>
     <use style="fill:#0000ff;stroke:#0000ff;" x="85.878736" xlink:href="#maaa340cfcc" y="242.092936"/>
     <use style="fill:#0000ff;stroke:#0000ff;" x="90.043874" xlink:href="#maaa340cfcc" y="242.09196"/>
     <use style="fill:#0000ff;stroke:#0000ff;" x="94.209013" xlink:href="#maaa340cfcc" y="242.046638"/>
     <use style="fill:#0000ff;stroke:#0000ff;" x="98.405004" xlink:href="#maaa340cfcc" y="242.020057"/>
     <use style="fill:#0000ff;stroke:#0000ff;" x="102.570142" xlink:href="#maaa340cfcc" y="241.965725"/>
     <use style="fill:#0000ff;stroke:#0000ff;" x="106.735281" xlink:href="#maaa340cfcc" y="241.816904"/>
     <use style="fill:#0000ff;stroke:#0000ff;" x="110.900419" xlink:href="#maaa340cfcc" y="241.768729"/>
     <use style="fill:#0000ff;stroke:#0000ff;" x="115.065558" xlink:href="#maaa340cfcc" y="241.635901"/>
     <use style="fill:#0000ff;stroke:#0000ff;" x="119.230696" xlink:href="#maaa340cfcc" y="241.245073"/>
     <use style="fill:#0000ff;stroke:#0000ff;" x="123.395835" xlink:href="#maaa340cfcc" y="240.620839"/>
     <use style="fill:#0000ff;stroke:#0000ff;" x="127.591826" xlink:href="#maaa340cfcc" y="240.299244"/>
     <use style="fill:#0000ff;stroke:#0000ff;" x="131.756964" xlink:href="#maaa340cfcc" y="239.672122"/>
     <use style="fill:#0000ff;stroke:#0000ff;" x="135.922103" xlink:href="#maaa340cfcc" y="238.560492"/>
     <use style="fill:#0000ff;stroke:#0000ff;" x="140.087241" xlink:href="#maaa340cfcc" y="237.255283"/>
     <use style="fill:#0000ff;stroke:#0000ff;" x="144.25238" xlink:href="#maaa340cfcc" y="234.910203"/>
     <use style="fill:#0000ff;stroke:#0000ff;" x="148.417518" xlink:href="#maaa340cfcc" y="232.414647"/>
     <use style="fill:#0000ff;stroke:#0000ff;" x="152.582657" xlink:href="#maaa340cfcc" y="229.392938"/>
     <use style="fill:#0000ff;stroke:#0000ff;" x="156.747795" xlink:href="#maaa340cfcc" y="224.481456"/>
     <use style="fill:#0000ff;stroke:#0000ff;" x="160.943787" xlink:href="#maaa340cfcc" y="218.537679"/>
     <use style="fill:#0000ff;stroke:#0000ff;" x="165.108925" xlink:href="#maaa340cfcc" y="212.363662"/>
     <use style="fill:#0000ff;stroke:#0000ff;" x="169.274063" xlink:href="#maaa340cfcc" y="203.493134"/>
     <use style="fill:#0000ff;stroke:#0000ff;" x="173.439202" xlink:href="#maaa340cfcc" y="193.989554"/>
     <use style="fill:#0000ff;stroke:#0000ff;" x="177.60434" xlink:href="#maaa340cfcc" y="184.357057"/>
     <use style="fill:#0000ff;stroke:#0000ff;" x="181.769479" xlink:href="#maaa340cfcc" y="174.069848"/>
     <use style="fill:#0000ff;stroke:#0000ff;" x="185.934617" xlink:href="#maaa340cfcc" y="165.203611"/>
     <use style="fill:#0000ff;stroke:#0000ff;" x="190.130609" xlink:href="#maaa340cfcc" y="156.016092"/>
     <use style="fill:#0000ff;stroke:#0000ff;" x="194.295747" xlink:href="#maaa340cfcc" y="147.703138"/>
     <use style="fill:#0000ff;stroke:#0000ff;" x="198.460886" xlink:href="#maaa340cfcc" y="139.875738"/>
     <use style="fill:#0000ff;stroke:#0000ff;" x="202.626024" xlink:href="#maaa340cfcc" y="132.431569"/>
     <use style="fill:#0000ff;stroke:#0000ff;" x="206.791163" xlink:href="#maaa340cfcc" y="125.986003"/>
     <use style="fill:#0000ff;stroke:#0000ff;" x="210.956301" xlink:href="#maaa340cfcc" y="119.671018"/>
     <use style="fill:#0000ff;stroke:#0000ff;" x="215.121439" xlink:href="#maaa340cfcc" y="113.862364"/>
     <use style="fill:#0000ff;stroke:#0000ff;" x="219.317431" xlink:href="#maaa340cfcc" y="108.574467"/>
     <use style="fill:#0000ff;stroke:#0000ff;" x="223.482569" xlink:href="#maaa340cfcc" y="103.854011"/>
     <use style="fill:#0000ff;stroke:#0000ff;" x="227.647708" xlink:href="#maaa340cfcc" y="99.342391"/>
     <use style="fill:#0000ff;stroke:#0000ff;" x="231.812846" xlink:href="#maaa340cfcc" y="95.774666"/>
     <use style="fill:#0000ff;stroke:#0000ff;" x="235.977985" xlink:href="#maaa340cfcc" y="91.470953"/>
     <use style="fill:#0000ff;stroke:#0000ff;" x="240.143123" xlink:href="#maaa340cfcc" y="88.509154"/>
     <use style="fill:#0000ff;stroke:#0000ff;" x="244.308262" xlink:href="#maaa340cfcc" y="85.199375"/>
     <use style="fill:#0000ff;stroke:#0000ff;" x="248.4734" xlink:href="#maaa340cfcc" y="82.248282"/>
     <use style="fill:#0000ff;stroke:#0000ff;" x="252.669391" xlink:href="#maaa340cfcc" y="79.833372"/>
     <use style="fill:#0000ff;stroke:#0000ff;" x="256.83453" xlink:href="#maaa340cfcc" y="77.0431"/>
     <use style="fill:#0000ff;stroke:#0000ff;" x="260.999668" xlink:href="#maaa340cfcc" y="74.517115"/>
     <use style="fill:#0000ff;stroke:#0000ff;" x="265.164807" xlink:href="#maaa340cfcc" y="72.337048"/>
     <use style="fill:#0000ff;stroke:#0000ff;" x="269.329945" xlink:href="#maaa340cfcc" y="70.361324"/>
     <use style="fill:#0000ff;stroke:#0000ff;" x="273.495084" xlink:href="#maaa340cfcc" y="68.45071"/>
     <use style="fill:#0000ff;stroke:#0000ff;" x="277.660222" xlink:href="#maaa340cfcc" y="66.668312"/>
     <use style="fill:#0000ff;stroke:#0000ff;" x="281.856213" xlink:href="#maaa340cfcc" y="64.968931"/>
     <use style="fill:#0000ff;stroke:#0000ff;" x="286.021352" xlink:href="#maaa340cfcc" y="63.546664"/>
     <use style="fill:#0000ff;stroke:#0000ff;" x="290.18649" xlink:href="#maaa340cfcc" y="62.00979"/>
     <use style="fill:#0000ff;stroke:#0000ff;" x="294.351629" xlink:href="#maaa340cfcc" y="60.607123"/>
     <use style="fill:#0000ff;stroke:#0000ff;" x="298.516767" xlink:href="#maaa340cfcc" y="59.357082"/>
     <use style="fill:#0000ff;stroke:#0000ff;" x="302.681906" xlink:href="#maaa340cfcc" y="58.050426"/>
     <use style="fill:#0000ff;stroke:#0000ff;" x="306.847044" xlink:href="#maaa340cfcc" y="56.944833"/>
     <use style="fill:#0000ff;stroke:#0000ff;" x="311.012183" xlink:href="#maaa340cfcc" y="55.784609"/>
     <use style="fill:#0000ff;stroke:#0000ff;" x="315.208174" xlink:href="#maaa340cfcc" y="54.701911"/>
     <use style="fill:#0000ff;stroke:#0000ff;" x="319.373312" xlink:href="#maaa340cfcc" y="53.720002"/>
     <use style="fill:#0000ff;stroke:#0000ff;" x="323.538451" xlink:href="#maaa340cfcc" y="52.869619"/>
     <use style="fill:#0000ff;stroke:#0000ff;" x="327.703589" xlink:href="#maaa340cfcc" y="51.99373"/>
     <use style="fill:#0000ff;stroke:#0000ff;" x="331.868728" xlink:href="#maaa340cfcc" y="51.073566"/>
     <use style="fill:#0000ff;stroke:#0000ff;" x="336.033866" xlink:href="#maaa340cfcc" y="50.320028"/>
     <use style="fill:#0000ff;stroke:#0000ff;" x="340.199005" xlink:href="#maaa340cfcc" y="49.527979"/>
     <use style="fill:#0000ff;stroke:#0000ff;" x="344.394996" xlink:href="#maaa340cfcc" y="48.783383"/>
     <use style="fill:#0000ff;stroke:#0000ff;" x="348.560135" xlink:href="#maaa340cfcc" y="48.055052"/>
     <use style="fill:#0000ff;stroke:#0000ff;" x="352.725273" xlink:href="#maaa340cfcc" y="47.405901"/>
     <use style="fill:#0000ff;stroke:#0000ff;" x="356.890411" xlink:href="#maaa340cfcc" y="46.759675"/>
     <use style="fill:#0000ff;stroke:#0000ff;" x="361.05555" xlink:href="#maaa340cfcc" y="46.136169"/>
     <use style="fill:#0000ff;stroke:#0000ff;" x="365.220688" xlink:href="#maaa340cfcc" y="45.5492"/>
     <use style="fill:#0000ff;stroke:#0000ff;" x="369.385827" xlink:href="#maaa340cfcc" y="44.998873"/>
     <use style="fill:#0000ff;stroke:#0000ff;" x="373.581818" xlink:href="#maaa340cfcc" y="44.443636"/>
    </g>
   </g>
   <g id="line2d_14">
    <defs>
     <path d="M -0 3 
L 3 -3 
L -3 -3 
z
" id="md483a98c92" style="stroke:#ff0000;stroke-linejoin:miter;"/>
    </defs>
    <g clip-path="url(#p63b9e29572)">
     <use style="fill:#ff0000;stroke:#ff0000;stroke-linejoin:miter;" x="69.218182" xlink:href="#md483a98c92" y="242.116364"/>
     <use style="fill:#ff0000;stroke:#ff0000;stroke-linejoin:miter;" x="73.38332" xlink:href="#md483a98c92" y="242.116364"/>
     <use style="fill:#ff0000;stroke:#ff0000;stroke-linejoin:miter;" x="77.548459" xlink:href="#md483a98c92" y="242.11311"/>
     <use style="fill:#ff0000;stroke:#ff0000;stroke-linejoin:miter;" x="81.713597" xlink:href="#md483a98c92" y="242.106602"/>
     <use style="fill:#ff0000;stroke:#ff0000;stroke-linejoin:miter;" x="85.878736" xlink:href="#md483a98c92" y="242.100745"/>
     <use style="fill:#ff0000;stroke:#ff0000;stroke-linejoin:miter;" x="90.043874" xlink:href="#md483a98c92" y="242.09196"/>
     <use style="fill:#ff0000;stroke:#ff0000;stroke-linejoin:miter;" x="94.209013" xlink:href="#md483a98c92" y="242.063372"/>
     <use style="fill:#ff0000;stroke:#ff0000;stroke-linejoin:miter;" x="98.405004" xlink:href="#md483a98c92" y="242.035905"/>
     <use style="fill:#ff0000;stroke:#ff0000;stroke-linejoin:miter;" x="102.570142" xlink:href="#md483a98c92" y="241.962474"/>
     <use style="fill:#ff0000;stroke:#ff0000;stroke-linejoin:miter;" x="106.735281" xlink:href="#md483a98c92" y="241.848118"/>
     <use style="fill:#ff0000;stroke:#ff0000;stroke-linejoin:miter;" x="110.900419" xlink:href="#md483a98c92" y="241.745672"/>
     <use style="fill:#ff0000;stroke:#ff0000;stroke-linejoin:miter;" x="115.065558" xlink:href="#md483a98c92" y="241.587936"/>
     <use style="fill:#ff0000;stroke:#ff0000;stroke-linejoin:miter;" x="119.230696" xlink:href="#md483a98c92" y="241.278093"/>
     <use style="fill:#ff0000;stroke:#ff0000;stroke-linejoin:miter;" x="123.395835" xlink:href="#md483a98c92" y="240.768579"/>
     <use style="fill:#ff0000;stroke:#ff0000;stroke-linejoin:miter;" x="127.591826" xlink:href="#md483a98c92" y="240.352555"/>
     <use style="fill:#ff0000;stroke:#ff0000;stroke-linejoin:miter;" x="131.756964" xlink:href="#md483a98c92" y="239.259465"/>
     <use style="fill:#ff0000;stroke:#ff0000;stroke-linejoin:miter;" x="135.922103" xlink:href="#md483a98c92" y="238.366577"/>
     <use style="fill:#ff0000;stroke:#ff0000;stroke-linejoin:miter;" x="140.087241" xlink:href="#md483a98c92" y="236.92908"/>
     <use style="fill:#ff0000;stroke:#ff0000;stroke-linejoin:miter;" x="144.25238" xlink:href="#md483a98c92" y="235.43846"/>
     <use style="fill:#ff0000;stroke:#ff0000;stroke-linejoin:miter;" x="148.417518" xlink:href="#md483a98c92" y="232.77117"/>
     <use style="fill:#ff0000;stroke:#ff0000;stroke-linejoin:miter;" x="152.582657" xlink:href="#md483a98c92" y="228.786751"/>
     <use style="fill:#ff0000;stroke:#ff0000;stroke-linejoin:miter;" x="156.747795" xlink:href="#md483a98c92" y="225.036606"/>
     <use style="fill:#ff0000;stroke:#ff0000;stroke-linejoin:miter;" x="160.943787" xlink:href="#md483a98c92" y="217.381832"/>
     <use style="fill:#ff0000;stroke:#ff0000;stroke-linejoin:miter;" x="165.108925" xlink:href="#md483a98c92" y="212.530269"/>
     <use style="fill:#ff0000;stroke:#ff0000;stroke-linejoin:miter;" x="169.274063" xlink:href="#md483a98c92" y="201.862831"/>
     <use style="fill:#ff0000;stroke:#ff0000;stroke-linejoin:miter;" x="173.439202" xlink:href="#md483a98c92" y="194.06908"/>
     <use style="fill:#ff0000;stroke:#ff0000;stroke-linejoin:miter;" x="177.60434" xlink:href="#md483a98c92" y="184.085402"/>
     <use style="fill:#ff0000;stroke:#ff0000;stroke-linejoin:miter;" x="181.769479" xlink:href="#md483a98c92" y="174.153453"/>
     <use style="fill:#ff0000;stroke:#ff0000;stroke-linejoin:miter;" x="185.934617" xlink:href="#md483a98c92" y="165.413829"/>
     <use style="fill:#ff0000;stroke:#ff0000;stroke-linejoin:miter;" x="190.130609" xlink:href="#md483a98c92" y="155.966032"/>
     <use style="fill:#ff0000;stroke:#ff0000;stroke-linejoin:miter;" x="194.295747" xlink:href="#md483a98c92" y="147.707227"/>
     <use style="fill:#ff0000;stroke:#ff0000;stroke-linejoin:miter;" x="198.460886" xlink:href="#md483a98c92" y="139.486549"/>
     <use style="fill:#ff0000;stroke:#ff0000;stroke-linejoin:miter;" x="202.626024" xlink:href="#md483a98c92" y="132.64495"/>
     <use style="fill:#ff0000;stroke:#ff0000;stroke-linejoin:miter;" x="206.791163" xlink:href="#md483a98c92" y="125.553424"/>
     <use style="fill:#ff0000;stroke:#ff0000;stroke-linejoin:miter;" x="210.956301" xlink:href="#md483a98c92" y="119.783879"/>
     <use style="fill:#ff0000;stroke:#ff0000;stroke-linejoin:miter;" x="215.121439" xlink:href="#md483a98c92" y="113.735026"/>
     <use style="fill:#ff0000;stroke:#ff0000;stroke-linejoin:miter;" x="219.317431" xlink:href="#md483a98c92" y="108.616638"/>
     <use style="fill:#ff0000;stroke:#ff0000;stroke-linejoin:miter;" x="223.482569" xlink:href="#md483a98c92" y="104.041611"/>
     <use style="fill:#ff0000;stroke:#ff0000;stroke-linejoin:miter;" x="227.647708" xlink:href="#md483a98c92" y="99.781998"/>
     <use style="fill:#ff0000;stroke:#ff0000;stroke-linejoin:miter;" x="231.812846" xlink:href="#md483a98c92" y="95.299715"/>
     <use style="fill:#ff0000;stroke:#ff0000;stroke-linejoin:miter;" x="235.977985" xlink:href="#md483a98c92" y="91.786849"/>
     <use style="fill:#ff0000;stroke:#ff0000;stroke-linejoin:miter;" x="240.143123" xlink:href="#md483a98c92" y="88.408837"/>
     <use style="fill:#ff0000;stroke:#ff0000;stroke-linejoin:miter;" x="244.308262" xlink:href="#md483a98c92" y="85.107513"/>
     <use style="fill:#ff0000;stroke:#ff0000;stroke-linejoin:miter;" x="248.4734" xlink:href="#md483a98c92" y="82.215254"/>
     <use style="fill:#ff0000;stroke:#ff0000;stroke-linejoin:miter;" x="252.669391" xlink:href="#md483a98c92" y="79.42964"/>
     <use style="fill:#ff0000;stroke:#ff0000;stroke-linejoin:miter;" x="256.83453" xlink:href="#md483a98c92" y="77.083593"/>
     <use style="fill:#ff0000;stroke:#ff0000;stroke-linejoin:miter;" x="260.999668" xlink:href="#md483a98c92" y="74.50674"/>
     <use style="fill:#ff0000;stroke:#ff0000;stroke-linejoin:miter;" x="265.164807" xlink:href="#md483a98c92" y="72.45733"/>
     <use style="fill:#ff0000;stroke:#ff0000;stroke-linejoin:miter;" x="269.329945" xlink:href="#md483a98c92" y="70.28788"/>
     <use style="fill:#ff0000;stroke:#ff0000;stroke-linejoin:miter;" x="273.495084" xlink:href="#md483a98c92" y="68.507667"/>
     <use style="fill:#ff0000;stroke:#ff0000;stroke-linejoin:miter;" x="277.660222" xlink:href="#md483a98c92" y="66.651101"/>
     <use style="fill:#ff0000;stroke:#ff0000;stroke-linejoin:miter;" x="281.856213" xlink:href="#md483a98c92" y="65.063825"/>
     <use style="fill:#ff0000;stroke:#ff0000;stroke-linejoin:miter;" x="286.021352" xlink:href="#md483a98c92" y="63.433687"/>
     <use style="fill:#ff0000;stroke:#ff0000;stroke-linejoin:miter;" x="290.18649" xlink:href="#md483a98c92" y="62.041033"/>
     <use style="fill:#ff0000;stroke:#ff0000;stroke-linejoin:miter;" x="294.351629" xlink:href="#md483a98c92" y="60.661559"/>
     <use style="fill:#ff0000;stroke:#ff0000;stroke-linejoin:miter;" x="298.516767" xlink:href="#md483a98c92" y="59.336706"/>
     <use style="fill:#ff0000;stroke:#ff0000;stroke-linejoin:miter;" x="302.681906" xlink:href="#md483a98c92" y="58.078144"/>
     <use style="fill:#ff0000;stroke:#ff0000;stroke-linejoin:miter;" x="306.847044" xlink:href="#md483a98c92" y="56.997128"/>
     <use style="fill:#ff0000;stroke:#ff0000;stroke-linejoin:miter;" x="311.012183" xlink:href="#md483a98c92" y="55.878668"/>
     <use style="fill:#ff0000;stroke:#ff0000;stroke-linejoin:miter;" x="315.208174" xlink:href="#md483a98c92" y="54.729054"/>
     <use style="fill:#ff0000;stroke:#ff0000;stroke-linejoin:miter;" x="319.373312" xlink:href="#md483a98c92" y="53.791305"/>
     <use style="fill:#ff0000;stroke:#ff0000;stroke-linejoin:miter;" x="323.538451" xlink:href="#md483a98c92" y="52.861597"/>
     <use style="fill:#ff0000;stroke:#ff0000;stroke-linejoin:miter;" x="327.703589" xlink:href="#md483a98c92" y="51.962925"/>
     <use style="fill:#ff0000;stroke:#ff0000;stroke-linejoin:miter;" x="331.868728" xlink:href="#md483a98c92" y="51.112729"/>
     <use style="fill:#ff0000;stroke:#ff0000;stroke-linejoin:miter;" x="336.033866" xlink:href="#md483a98c92" y="50.352587"/>
     <use style="fill:#ff0000;stroke:#ff0000;stroke-linejoin:miter;" x="340.199005" xlink:href="#md483a98c92" y="49.521477"/>
     <use style="fill:#ff0000;stroke:#ff0000;stroke-linejoin:miter;" x="344.394996" xlink:href="#md483a98c92" y="48.794736"/>
     <use style="fill:#ff0000;stroke:#ff0000;stroke-linejoin:miter;" x="348.560135" xlink:href="#md483a98c92" y="48.068246"/>
     <use style="fill:#ff0000;stroke:#ff0000;stroke-linejoin:miter;" x="352.725273" xlink:href="#md483a98c92" y="47.425122"/>
     <use style="fill:#ff0000;stroke:#ff0000;stroke-linejoin:miter;" x="356.890411" xlink:href="#md483a98c92" y="46.763576"/>
     <use style="fill:#ff0000;stroke:#ff0000;stroke-linejoin:miter;" x="361.05555" xlink:href="#md483a98c92" y="46.155262"/>
     <use style="fill:#ff0000;stroke:#ff0000;stroke-linejoin:miter;" x="365.220688" xlink:href="#md483a98c92" y="45.564506"/>
     <use style="fill:#ff0000;stroke:#ff0000;stroke-linejoin:miter;" x="369.385827" xlink:href="#md483a98c92" y="44.989254"/>
     <use style="fill:#ff0000;stroke:#ff0000;stroke-linejoin:miter;" x="373.581818" xlink:href="#md483a98c92" y="44.443636"/>
    </g>
   </g>
   <g id="line2d_15">
    <defs>
     <path d="M 0 -3 
L -3 3 
L 3 3 
z
" id="ma5b719b7d2" style="stroke:#008000;stroke-linejoin:miter;"/>
    </defs>
    <g clip-path="url(#p63b9e29572)">
     <use style="fill:#008000;stroke:#008000;stroke-linejoin:miter;" x="69.218182" xlink:href="#ma5b719b7d2" y="242.116364"/>
     <use style="fill:#008000;stroke:#008000;stroke-linejoin:miter;" x="73.38332" xlink:href="#ma5b719b7d2" y="242.116364"/>
     <use style="fill:#008000;stroke:#008000;stroke-linejoin:miter;" x="77.548459" xlink:href="#ma5b719b7d2" y="242.116364"/>
     <use style="fill:#008000;stroke:#008000;stroke-linejoin:miter;" x="81.713597" xlink:href="#ma5b719b7d2" y="242.111483"/>
     <use style="fill:#008000;stroke:#008000;stroke-linejoin:miter;" x="85.878736" xlink:href="#ma5b719b7d2" y="242.098793"/>
     <use style="fill:#008000;stroke:#008000;stroke-linejoin:miter;" x="90.043874" xlink:href="#ma5b719b7d2" y="242.098467"/>
     <use style="fill:#008000;stroke:#008000;stroke-linejoin:miter;" x="94.209013" xlink:href="#ma5b719b7d2" y="242.052216"/>
     <use style="fill:#008000;stroke:#008000;stroke-linejoin:miter;" x="98.405004" xlink:href="#ma5b719b7d2" y="242.039562"/>
     <use style="fill:#008000;stroke:#008000;stroke-linejoin:miter;" x="102.570142" xlink:href="#ma5b719b7d2" y="241.964641"/>
     <use style="fill:#008000;stroke:#008000;stroke-linejoin:miter;" x="106.735281" xlink:href="#ma5b719b7d2" y="241.836413"/>
     <use style="fill:#008000;stroke:#008000;stroke-linejoin:miter;" x="110.900419" xlink:href="#ma5b719b7d2" y="241.808636"/>
     <use style="fill:#008000;stroke:#008000;stroke-linejoin:miter;" x="115.065558" xlink:href="#ma5b719b7d2" y="241.577367"/>
     <use style="fill:#008000;stroke:#008000;stroke-linejoin:miter;" x="119.230696" xlink:href="#ma5b719b7d2" y="241.233816"/>
     <use style="fill:#008000;stroke:#008000;stroke-linejoin:miter;" x="123.395835" xlink:href="#ma5b719b7d2" y="241.018066"/>
     <use style="fill:#008000;stroke:#008000;stroke-linejoin:miter;" x="127.591826" xlink:href="#ma5b719b7d2" y="240.417568"/>
     <use style="fill:#008000;stroke:#008000;stroke-linejoin:miter;" x="131.756964" xlink:href="#ma5b719b7d2" y="239.647131"/>
     <use style="fill:#008000;stroke:#008000;stroke-linejoin:miter;" x="135.922103" xlink:href="#ma5b719b7d2" y="238.581719"/>
     <use style="fill:#008000;stroke:#008000;stroke-linejoin:miter;" x="140.087241" xlink:href="#ma5b719b7d2" y="236.820707"/>
     <use style="fill:#008000;stroke:#008000;stroke-linejoin:miter;" x="144.25238" xlink:href="#ma5b719b7d2" y="235.128385"/>
     <use style="fill:#008000;stroke:#008000;stroke-linejoin:miter;" x="148.417518" xlink:href="#ma5b719b7d2" y="233.09404"/>
     <use style="fill:#008000;stroke:#008000;stroke-linejoin:miter;" x="152.582657" xlink:href="#ma5b719b7d2" y="228.958156"/>
     <use style="fill:#008000;stroke:#008000;stroke-linejoin:miter;" x="156.747795" xlink:href="#ma5b719b7d2" y="224.919989"/>
     <use style="fill:#008000;stroke:#008000;stroke-linejoin:miter;" x="160.943787" xlink:href="#ma5b719b7d2" y="218.952359"/>
     <use style="fill:#008000;stroke:#008000;stroke-linejoin:miter;" x="165.108925" xlink:href="#ma5b719b7d2" y="211.241302"/>
     <use style="fill:#008000;stroke:#008000;stroke-linejoin:miter;" x="169.274063" xlink:href="#ma5b719b7d2" y="203.100675"/>
     <use style="fill:#008000;stroke:#008000;stroke-linejoin:miter;" x="173.439202" xlink:href="#ma5b719b7d2" y="194.244264"/>
     <use style="fill:#008000;stroke:#008000;stroke-linejoin:miter;" x="177.60434" xlink:href="#ma5b719b7d2" y="184.356696"/>
     <use style="fill:#008000;stroke:#008000;stroke-linejoin:miter;" x="181.769479" xlink:href="#ma5b719b7d2" y="174.339473"/>
     <use style="fill:#008000;stroke:#008000;stroke-linejoin:miter;" x="185.934617" xlink:href="#ma5b719b7d2" y="164.99171"/>
     <use style="fill:#008000;stroke:#008000;stroke-linejoin:miter;" x="190.130609" xlink:href="#ma5b719b7d2" y="156.03267"/>
     <use style="fill:#008000;stroke:#008000;stroke-linejoin:miter;" x="194.295747" xlink:href="#ma5b719b7d2" y="147.436994"/>
     <use style="fill:#008000;stroke:#008000;stroke-linejoin:miter;" x="198.460886" xlink:href="#ma5b719b7d2" y="139.764498"/>
     <use style="fill:#008000;stroke:#008000;stroke-linejoin:miter;" x="202.626024" xlink:href="#ma5b719b7d2" y="132.50841"/>
     <use style="fill:#008000;stroke:#008000;stroke-linejoin:miter;" x="206.791163" xlink:href="#ma5b719b7d2" y="125.825937"/>
     <use style="fill:#008000;stroke:#008000;stroke-linejoin:miter;" x="210.956301" xlink:href="#ma5b719b7d2" y="119.455608"/>
     <use style="fill:#008000;stroke:#008000;stroke-linejoin:miter;" x="215.121439" xlink:href="#ma5b719b7d2" y="113.935245"/>
     <use style="fill:#008000;stroke:#008000;stroke-linejoin:miter;" x="219.317431" xlink:href="#ma5b719b7d2" y="108.568406"/>
     <use style="fill:#008000;stroke:#008000;stroke-linejoin:miter;" x="223.482569" xlink:href="#ma5b719b7d2" y="103.868382"/>
     <use style="fill:#008000;stroke:#008000;stroke-linejoin:miter;" x="227.647708" xlink:href="#ma5b719b7d2" y="99.429412"/>
     <use style="fill:#008000;stroke:#008000;stroke-linejoin:miter;" x="231.812846" xlink:href="#ma5b719b7d2" y="95.484283"/>
     <use style="fill:#008000;stroke:#008000;stroke-linejoin:miter;" x="235.977985" xlink:href="#ma5b719b7d2" y="91.605828"/>
     <use style="fill:#008000;stroke:#008000;stroke-linejoin:miter;" x="240.143123" xlink:href="#ma5b719b7d2" y="88.282513"/>
     <use style="fill:#008000;stroke:#008000;stroke-linejoin:miter;" x="244.308262" xlink:href="#ma5b719b7d2" y="85.206633"/>
     <use style="fill:#008000;stroke:#008000;stroke-linejoin:miter;" x="248.4734" xlink:href="#ma5b719b7d2" y="82.163827"/>
     <use style="fill:#008000;stroke:#008000;stroke-linejoin:miter;" x="252.669391" xlink:href="#ma5b719b7d2" y="79.566384"/>
     <use style="fill:#008000;stroke:#008000;stroke-linejoin:miter;" x="256.83453" xlink:href="#ma5b719b7d2" y="77.038436"/>
     <use style="fill:#008000;stroke:#008000;stroke-linejoin:miter;" x="260.999668" xlink:href="#ma5b719b7d2" y="74.45279"/>
     <use style="fill:#008000;stroke:#008000;stroke-linejoin:miter;" x="265.164807" xlink:href="#ma5b719b7d2" y="72.400643"/>
     <use style="fill:#008000;stroke:#008000;stroke-linejoin:miter;" x="269.329945" xlink:href="#ma5b719b7d2" y="70.293851"/>
     <use style="fill:#008000;stroke:#008000;stroke-linejoin:miter;" x="273.495084" xlink:href="#ma5b719b7d2" y="68.366445"/>
     <use style="fill:#008000;stroke:#008000;stroke-linejoin:miter;" x="277.660222" xlink:href="#ma5b719b7d2" y="66.769285"/>
     <use style="fill:#008000;stroke:#008000;stroke-linejoin:miter;" x="281.856213" xlink:href="#ma5b719b7d2" y="65.08014"/>
     <use style="fill:#008000;stroke:#008000;stroke-linejoin:miter;" x="286.021352" xlink:href="#ma5b719b7d2" y="63.372599"/>
     <use style="fill:#008000;stroke:#008000;stroke-linejoin:miter;" x="290.18649" xlink:href="#ma5b719b7d2" y="62.077694"/>
     <use style="fill:#008000;stroke:#008000;stroke-linejoin:miter;" x="294.351629" xlink:href="#ma5b719b7d2" y="60.562439"/>
     <use style="fill:#008000;stroke:#008000;stroke-linejoin:miter;" x="298.516767" xlink:href="#ma5b719b7d2" y="59.30501"/>
     <use style="fill:#008000;stroke:#008000;stroke-linejoin:miter;" x="302.681906" xlink:href="#ma5b719b7d2" y="58.234188"/>
     <use style="fill:#008000;stroke:#008000;stroke-linejoin:miter;" x="306.847044" xlink:href="#ma5b719b7d2" y="56.999482"/>
     <use style="fill:#008000;stroke:#008000;stroke-linejoin:miter;" x="311.012183" xlink:href="#ma5b719b7d2" y="55.846103"/>
     <use style="fill:#008000;stroke:#008000;stroke-linejoin:miter;" x="315.208174" xlink:href="#ma5b719b7d2" y="54.879723"/>
     <use style="fill:#008000;stroke:#008000;stroke-linejoin:miter;" x="319.373312" xlink:href="#ma5b719b7d2" y="53.797699"/>
     <use style="fill:#008000;stroke:#008000;stroke-linejoin:miter;" x="323.538451" xlink:href="#ma5b719b7d2" y="52.83816"/>
     <use style="fill:#008000;stroke:#008000;stroke-linejoin:miter;" x="327.703589" xlink:href="#ma5b719b7d2" y="51.903481"/>
     <use style="fill:#008000;stroke:#008000;stroke-linejoin:miter;" x="331.868728" xlink:href="#ma5b719b7d2" y="51.06869"/>
     <use style="fill:#008000;stroke:#008000;stroke-linejoin:miter;" x="336.033866" xlink:href="#ma5b719b7d2" y="50.36189"/>
     <use style="fill:#008000;stroke:#008000;stroke-linejoin:miter;" x="340.199005" xlink:href="#ma5b719b7d2" y="49.512316"/>
     <use style="fill:#008000;stroke:#008000;stroke-linejoin:miter;" x="344.394996" xlink:href="#ma5b719b7d2" y="48.800995"/>
     <use style="fill:#008000;stroke:#008000;stroke-linejoin:miter;" x="348.560135" xlink:href="#ma5b719b7d2" y="48.111126"/>
     <use style="fill:#008000;stroke:#008000;stroke-linejoin:miter;" x="352.725273" xlink:href="#ma5b719b7d2" y="47.397279"/>
     <use style="fill:#008000;stroke:#008000;stroke-linejoin:miter;" x="356.890411" xlink:href="#ma5b719b7d2" y="46.768452"/>
     <use style="fill:#008000;stroke:#008000;stroke-linejoin:miter;" x="361.05555" xlink:href="#ma5b719b7d2" y="46.123394"/>
     <use style="fill:#008000;stroke:#008000;stroke-linejoin:miter;" x="365.220688" xlink:href="#ma5b719b7d2" y="45.561662"/>
     <use style="fill:#008000;stroke:#008000;stroke-linejoin:miter;" x="369.385827" xlink:href="#ma5b719b7d2" y="44.980303"/>
     <use style="fill:#008000;stroke:#008000;stroke-linejoin:miter;" x="373.581818" xlink:href="#ma5b719b7d2" y="44.443636"/>
    </g>
   </g>
   <g id="line2d_16">
    <defs>
     <path d="M -3 3 
L 3 3 
L 3 -3 
L -3 -3 
z
" id="m04ed0c7327" style="stroke:#000000;stroke-linejoin:miter;"/>
    </defs>
    <g clip-path="url(#p63b9e29572)">
     <use style="stroke:#000000;stroke-linejoin:miter;" x="69.218182" xlink:href="#m04ed0c7327" y="242.116364"/>
     <use style="stroke:#000000;stroke-linejoin:miter;" x="73.38332" xlink:href="#m04ed0c7327" y="242.116364"/>
     <use style="stroke:#000000;stroke-linejoin:miter;" x="77.548459" xlink:href="#m04ed0c7327" y="242.116364"/>
     <use style="stroke:#000000;stroke-linejoin:miter;" x="81.713597" xlink:href="#m04ed0c7327" y="242.109042"/>
     <use style="stroke:#000000;stroke-linejoin:miter;" x="85.878736" xlink:href="#m04ed0c7327" y="242.098793"/>
     <use style="stroke:#000000;stroke-linejoin:miter;" x="90.043874" xlink:href="#m04ed0c7327" y="242.069182"/>
     <use style="stroke:#000000;stroke-linejoin:miter;" x="94.209013" xlink:href="#m04ed0c7327" y="242.071739"/>
     <use style="stroke:#000000;stroke-linejoin:miter;" x="98.405004" xlink:href="#m04ed0c7327" y="242.035905"/>
     <use style="stroke:#000000;stroke-linejoin:miter;" x="102.570142" xlink:href="#m04ed0c7327" y="241.946218"/>
     <use style="stroke:#000000;stroke-linejoin:miter;" x="106.735281" xlink:href="#m04ed0c7327" y="241.823732"/>
     <use style="stroke:#000000;stroke-linejoin:miter;" x="110.900419" xlink:href="#m04ed0c7327" y="241.716407"/>
     <use style="stroke:#000000;stroke-linejoin:miter;" x="115.065558" xlink:href="#m04ed0c7327" y="241.419652"/>
     <use style="stroke:#000000;stroke-linejoin:miter;" x="119.230696" xlink:href="#m04ed0c7327" y="241.102484"/>
     <use style="stroke:#000000;stroke-linejoin:miter;" x="123.395835" xlink:href="#m04ed0c7327" y="240.892626"/>
     <use style="stroke:#000000;stroke-linejoin:miter;" x="127.591826" xlink:href="#m04ed0c7327" y="240.341502"/>
     <use style="stroke:#000000;stroke-linejoin:miter;" x="131.756964" xlink:href="#m04ed0c7327" y="239.30579"/>
     <use style="stroke:#000000;stroke-linejoin:miter;" x="135.922103" xlink:href="#m04ed0c7327" y="238.040708"/>
     <use style="stroke:#000000;stroke-linejoin:miter;" x="140.087241" xlink:href="#m04ed0c7327" y="237.11494"/>
     <use style="stroke:#000000;stroke-linejoin:miter;" x="144.25238" xlink:href="#m04ed0c7327" y="234.007701"/>
     <use style="stroke:#000000;stroke-linejoin:miter;" x="148.417518" xlink:href="#m04ed0c7327" y="231.870839"/>
     <use style="stroke:#000000;stroke-linejoin:miter;" x="152.582657" xlink:href="#m04ed0c7327" y="229.349739"/>
     <use style="stroke:#000000;stroke-linejoin:miter;" x="156.747795" xlink:href="#m04ed0c7327" y="224.581666"/>
     <use style="stroke:#000000;stroke-linejoin:miter;" x="160.943787" xlink:href="#m04ed0c7327" y="219.434033"/>
     <use style="stroke:#000000;stroke-linejoin:miter;" x="165.108925" xlink:href="#m04ed0c7327" y="212.276295"/>
     <use style="stroke:#000000;stroke-linejoin:miter;" x="169.274063" xlink:href="#m04ed0c7327" y="203.641378"/>
     <use style="stroke:#000000;stroke-linejoin:miter;" x="173.439202" xlink:href="#m04ed0c7327" y="193.217919"/>
     <use style="stroke:#000000;stroke-linejoin:miter;" x="177.60434" xlink:href="#m04ed0c7327" y="184.078177"/>
     <use style="stroke:#000000;stroke-linejoin:miter;" x="181.769479" xlink:href="#m04ed0c7327" y="174.288614"/>
     <use style="stroke:#000000;stroke-linejoin:miter;" x="185.934617" xlink:href="#m04ed0c7327" y="165.203274"/>
     <use style="stroke:#000000;stroke-linejoin:miter;" x="190.130609" xlink:href="#m04ed0c7327" y="155.857135"/>
     <use style="stroke:#000000;stroke-linejoin:miter;" x="194.295747" xlink:href="#m04ed0c7327" y="147.513754"/>
     <use style="stroke:#000000;stroke-linejoin:miter;" x="198.460886" xlink:href="#m04ed0c7327" y="139.729754"/>
     <use style="stroke:#000000;stroke-linejoin:miter;" x="202.626024" xlink:href="#m04ed0c7327" y="132.36389"/>
     <use style="stroke:#000000;stroke-linejoin:miter;" x="206.791163" xlink:href="#m04ed0c7327" y="125.685377"/>
     <use style="stroke:#000000;stroke-linejoin:miter;" x="210.956301" xlink:href="#m04ed0c7327" y="119.959439"/>
     <use style="stroke:#000000;stroke-linejoin:miter;" x="215.121439" xlink:href="#m04ed0c7327" y="113.903817"/>
     <use style="stroke:#000000;stroke-linejoin:miter;" x="219.317431" xlink:href="#m04ed0c7327" y="108.865969"/>
     <use style="stroke:#000000;stroke-linejoin:miter;" x="223.482569" xlink:href="#m04ed0c7327" y="104.011071"/>
     <use style="stroke:#000000;stroke-linejoin:miter;" x="227.647708" xlink:href="#m04ed0c7327" y="99.634212"/>
     <use style="stroke:#000000;stroke-linejoin:miter;" x="231.812846" xlink:href="#m04ed0c7327" y="95.462096"/>
     <use style="stroke:#000000;stroke-linejoin:miter;" x="235.977985" xlink:href="#m04ed0c7327" y="91.810399"/>
     <use style="stroke:#000000;stroke-linejoin:miter;" x="240.143123" xlink:href="#m04ed0c7327" y="88.321757"/>
     <use style="stroke:#000000;stroke-linejoin:miter;" x="244.308262" xlink:href="#m04ed0c7327" y="85.219789"/>
     <use style="stroke:#000000;stroke-linejoin:miter;" x="248.4734" xlink:href="#m04ed0c7327" y="82.175797"/>
     <use style="stroke:#000000;stroke-linejoin:miter;" x="252.669391" xlink:href="#m04ed0c7327" y="79.363109"/>
     <use style="stroke:#000000;stroke-linejoin:miter;" x="256.83453" xlink:href="#m04ed0c7327" y="77.026776"/>
     <use style="stroke:#000000;stroke-linejoin:miter;" x="260.999668" xlink:href="#m04ed0c7327" y="74.593474"/>
     <use style="stroke:#000000;stroke-linejoin:miter;" x="265.164807" xlink:href="#m04ed0c7327" y="72.46627"/>
     <use style="stroke:#000000;stroke-linejoin:miter;" x="269.329945" xlink:href="#m04ed0c7327" y="70.286885"/>
     <use style="stroke:#000000;stroke-linejoin:miter;" x="273.495084" xlink:href="#m04ed0c7327" y="68.365664"/>
     <use style="stroke:#000000;stroke-linejoin:miter;" x="277.660222" xlink:href="#m04ed0c7327" y="66.610367"/>
     <use style="stroke:#000000;stroke-linejoin:miter;" x="281.856213" xlink:href="#m04ed0c7327" y="65.071514"/>
     <use style="stroke:#000000;stroke-linejoin:miter;" x="286.021352" xlink:href="#m04ed0c7327" y="63.528816"/>
     <use style="stroke:#000000;stroke-linejoin:miter;" x="290.18649" xlink:href="#m04ed0c7327" y="61.917866"/>
     <use style="stroke:#000000;stroke-linejoin:miter;" x="294.351629" xlink:href="#m04ed0c7327" y="60.680532"/>
     <use style="stroke:#000000;stroke-linejoin:miter;" x="298.516767" xlink:href="#m04ed0c7327" y="59.385643"/>
     <use style="stroke:#000000;stroke-linejoin:miter;" x="302.681906" xlink:href="#m04ed0c7327" y="58.042555"/>
     <use style="stroke:#000000;stroke-linejoin:miter;" x="306.847044" xlink:href="#m04ed0c7327" y="56.899263"/>
     <use style="stroke:#000000;stroke-linejoin:miter;" x="311.012183" xlink:href="#m04ed0c7327" y="55.814364"/>
     <use style="stroke:#000000;stroke-linejoin:miter;" x="315.208174" xlink:href="#m04ed0c7327" y="54.676069"/>
     <use style="stroke:#000000;stroke-linejoin:miter;" x="319.373312" xlink:href="#m04ed0c7327" y="53.802496"/>
     <use style="stroke:#000000;stroke-linejoin:miter;" x="323.538451" xlink:href="#m04ed0c7327" y="52.806072"/>
     <use style="stroke:#000000;stroke-linejoin:miter;" x="327.703589" xlink:href="#m04ed0c7327" y="51.945277"/>
     <use style="stroke:#000000;stroke-linejoin:miter;" x="331.868728" xlink:href="#m04ed0c7327" y="51.088347"/>
     <use style="stroke:#000000;stroke-linejoin:miter;" x="336.033866" xlink:href="#m04ed0c7327" y="50.315377"/>
     <use style="stroke:#000000;stroke-linejoin:miter;" x="340.199005" xlink:href="#m04ed0c7327" y="49.544234"/>
     <use style="stroke:#000000;stroke-linejoin:miter;" x="344.394996" xlink:href="#m04ed0c7327" y="48.795318"/>
     <use style="stroke:#000000;stroke-linejoin:miter;" x="348.560135" xlink:href="#m04ed0c7327" y="48.07642"/>
     <use style="stroke:#000000;stroke-linejoin:miter;" x="352.725273" xlink:href="#m04ed0c7327" y="47.387668"/>
     <use style="stroke:#000000;stroke-linejoin:miter;" x="356.890411" xlink:href="#m04ed0c7327" y="46.792833"/>
     <use style="stroke:#000000;stroke-linejoin:miter;" x="361.05555" xlink:href="#m04ed0c7327" y="46.168585"/>
     <use style="stroke:#000000;stroke-linejoin:miter;" x="365.220688" xlink:href="#m04ed0c7327" y="45.567216"/>
     <use style="stroke:#000000;stroke-linejoin:miter;" x="369.385827" xlink:href="#m04ed0c7327" y="44.980303"/>
     <use style="stroke:#000000;stroke-linejoin:miter;" x="373.581818" xlink:href="#m04ed0c7327" y="44.443636"/>
    </g>
   </g>
   <g id="line2d_17">
    <defs>
     <path d="M -3 3 
L 3 -3 
M -3 -3 
L 3 3 
" id="mc08d1b74e5" style="stroke:#bf00bf;"/>
    </defs>
    <g clip-path="url(#p63b9e29572)">
     <use style="fill:#bf00bf;stroke:#bf00bf;" x="69.218182" xlink:href="#mc08d1b74e5" y="242.116364"/>
     <use style="fill:#bf00bf;stroke:#bf00bf;" x="73.38332" xlink:href="#mc08d1b74e5" y="242.116364"/>
     <use style="fill:#bf00bf;stroke:#bf00bf;" x="77.548459" xlink:href="#mc08d1b74e5" y="242.11311"/>
     <use style="fill:#bf00bf;stroke:#bf00bf;" x="81.713597" xlink:href="#mc08d1b74e5" y="242.109042"/>
     <use style="fill:#bf00bf;stroke:#bf00bf;" x="85.878736" xlink:href="#mc08d1b74e5" y="242.108554"/>
     <use style="fill:#bf00bf;stroke:#bf00bf;" x="90.043874" xlink:href="#mc08d1b74e5" y="242.072436"/>
     <use style="fill:#bf00bf;stroke:#bf00bf;" x="94.209013" xlink:href="#mc08d1b74e5" y="242.06895"/>
     <use style="fill:#bf00bf;stroke:#bf00bf;" x="98.405004" xlink:href="#mc08d1b74e5" y="242.026152"/>
     <use style="fill:#bf00bf;stroke:#bf00bf;" x="102.570142" xlink:href="#mc08d1b74e5" y="241.94405"/>
     <use style="fill:#bf00bf;stroke:#bf00bf;" x="106.735281" xlink:href="#mc08d1b74e5" y="241.834462"/>
     <use style="fill:#bf00bf;stroke:#bf00bf;" x="110.900419" xlink:href="#mc08d1b74e5" y="241.578949"/>
     <use style="fill:#bf00bf;stroke:#bf00bf;" x="115.065558" xlink:href="#mc08d1b74e5" y="241.433472"/>
     <use style="fill:#bf00bf;stroke:#bf00bf;" x="119.230696" xlink:href="#mc08d1b74e5" y="241.238318"/>
     <use style="fill:#bf00bf;stroke:#bf00bf;" x="123.395835" xlink:href="#mc08d1b74e5" y="240.740007"/>
     <use style="fill:#bf00bf;stroke:#bf00bf;" x="127.591826" xlink:href="#mc08d1b74e5" y="240.23358"/>
     <use style="fill:#bf00bf;stroke:#bf00bf;" x="131.756964" xlink:href="#mc08d1b74e5" y="239.35821"/>
     <use style="fill:#bf00bf;stroke:#bf00bf;" x="135.922103" xlink:href="#mc08d1b74e5" y="238.439439"/>
     <use style="fill:#bf00bf;stroke:#bf00bf;" x="140.087241" xlink:href="#mc08d1b74e5" y="237.36745"/>
     <use style="fill:#bf00bf;stroke:#bf00bf;" x="144.25238" xlink:href="#mc08d1b74e5" y="234.967701"/>
     <use style="fill:#bf00bf;stroke:#bf00bf;" x="148.417518" xlink:href="#mc08d1b74e5" y="233.2545"/>
     <use style="fill:#bf00bf;stroke:#bf00bf;" x="152.582657" xlink:href="#mc08d1b74e5" y="229.091006"/>
     <use style="fill:#bf00bf;stroke:#bf00bf;" x="156.747795" xlink:href="#mc08d1b74e5" y="224.547967"/>
     <use style="fill:#bf00bf;stroke:#bf00bf;" x="160.943787" xlink:href="#mc08d1b74e5" y="220.101846"/>
     <use style="fill:#bf00bf;stroke:#bf00bf;" x="165.108925" xlink:href="#mc08d1b74e5" y="212.016226"/>
     <use style="fill:#bf00bf;stroke:#bf00bf;" x="169.274063" xlink:href="#mc08d1b74e5" y="203.034355"/>
     <use style="fill:#bf00bf;stroke:#bf00bf;" x="173.439202" xlink:href="#mc08d1b74e5" y="192.148059"/>
     <use style="fill:#bf00bf;stroke:#bf00bf;" x="177.60434" xlink:href="#mc08d1b74e5" y="183.688395"/>
     <use style="fill:#bf00bf;stroke:#bf00bf;" x="181.769479" xlink:href="#mc08d1b74e5" y="174.395906"/>
     <use style="fill:#bf00bf;stroke:#bf00bf;" x="185.934617" xlink:href="#mc08d1b74e5" y="164.568246"/>
     <use style="fill:#bf00bf;stroke:#bf00bf;" x="190.130609" xlink:href="#mc08d1b74e5" y="155.944902"/>
     <use style="fill:#bf00bf;stroke:#bf00bf;" x="194.295747" xlink:href="#mc08d1b74e5" y="147.510608"/>
     <use style="fill:#bf00bf;stroke:#bf00bf;" x="198.460886" xlink:href="#mc08d1b74e5" y="139.903777"/>
     <use style="fill:#bf00bf;stroke:#bf00bf;" x="202.626024" xlink:href="#mc08d1b74e5" y="132.628991"/>
     <use style="fill:#bf00bf;stroke:#bf00bf;" x="206.791163" xlink:href="#mc08d1b74e5" y="125.832535"/>
     <use style="fill:#bf00bf;stroke:#bf00bf;" x="210.956301" xlink:href="#mc08d1b74e5" y="119.564289"/>
     <use style="fill:#bf00bf;stroke:#bf00bf;" x="215.121439" xlink:href="#mc08d1b74e5" y="113.882684"/>
     <use style="fill:#bf00bf;stroke:#bf00bf;" x="219.317431" xlink:href="#mc08d1b74e5" y="108.739985"/>
     <use style="fill:#bf00bf;stroke:#bf00bf;" x="223.482569" xlink:href="#mc08d1b74e5" y="104.073433"/>
     <use style="fill:#bf00bf;stroke:#bf00bf;" x="227.647708" xlink:href="#mc08d1b74e5" y="99.472923"/>
     <use style="fill:#bf00bf;stroke:#bf00bf;" x="231.812846" xlink:href="#mc08d1b74e5" y="95.240224"/>
     <use style="fill:#bf00bf;stroke:#bf00bf;" x="235.977985" xlink:href="#mc08d1b74e5" y="91.945511"/>
     <use style="fill:#bf00bf;stroke:#bf00bf;" x="240.143123" xlink:href="#mc08d1b74e5" y="88.348462"/>
     <use style="fill:#bf00bf;stroke:#bf00bf;" x="244.308262" xlink:href="#mc08d1b74e5" y="85.07712"/>
     <use style="fill:#bf00bf;stroke:#bf00bf;" x="248.4734" xlink:href="#mc08d1b74e5" y="82.292838"/>
     <use style="fill:#bf00bf;stroke:#bf00bf;" x="252.669391" xlink:href="#mc08d1b74e5" y="79.241535"/>
     <use style="fill:#bf00bf;stroke:#bf00bf;" x="256.83453" xlink:href="#mc08d1b74e5" y="77.084017"/>
     <use style="fill:#bf00bf;stroke:#bf00bf;" x="260.999668" xlink:href="#mc08d1b74e5" y="74.823381"/>
     <use style="fill:#bf00bf;stroke:#bf00bf;" x="265.164807" xlink:href="#mc08d1b74e5" y="72.290317"/>
     <use style="fill:#bf00bf;stroke:#bf00bf;" x="269.329945" xlink:href="#mc08d1b74e5" y="70.62664"/>
     <use style="fill:#bf00bf;stroke:#bf00bf;" x="273.495084" xlink:href="#mc08d1b74e5" y="68.465535"/>
     <use style="fill:#bf00bf;stroke:#bf00bf;" x="277.660222" xlink:href="#mc08d1b74e5" y="66.591626"/>
     <use style="fill:#bf00bf;stroke:#bf00bf;" x="281.856213" xlink:href="#mc08d1b74e5" y="65.127212"/>
     <use style="fill:#bf00bf;stroke:#bf00bf;" x="286.021352" xlink:href="#mc08d1b74e5" y="63.507472"/>
     <use style="fill:#bf00bf;stroke:#bf00bf;" x="290.18649" xlink:href="#mc08d1b74e5" y="62.023515"/>
     <use style="fill:#bf00bf;stroke:#bf00bf;" x="294.351629" xlink:href="#mc08d1b74e5" y="60.696136"/>
     <use style="fill:#bf00bf;stroke:#bf00bf;" x="298.516767" xlink:href="#mc08d1b74e5" y="59.32765"/>
     <use style="fill:#bf00bf;stroke:#bf00bf;" x="302.681906" xlink:href="#mc08d1b74e5" y="58.133581"/>
     <use style="fill:#bf00bf;stroke:#bf00bf;" x="306.847044" xlink:href="#mc08d1b74e5" y="56.889846"/>
     <use style="fill:#bf00bf;stroke:#bf00bf;" x="311.012183" xlink:href="#mc08d1b74e5" y="55.837507"/>
     <use style="fill:#bf00bf;stroke:#bf00bf;" x="315.208174" xlink:href="#mc08d1b74e5" y="54.773914"/>
     <use style="fill:#bf00bf;stroke:#bf00bf;" x="319.373312" xlink:href="#mc08d1b74e5" y="53.845021"/>
     <use style="fill:#bf00bf;stroke:#bf00bf;" x="323.538451" xlink:href="#mc08d1b74e5" y="52.850587"/>
     <use style="fill:#bf00bf;stroke:#bf00bf;" x="327.703589" xlink:href="#mc08d1b74e5" y="51.896979"/>
     <use style="fill:#bf00bf;stroke:#bf00bf;" x="331.868728" xlink:href="#mc08d1b74e5" y="51.042175"/>
     <use style="fill:#bf00bf;stroke:#bf00bf;" x="336.033866" xlink:href="#mc08d1b74e5" y="50.352437"/>
     <use style="fill:#bf00bf;stroke:#bf00bf;" x="340.199005" xlink:href="#mc08d1b74e5" y="49.501676"/>
     <use style="fill:#bf00bf;stroke:#bf00bf;" x="344.394996" xlink:href="#mc08d1b74e5" y="48.776542"/>
     <use style="fill:#bf00bf;stroke:#bf00bf;" x="348.560135" xlink:href="#mc08d1b74e5" y="48.055482"/>
     <use style="fill:#bf00bf;stroke:#bf00bf;" x="352.725273" xlink:href="#mc08d1b74e5" y="47.420741"/>
     <use style="fill:#bf00bf;stroke:#bf00bf;" x="356.890411" xlink:href="#mc08d1b74e5" y="46.770681"/>
     <use style="fill:#bf00bf;stroke:#bf00bf;" x="361.05555" xlink:href="#mc08d1b74e5" y="46.17875"/>
     <use style="fill:#bf00bf;stroke:#bf00bf;" x="365.220688" xlink:href="#mc08d1b74e5" y="45.55814"/>
     <use style="fill:#bf00bf;stroke:#bf00bf;" x="369.385827" xlink:href="#mc08d1b74e5" y="44.993662"/>
     <use style="fill:#bf00bf;stroke:#bf00bf;" x="373.581818" xlink:href="#mc08d1b74e5" y="44.443636"/>
    </g>
   </g>
   <g id="patch_3">
    <path d="M 54 252 
L 54 34.56 
" style="fill:none;stroke:#000000;stroke-linecap:square;stroke-linejoin:miter;stroke-width:0.8;"/>
   </g>
   <g id="patch_4">
    <path d="M 388.8 252 
L 388.8 34.56 
" style="fill:none;stroke:#000000;stroke-linecap:square;stroke-linejoin:miter;stroke-width:0.8;"/>
   </g>
   <g id="patch_5">
    <path d="M 54 252 
L 388.8 252 
" style="fill:none;stroke:#000000;stroke-linecap:square;stroke-linejoin:miter;stroke-width:0.8;"/>
   </g>
   <g id="patch_6">
    <path d="M 54 34.56 
L 388.8 34.56 
" style="fill:none;stroke:#000000;stroke-linecap:square;stroke-linejoin:miter;stroke-width:0.8;"/>
   </g>
   <g id="legend_1">
    <g id="patch_7">
     <path d="M 62.4 128.994375 
L 175.33875 128.994375 
Q 177.73875 128.994375 177.73875 126.594375 
L 177.73875 42.96 
Q 177.73875 40.56 175.33875 40.56 
L 62.4 40.56 
Q 60 40.56 60 42.96 
L 60 126.594375 
Q 60 128.994375 62.4 128.994375 
z
" style="fill:#ffffff;opacity:0.8;stroke:#cccccc;stroke-linejoin:miter;"/>
    </g>
    <g id="line2d_18"/>
    <g id="line2d_19">
     <g>
      <use style="fill:#0000ff;stroke:#0000ff;" x="76.8" xlink:href="#maaa340cfcc" y="49.56"/>
     </g>
    </g>
    <g id="text_15">
     <!-- HDV rate = 1.0 -->
     <g transform="translate(98.4 53.76)scale(0.12 -0.12)">
      <defs>
       <path d="M 20.5625 35.5 
L 51.3125 35.5 
L 51.3125 54.4375 
Q 51.3125 59.515625 50.6875 61.140625 
Q 50.203125 62.359375 48.640625 63.234375 
Q 46.53125 64.40625 44.1875 64.40625 
L 41.84375 64.40625 
L 41.84375 66.21875 
L 70.171875 66.21875 
L 70.171875 64.40625 
L 67.828125 64.40625 
Q 65.484375 64.40625 63.375 63.28125 
Q 61.8125 62.5 61.25 60.90625 
Q 60.6875 59.328125 60.6875 54.4375 
L 60.6875 11.71875 
Q 60.6875 6.6875 61.328125 5.078125 
Q 61.8125 3.859375 63.328125 2.984375 
Q 65.484375 1.8125 67.828125 1.8125 
L 70.171875 1.8125 
L 70.171875 0 
L 41.84375 0 
L 41.84375 1.8125 
L 44.1875 1.8125 
Q 48.25 1.8125 50.09375 4.203125 
Q 51.3125 5.765625 51.3125 11.71875 
L 51.3125 31.890625 
L 20.5625 31.890625 
L 20.5625 11.71875 
Q 20.5625 6.6875 21.1875 5.078125 
Q 21.6875 3.859375 23.25 2.984375 
Q 25.34375 1.8125 27.6875 1.8125 
L 30.078125 1.8125 
L 30.078125 0 
L 1.703125 0 
L 1.703125 1.8125 
L 4.046875 1.8125 
Q 8.15625 1.8125 10.015625 4.203125 
Q 11.1875 5.765625 11.1875 11.71875 
L 11.1875 54.4375 
Q 11.1875 59.515625 10.546875 61.140625 
Q 10.0625 62.359375 8.546875 63.234375 
Q 6.390625 64.40625 4.046875 64.40625 
L 1.703125 64.40625 
L 1.703125 66.21875 
L 30.078125 66.21875 
L 30.078125 64.40625 
L 27.6875 64.40625 
Q 25.34375 64.40625 23.25 63.28125 
Q 21.734375 62.5 21.140625 60.90625 
Q 20.5625 59.328125 20.5625 54.4375 
z
" id="TimesNewRomanPSMT-72"/>
       <path d="M 1.703125 0 
L 1.703125 1.8125 
L 4.203125 1.8125 
Q 8.40625 1.8125 10.15625 4.5 
Q 11.234375 6.109375 11.234375 11.71875 
L 11.234375 54.5 
Q 11.234375 60.6875 9.859375 62.25 
Q 7.953125 64.40625 4.203125 64.40625 
L 1.703125 64.40625 
L 1.703125 66.21875 
L 28.65625 66.21875 
Q 43.5 66.21875 51.234375 62.84375 
Q 58.984375 59.46875 63.6875 51.609375 
Q 68.40625 43.75 68.40625 33.453125 
Q 68.40625 19.625 60.015625 10.359375 
Q 50.59375 0 31.296875 0 
z
M 20.609375 4.78125 
Q 26.8125 3.421875 31 3.421875 
Q 42.328125 3.421875 49.796875 11.375 
Q 57.28125 19.34375 57.28125 32.953125 
Q 57.28125 46.6875 49.796875 54.59375 
Q 42.328125 62.5 30.609375 62.5 
Q 26.21875 62.5 20.609375 61.078125 
z
" id="TimesNewRomanPSMT-68"/>
       <path d="M 71 66.21875 
L 71 64.40625 
Q 67.484375 63.765625 65.671875 62.15625 
Q 63.09375 59.765625 61.078125 54.828125 
L 37.984375 -1.515625 
L 36.1875 -1.515625 
L 11.375 55.5625 
Q 9.46875 59.96875 8.6875 60.9375 
Q 7.46875 62.453125 5.6875 63.296875 
Q 3.90625 64.15625 0.875 64.40625 
L 0.875 66.21875 
L 27.9375 66.21875 
L 27.9375 64.40625 
Q 23.34375 63.96875 21.96875 62.84375 
Q 20.609375 61.71875 20.609375 59.96875 
Q 20.609375 57.515625 22.859375 52.34375 
L 39.703125 13.53125 
L 55.328125 51.859375 
Q 57.625 57.515625 57.625 59.71875 
Q 57.625 61.140625 56.203125 62.421875 
Q 54.78125 63.71875 51.421875 64.265625 
Q 51.171875 64.3125 50.59375 64.40625 
L 50.59375 66.21875 
z
" id="TimesNewRomanPSMT-86"/>
       <path d="M 1.8125 43.109375 
L 54.5 43.109375 
L 54.5 39.109375 
L 1.8125 39.109375 
z
M 1.8125 27.203125 
L 54.5 27.203125 
L 54.5 23.1875 
L 1.8125 23.1875 
z
" id="TimesNewRomanPSMT-61"/>
      </defs>
      <use xlink:href="#TimesNewRomanPSMT-72"/>
      <use x="72.216797" xlink:href="#TimesNewRomanPSMT-68"/>
      <use x="144.433594" xlink:href="#TimesNewRomanPSMT-86"/>
      <use x="214.900391" xlink:href="#TimesNewRomanPSMT-32"/>
      <use x="239.900391" xlink:href="#TimesNewRomanPSMT-114"/>
      <use x="273.201172" xlink:href="#TimesNewRomanPSMT-97"/>
      <use x="317.585938" xlink:href="#TimesNewRomanPSMT-116"/>
      <use x="345.369141" xlink:href="#TimesNewRomanPSMT-101"/>
      <use x="389.753906" xlink:href="#TimesNewRomanPSMT-32"/>
      <use x="414.753906" xlink:href="#TimesNewRomanPSMT-61"/>
      <use x="471.150391" xlink:href="#TimesNewRomanPSMT-32"/>
      <use x="496.150391" xlink:href="#TimesNewRomanPSMT-49"/>
      <use x="546.150391" xlink:href="#TimesNewRomanPSMT-46"/>
      <use x="571.150391" xlink:href="#TimesNewRomanPSMT-48"/>
     </g>
    </g>
    <g id="line2d_20"/>
    <g id="line2d_21">
     <g>
      <use style="fill:#ff0000;stroke:#ff0000;stroke-linejoin:miter;" x="76.8" xlink:href="#md483a98c92" y="66.526875"/>
     </g>
    </g>
    <g id="text_16">
     <!-- HDV rate = 1.0 -->
     <g transform="translate(98.4 70.726875)scale(0.12 -0.12)">
      <use xlink:href="#TimesNewRomanPSMT-72"/>
      <use x="72.216797" xlink:href="#TimesNewRomanPSMT-68"/>
      <use x="144.433594" xlink:href="#TimesNewRomanPSMT-86"/>
      <use x="214.900391" xlink:href="#TimesNewRomanPSMT-32"/>
      <use x="239.900391" xlink:href="#TimesNewRomanPSMT-114"/>
      <use x="273.201172" xlink:href="#TimesNewRomanPSMT-97"/>
      <use x="317.585938" xlink:href="#TimesNewRomanPSMT-116"/>
      <use x="345.369141" xlink:href="#TimesNewRomanPSMT-101"/>
      <use x="389.753906" xlink:href="#TimesNewRomanPSMT-32"/>
      <use x="414.753906" xlink:href="#TimesNewRomanPSMT-61"/>
      <use x="471.150391" xlink:href="#TimesNewRomanPSMT-32"/>
      <use x="496.150391" xlink:href="#TimesNewRomanPSMT-49"/>
      <use x="546.150391" xlink:href="#TimesNewRomanPSMT-46"/>
      <use x="571.150391" xlink:href="#TimesNewRomanPSMT-48"/>
     </g>
    </g>
    <g id="line2d_22"/>
    <g id="line2d_23">
     <g>
      <use style="fill:#008000;stroke:#008000;stroke-linejoin:miter;" x="76.8" xlink:href="#ma5b719b7d2" y="83.49375"/>
     </g>
    </g>
    <g id="text_17">
     <!-- HDV rate = 1.0 -->
     <g transform="translate(98.4 87.69375)scale(0.12 -0.12)">
      <use xlink:href="#TimesNewRomanPSMT-72"/>
      <use x="72.216797" xlink:href="#TimesNewRomanPSMT-68"/>
      <use x="144.433594" xlink:href="#TimesNewRomanPSMT-86"/>
      <use x="214.900391" xlink:href="#TimesNewRomanPSMT-32"/>
      <use x="239.900391" xlink:href="#TimesNewRomanPSMT-114"/>
      <use x="273.201172" xlink:href="#TimesNewRomanPSMT-97"/>
      <use x="317.585938" xlink:href="#TimesNewRomanPSMT-116"/>
      <use x="345.369141" xlink:href="#TimesNewRomanPSMT-101"/>
      <use x="389.753906" xlink:href="#TimesNewRomanPSMT-32"/>
      <use x="414.753906" xlink:href="#TimesNewRomanPSMT-61"/>
      <use x="471.150391" xlink:href="#TimesNewRomanPSMT-32"/>
      <use x="496.150391" xlink:href="#TimesNewRomanPSMT-49"/>
      <use x="546.150391" xlink:href="#TimesNewRomanPSMT-46"/>
      <use x="571.150391" xlink:href="#TimesNewRomanPSMT-48"/>
     </g>
    </g>
    <g id="line2d_24"/>
    <g id="line2d_25">
     <g>
      <use style="stroke:#000000;stroke-linejoin:miter;" x="76.8" xlink:href="#m04ed0c7327" y="100.460625"/>
     </g>
    </g>
    <g id="text_18">
     <!-- HDV rate = 1.0 -->
     <g transform="translate(98.4 104.660625)scale(0.12 -0.12)">
      <use xlink:href="#TimesNewRomanPSMT-72"/>
      <use x="72.216797" xlink:href="#TimesNewRomanPSMT-68"/>
      <use x="144.433594" xlink:href="#TimesNewRomanPSMT-86"/>
      <use x="214.900391" xlink:href="#TimesNewRomanPSMT-32"/>
      <use x="239.900391" xlink:href="#TimesNewRomanPSMT-114"/>
      <use x="273.201172" xlink:href="#TimesNewRomanPSMT-97"/>
      <use x="317.585938" xlink:href="#TimesNewRomanPSMT-116"/>
      <use x="345.369141" xlink:href="#TimesNewRomanPSMT-101"/>
      <use x="389.753906" xlink:href="#TimesNewRomanPSMT-32"/>
      <use x="414.753906" xlink:href="#TimesNewRomanPSMT-61"/>
      <use x="471.150391" xlink:href="#TimesNewRomanPSMT-32"/>
      <use x="496.150391" xlink:href="#TimesNewRomanPSMT-49"/>
      <use x="546.150391" xlink:href="#TimesNewRomanPSMT-46"/>
      <use x="571.150391" xlink:href="#TimesNewRomanPSMT-48"/>
     </g>
    </g>
    <g id="line2d_26"/>
    <g id="line2d_27">
     <g>
      <use style="fill:#bf00bf;stroke:#bf00bf;" x="76.8" xlink:href="#mc08d1b74e5" y="117.4275"/>
     </g>
    </g>
    <g id="text_19">
     <!-- HDV rate = 1.0 -->
     <g transform="translate(98.4 121.6275)scale(0.12 -0.12)">
      <use xlink:href="#TimesNewRomanPSMT-72"/>
      <use x="72.216797" xlink:href="#TimesNewRomanPSMT-68"/>
      <use x="144.433594" xlink:href="#TimesNewRomanPSMT-86"/>
      <use x="214.900391" xlink:href="#TimesNewRomanPSMT-32"/>
      <use x="239.900391" xlink:href="#TimesNewRomanPSMT-114"/>
      <use x="273.201172" xlink:href="#TimesNewRomanPSMT-97"/>
      <use x="317.585938" xlink:href="#TimesNewRomanPSMT-116"/>
      <use x="345.369141" xlink:href="#TimesNewRomanPSMT-101"/>
      <use x="389.753906" xlink:href="#TimesNewRomanPSMT-32"/>
      <use x="414.753906" xlink:href="#TimesNewRomanPSMT-61"/>
      <use x="471.150391" xlink:href="#TimesNewRomanPSMT-32"/>
      <use x="496.150391" xlink:href="#TimesNewRomanPSMT-49"/>
      <use x="546.150391" xlink:href="#TimesNewRomanPSMT-46"/>
      <use x="571.150391" xlink:href="#TimesNewRomanPSMT-48"/>
     </g>
    </g>
   </g>
  </g>
 </g>
 <defs>
  <clipPath id="p63b9e29572">
   <rect height="217.44" width="334.8" x="54" y="34.56"/>
  </clipPath>
 </defs>
</svg>
